FuturaRenner-Regular.ufo
<glyph name="exclam" format="1">
  <advance width="189"/>
  <unicode hex="0021"/>
  <outline>
    <contour>
      <point x="137" y="388" type="line"/>
      <point x="136" y="439"/>
      <point x="138" y="491"/>
      <point x="135" y="543" type="curve" smooth="yes"/>
      <point x="133" y="581"/>
      <point x="134" y="616"/>
      <point x="135" y="653" type="curve" smooth="yes"/>
      <point x="136" y="671"/>
      <point x="137" y="691"/>
      <point x="131" y="708" type="curve"/>
      <point x="118" y="713"/>
      <point x="103" y="713"/>
      <point x="90" y="710" type="curve"/>
      <point x="73" y="709"/>
      <point x="56" y="709"/>
      <point x="45" y="703" type="curve"/>
      <point x="39" y="669"/>
      <point x="45" y="634"/>
      <point x="45" y="598" type="curve" smooth="yes"/>
      <point x="45" y="580"/>
      <point x="44" y="563"/>
      <point x="44" y="544" type="curve" smooth="yes"/>
      <point x="44" y="520"/>
      <point x="47" y="495"/>
      <point x="47" y="472" type="curve"/>
      <point x="46" y="444"/>
      <point x="47" y="406"/>
      <point x="47" y="379" type="curve" smooth="yes"/>
      <point x="47" y="357"/>
      <point x="46" y="337"/>
      <point x="47" y="319" type="curve" smooth="yes"/>
      <point x="48" y="302"/>
      <point x="45" y="286"/>
      <point x="47" y="275" type="curve" smooth="yes"/>
      <point x="50" y="258"/>
      <point x="48" y="240"/>
      <point x="47" y="221" type="curve" smooth="yes"/>
      <point x="46" y="209"/>
      <point x="43" y="194"/>
      <point x="52" y="185" type="curve"/>
      <point x="65" y="177"/>
      <point x="75" y="189"/>
      <point x="91" y="188" type="curve"/>
      <point x="102" y="189"/>
      <point x="105" y="182"/>
      <point x="116" y="183" type="curve"/>
      <point x="124" y="180"/>
      <point x="133" y="187"/>
      <point x="140" y="188" type="curve"/>
      <point x="141" y="194"/>
      <point x="146" y="196"/>
      <point x="145" y="204" type="curve"/>
      <point x="140" y="217"/>
      <point x="141" y="232"/>
      <point x="140" y="246" type="curve" smooth="yes"/>
      <point x="139" y="261"/>
      <point x="137" y="276"/>
      <point x="137" y="290" type="curve" smooth="yes"/>
    </contour>
    <contour>
      <point x="150" y="74"/>
      <point x="149" y="80"/>
      <point x="149" y="87" type="curve"/>
      <point x="146" y="92"/>
      <point x="143" y="98"/>
      <point x="145" y="108" type="curve"/>
      <point x="133" y="127"/>
      <point x="102" y="139"/>
      <point x="72" y="130" type="curve"/>
      <point x="67" y="127"/>
      <point x="66" y="121"/>
      <point x="60" y="120" type="curve"/>
      <point x="51" y="104"/>
      <point x="40" y="90"/>
      <point x="38" y="68" type="curve"/>
      <point x="40" y="55"/>
      <point x="46" y="45"/>
      <point x="50" y="34" type="curve"/>
      <point x="61" y="29"/>
      <point x="71" y="23"/>
      <point x="83" y="19" type="curve"/>
      <point x="93" y="19"/>
      <point x="103" y="20"/>
      <point x="110" y="18" type="curve"/>
      <point x="120" y="23"/>
      <point x="130" y="27"/>
      <point x="142" y="30" type="curve"/>
      <point x="144" y="34"/>
      <point x="143" y="41"/>
      <point x="146" y="43" type="curve"/>
      <point x="147" y="48"/>
      <point x="154" y="47"/>
      <point x="153" y="54" type="curve"/>
      <point x="152" y="58"/>
      <point x="155" y="67"/>
      <point x="151" y="68" type="curve"/>
    </contour>
  </outline>
</glyph>
<glyph name="quotedbl" format="1">
  <advance width="305"/>
  <unicode hex="0022"/>
  <outline>
    <contour>
      <point x="102" y="541"/>
      <point x="99" y="566"/>
      <point x="105" y="587" type="curve"/>
      <point x="98" y="605"/>
      <point x="107" y="619"/>
      <point x="107" y="628" type="curve"/>
      <point x="108" y="651"/>
      <point x="110" y="664"/>
      <point x="106" y="680" type="curve"/>
      <point x="107" y="684"/>
      <point x="111" y="687"/>
      <point x="112" y="691" type="curve"/>
      <point x="112" y="695"/>
      <point x="111" y="698"/>
      <point x="115" y="703" type="curve"/>
      <point x="107" y="716"/>
      <point x="117" y="724"/>
      <point x="110" y="738" type="curve"/>
      <point x="108" y="740"/>
      <point x="107" y="740"/>
      <point x="106" y="742" type="curve"/>
      <point x="84" y="746"/>
      <point x="58" y="750"/>
      <point x="27" y="736" type="curve"/>
      <point x="26" y="719"/>
      <point x="33" y="697"/>
      <point x="32" y="682" type="curve"/>
      <point x="32" y="641"/>
      <point x="28" y="616"/>
      <point x="38" y="576" type="curve"/>
      <point x="32" y="569"/>
      <point x="36" y="543"/>
      <point x="39" y="536" type="curve"/>
      <point x="36" y="534"/>
      <point x="39" y="533"/>
      <point x="38" y="532" type="curve"/>
      <point x="36" y="524"/>
      <point x="32" y="519"/>
      <point x="39" y="513" type="curve" smooth="yes"/>
      <point x="46" y="507"/>
      <point x="55" y="507"/>
      <point x="63" y="505" type="curve"/>
      <point x="76" y="509"/>
      <point x="86" y="515"/>
      <point x="97" y="519" type="curve"/>
    </contour>
    <contour>
      <point x="202" y="507"/>
      <point x="219" y="505"/>
      <point x="233" y="505" type="curve" smooth="yes"/>
      <point x="241" y="505"/>
      <point x="250" y="507"/>
      <point x="257" y="513" type="curve" smooth="yes"/>
      <point x="264" y="519"/>
      <point x="260" y="524"/>
      <point x="258" y="532" type="curve"/>
      <point x="257" y="533"/>
      <point x="260" y="534"/>
      <point x="257" y="536" type="curve"/>
      <point x="260" y="543"/>
      <point x="260" y="567"/>
      <point x="258" y="576" type="curve" smooth="yes"/>
      <point x="249" y="616"/>
      <point x="264" y="641"/>
      <point x="264" y="682" type="curve"/>
      <point x="263" y="697"/>
      <point x="269" y="721"/>
      <point x="269" y="736" type="curve" smooth="yes"/>
      <point x="269" y="750"/>
      <point x="212" y="746"/>
      <point x="190" y="742" type="curve"/>
      <point x="189" y="740"/>
      <point x="188" y="740"/>
      <point x="186" y="738" type="curve"/>
      <point x="179" y="724"/>
      <point x="187" y="724"/>
      <point x="187" y="709" type="curve" smooth="yes"/>
      <point x="187" y="703"/>
      <point x="188" y="698"/>
      <point x="188" y="694" type="curve" smooth="yes"/>
      <point x="188" y="690"/>
      <point x="189" y="684"/>
      <point x="190" y="680" type="curve"/>
      <point x="186" y="664"/>
      <point x="188" y="651"/>
      <point x="189" y="628" type="curve"/>
      <point x="189" y="619"/>
      <point x="192" y="606"/>
      <point x="191" y="587" type="curve" smooth="yes"/>
      <point x="190" y="565"/>
      <point x="196" y="529"/>
      <point x="199" y="519" type="curve"/>
    </contour>
  </outline>
</glyph>
<glyph name="numbersign" format="1">
  <advance width="624"/>
  <unicode hex="0023"/>
  <outline>
    <contour>
      <point x="250" y="404" type="line"/>
      <point x="249" y="411"/>
      <point x="255" y="412"/>
      <point x="254" y="417" type="curve"/>
      <point x="254" y="433"/>
      <point x="262" y="442"/>
      <point x="267" y="461" type="curve"/>
      <point x="273" y="469"/>
      <point x="277" y="483"/>
      <point x="268" y="489" type="curve"/>
      <point x="258" y="491"/>
      <point x="241" y="490"/>
      <point x="229" y="490" type="curve" smooth="yes"/>
      <point x="213" y="490"/>
      <point x="224" y="491"/>
      <point x="204" y="488" type="curve"/>
      <point x="193" y="479"/>
      <point x="197" y="468"/>
      <point x="196" y="459" type="curve"/>
      <point x="196" y="447"/>
      <point x="192" y="438"/>
      <point x="186" y="426" type="curve"/>
      <point x="184" y="410"/>
      <point x="180" y="385"/>
      <point x="171" y="370" type="curve"/>
      <point x="171" y="369"/>
      <point x="170" y="369"/>
      <point x="170" y="368" type="curve"/>
      <point x="128" y="368"/>
      <point x="91" y="369"/>
      <point x="84" y="372" type="curve"/>
      <point x="74" y="373"/>
      <point x="61" y="372"/>
      <point x="54" y="364" type="curve"/>
      <point x="51" y="362"/>
      <point x="49" y="360"/>
      <point x="49" y="358" type="curve"/>
      <point x="42" y="349"/>
      <point x="34" y="320"/>
      <point x="46" y="320" type="curve"/>
      <point x="51" y="313"/>
      <point x="54" y="314"/>
      <point x="65" y="312" type="curve"/>
      <point x="78" y="311"/>
      <point x="117" y="310"/>
      <point x="155" y="310" type="curve"/>
      <point x="150" y="294"/>
      <point x="144" y="276"/>
      <point x="140" y="272" type="curve"/>
      <point x="140" y="264" type="line"/>
      <point x="142" y="253"/>
      <point x="135" y="241"/>
      <point x="132" y="234" type="curve"/>
      <point x="125" y="221"/>
      <point x="129" y="213"/>
      <point x="124" y="200" type="curve"/>
      <point x="123" y="195"/>
      <point x="122" y="190"/>
      <point x="120" y="185" type="curve"/>
      <point x="117" y="185" type="line"/>
      <point x="99" y="183"/>
      <point x="70" y="186"/>
      <point x="59" y="185" type="curve"/>
      <point x="51" y="183"/>
      <point x="42" y="185"/>
      <point x="40" y="180" type="curve"/>
      <point x="29" y="177"/>
      <point x="24" y="167"/>
      <point x="25" y="155" type="curve"/>
      <point x="25" y="150"/>
      <point x="25" y="146"/>
      <point x="28" y="135" type="curve"/>
      <point x="31" y="120"/>
      <point x="49" y="114"/>
      <point x="70" y="119" type="curve"/>
      <point x="75" y="120"/>
      <point x="87" y="120"/>
      <point x="99" y="119" type="curve"/>
      <point x="93" y="96"/>
      <point x="79" y="62"/>
      <point x="76" y="45" type="curve"/>
      <point x="72" y="37"/>
      <point x="68" y="30"/>
      <point x="69" y="24" type="curve"/>
      <point x="63" y="18"/>
      <point x="63" y="14"/>
      <point x="59" y="7" type="curve"/>
      <point x="66" y="-3"/>
      <point x="83" y="-4"/>
      <point x="103" y="-4" type="curve"/>
      <point x="124" y="-3"/>
      <point x="125" y="-4"/>
      <point x="135" y="6" type="curve" smooth="yes"/>
      <point x="140" y="11"/>
      <point x="137" y="15"/>
      <point x="136" y="19" type="curve"/>
      <point x="141" y="24"/>
      <point x="138" y="28"/>
      <point x="139" y="32" type="curve"/>
      <point x="145" y="52"/>
      <point x="146" y="50"/>
      <point x="145" y="50" type="curve"/>
      <point x="149" y="67" type="line"/>
      <point x="151" y="73"/>
      <point x="154" y="74"/>
      <point x="156" y="79" type="curve"/>
      <point x="154" y="88"/>
      <point x="156" y="97"/>
      <point x="160" y="108" type="curve"/>
      <point x="161" y="108"/>
      <point x="160" y="108"/>
      <point x="160" y="109" type="curve"/>
      <point x="162" y="112"/>
      <point x="166" y="118"/>
      <point x="168" y="123" type="curve"/>
      <point x="187" y="123"/>
      <point x="237" y="121"/>
      <point x="251" y="121" type="curve" smooth="yes"/>
      <point x="254" y="121"/>
      <point x="289" y="122"/>
      <point x="332" y="124" type="curve"/>
      <point x="331" y="123"/>
      <point x="331" y="122"/>
      <point x="331" y="121" type="curve"/>
      <point x="327" y="98"/>
      <point x="309" y="63"/>
      <point x="305" y="45" type="curve"/>
      <point x="305" y="37"/>
      <point x="299" y="30"/>
      <point x="301" y="24" type="curve"/>
      <point x="293" y="18"/>
      <point x="292" y="14"/>
      <point x="291" y="7" type="curve"/>
      <point x="296" y="-3"/>
      <point x="312" y="3"/>
      <point x="333" y="3" type="curve"/>
      <point x="354" y="4"/>
      <point x="357" y="-4"/>
      <point x="365" y="6" type="curve"/>
      <point x="373" y="11"/>
      <point x="368" y="15"/>
      <point x="369" y="19" type="curve"/>
      <point x="373" y="24"/>
      <point x="370" y="28"/>
      <point x="370" y="32" type="curve"/>
      <point x="381" y="70"/>
      <point x="373" y="30"/>
      <point x="380" y="67" type="curve"/>
      <point x="382" y="73"/>
      <point x="386" y="74"/>
      <point x="389" y="79" type="curve"/>
      <point x="387" y="88"/>
      <point x="388" y="97"/>
      <point x="391" y="108" type="curve"/>
      <point x="392" y="108"/>
      <point x="391" y="108"/>
      <point x="391" y="109" type="curve"/>
      <point x="396" y="113"/>
      <point x="399" y="119"/>
      <point x="400" y="125" type="curve"/>
      <point x="439" y="126"/>
      <point x="472" y="125"/>
      <point x="479" y="123" type="curve"/>
      <point x="488" y="120"/>
      <point x="502" y="123"/>
      <point x="509" y="130" type="curve"/>
      <point x="512" y="132"/>
      <point x="513" y="134"/>
      <point x="512" y="136" type="curve"/>
      <point x="519" y="147"/>
      <point x="527" y="175"/>
      <point x="515" y="175" type="curve"/>
      <point x="510" y="180"/>
      <point x="507" y="180"/>
      <point x="497" y="183" type="curve"/>
      <point x="485" y="184"/>
      <point x="449" y="184"/>
      <point x="415" y="184" type="curve"/>
      <point x="415" y="187" type="line" smooth="yes"/>
      <point x="415" y="192"/>
      <point x="420" y="196"/>
      <point x="423" y="200" type="curve"/>
      <point x="428" y="213"/>
      <point x="428" y="221"/>
      <point x="429" y="231" type="curve"/>
      <point x="432" y="241"/>
      <point x="433" y="253"/>
      <point x="441" y="263" type="curve"/>
      <point x="441" y="263"/>
      <point x="455" y="304"/>
      <point x="449" y="306" type="curve"/>
      <point x="448" y="306"/>
      <point x="450" y="307"/>
      <point x="451" y="308" type="curve"/>
      <point x="466" y="310" type="line" smooth="yes"/>
      <point x="483" y="312"/>
      <point x="515" y="309"/>
      <point x="526" y="310" type="curve" smooth="yes"/>
      <point x="535" y="311"/>
      <point x="541" y="312"/>
      <point x="546" y="315" type="curve"/>
      <point x="553" y="323"/>
      <point x="565" y="328"/>
      <point x="563" y="339" type="curve"/>
      <point x="561" y="346"/>
      <point x="566" y="355"/>
      <point x="563" y="366" type="curve"/>
      <point x="560" y="379"/>
      <point x="540" y="379"/>
      <point x="514" y="374" type="curve" smooth="yes"/>
      <point x="509" y="373"/>
      <point x="485" y="374"/>
      <point x="470" y="374" type="curve"/>
      <point x="473" y="384"/>
      <point x="477" y="394"/>
      <point x="481" y="404" type="curve"/>
      <point x="480" y="411"/>
      <point x="486" y="412"/>
      <point x="488" y="417" type="curve"/>
      <point x="487" y="433"/>
      <point x="492" y="442"/>
      <point x="497" y="461" type="curve"/>
      <point x="499" y="465"/>
      <point x="507" y="462"/>
      <point x="494" y="481" type="curve" smooth="yes"/>
      <point x="487" y="491"/>
      <point x="473" y="490"/>
      <point x="461" y="490" type="curve" smooth="yes"/>
      <point x="445" y="490"/>
      <point x="459" y="487"/>
      <point x="438" y="484" type="curve"/>
      <point x="429" y="475"/>
      <point x="430" y="468"/>
      <point x="428" y="459" type="curve"/>
      <point x="429" y="447"/>
      <point x="422" y="438"/>
      <point x="420" y="426" type="curve" smooth="yes"/>
      <point x="417" y="410"/>
      <point x="411" y="387"/>
      <point x="405" y="372" type="curve"/>
      <point x="380" y="372"/>
      <point x="337" y="373"/>
      <point x="325" y="373" type="curve" smooth="yes"/>
      <point x="322" y="373"/>
      <point x="282" y="371"/>
      <point x="236" y="370" type="curve"/>
    </contour>
    <contour>
      <point x="373" y="264" type="line"/>
      <point x="372" y="253"/>
      <point x="364" y="241"/>
      <point x="365" y="234" type="curve"/>
      <point x="358" y="221"/>
      <point x="365" y="215"/>
      <point x="362" y="203" type="curve"/>
      <point x="360" y="197"/>
      <point x="358" y="191"/>
      <point x="355" y="185" type="curve"/>
      <point x="354" y="185" type="line"/>
      <point x="326" y="186" type="line"/>
      <point x="316" y="186"/>
      <point x="256" y="185"/>
      <point x="245" y="183" type="curve"/>
      <point x="222" y="182"/>
      <point x="203" y="185"/>
      <point x="182" y="187" type="curve"/>
      <point x="182" y="192"/>
      <point x="189" y="196"/>
      <point x="193" y="200" type="curve"/>
      <point x="195" y="213"/>
      <point x="195" y="221"/>
      <point x="198" y="231" type="curve"/>
      <point x="202" y="241"/>
      <point x="200" y="253"/>
      <point x="209" y="263" type="curve"/>
      <point x="209" y="263"/>
      <point x="223" y="304"/>
      <point x="218" y="306" type="curve"/>
      <point x="217" y="306"/>
      <point x="219" y="308"/>
      <point x="220" y="310" type="curve"/>
      <point x="227" y="310"/>
      <point x="238" y="309"/>
      <point x="246" y="309" type="curve" smooth="yes"/>
      <point x="258" y="309"/>
      <point x="322" y="308"/>
      <point x="332" y="310" type="curve"/>
      <point x="352" y="310"/>
      <point x="368" y="309"/>
      <point x="386" y="308" type="curve"/>
      <point x="382" y="292"/>
      <point x="376" y="276"/>
      <point x="372" y="272" type="curve"/>
    </contour>
  </outline>
</glyph>
<glyph name="ampersand" format="1">
  <advance width="600"/>
  <unicode hex="0026"/>
  <outline>
    <contour>
      <point x="317" y="107" type="line"/>
      <point x="306" y="107"/>
      <point x="298" y="99"/>
      <point x="287" y="96" type="curve"/>
      <point x="275" y="94"/>
      <point x="261" y="96"/>
      <point x="247" y="92" type="curve"/>
      <point x="229" y="94"/>
      <point x="215" y="101"/>
      <point x="197" y="104" type="curve"/>
      <point x="183" y="111"/>
      <point x="174" y="123"/>
      <point x="161" y="129" type="curve"/>
      <point x="157" y="139"/>
      <point x="150" y="145"/>
      <point x="145" y="153" type="curve"/>
      <point x="142" y="163"/>
      <point x="137" y="172"/>
      <point x="134" y="183" type="curve"/>
      <point x="130" y="193"/>
      <point x="127" y="204"/>
      <point x="126" y="218" type="curve"/>
      <point x="126" y="227" type="line"/>
      <point x="129" y="247"/>
      <point x="133" y="261"/>
      <point x="140" y="273" type="curve"/>
      <point x="145" y="280"/>
      <point x="151" y="286"/>
      <point x="154" y="292" type="curve"/>
      <point x="159" y="299"/>
      <point x="165" y="304"/>
      <point x="169" y="311" type="curve"/>
      <point x="175" y="312"/>
      <point x="178" y="317"/>
      <point x="183" y="320" type="curve"/>
      <point x="196" y="327"/>
      <point x="211" y="333"/>
      <point x="227" y="338" type="curve"/>
      <point x="248" y="341"/>
      <point x="270" y="334"/>
      <point x="284" y="345" type="curve"/>
      <point x="287" y="372"/>
      <point x="281" y="398"/>
      <point x="280" y="423" type="curve"/>
      <point x="267" y="433"/>
      <point x="244" y="424"/>
      <point x="224" y="429" type="curve"/>
      <point x="219" y="433"/>
      <point x="211" y="436"/>
      <point x="208" y="442" type="curve"/>
      <point x="205" y="449"/>
      <point x="195" y="449"/>
      <point x="192" y="456" type="curve"/>
      <point x="184" y="470"/>
      <point x="179" y="487"/>
      <point x="181" y="511" type="curve"/>
      <point x="190" y="542"/>
      <point x="216" y="556"/>
      <point x="246" y="566" type="curve"/>
      <point x="261" y="566"/>
      <point x="273" y="563"/>
      <point x="287" y="561" type="curve"/>
      <point x="292" y="557"/>
      <point x="296" y="552"/>
      <point x="299" y="546" type="curve"/>
      <point x="310" y="541"/>
      <point x="315" y="529"/>
      <point x="320" y="519" type="curve"/>
      <point x="322" y="510"/>
      <point x="322" y="499"/>
      <point x="326" y="492" type="curve"/>
      <point x="340" y="479"/>
      <point x="360" y="482"/>
      <point x="384" y="481" type="curve"/>
      <point x="391" y="484"/>
      <point x="401" y="485"/>
      <point x="405" y="490" type="curve"/>
      <point x="410" y="502"/>
      <point x="404" y="510"/>
      <point x="405" y="525" type="curve"/>
      <point x="401" y="533"/>
      <point x="397" y="539"/>
      <point x="397" y="550" type="curve"/>
      <point x="391" y="555"/>
      <point x="388" y="563"/>
      <point x="388" y="572" type="curve"/>
      <point x="380" y="577"/>
      <point x="377" y="586"/>
      <point x="373" y="594" type="curve"/>
      <point x="367" y="600"/>
      <point x="362" y="607"/>
      <point x="358" y="615" type="curve"/>
      <point x="348" y="618"/>
      <point x="345" y="630"/>
      <point x="336" y="634" type="curve"/>
      <point x="326" y="637"/>
      <point x="318" y="640"/>
      <point x="310" y="645" type="curve"/>
      <point x="286" y="649"/>
      <point x="257" y="647"/>
      <point x="232" y="650" type="curve"/>
      <point x="225" y="650"/>
      <point x="223" y="645"/>
      <point x="217" y="645" type="curve"/>
      <point x="187" y="651"/>
      <point x="175" y="625"/>
      <point x="153" y="618" type="curve"/>
      <point x="145" y="610"/>
      <point x="138" y="602"/>
      <point x="129" y="594" type="curve"/>
      <point x="124" y="581"/>
      <point x="118" y="570"/>
      <point x="110" y="560" type="curve"/>
      <point x="112" y="555"/>
      <point x="108" y="550"/>
      <point x="107" y="546" type="curve"/>
      <point x="106" y="540"/>
      <point x="107" y="534"/>
      <point x="105" y="528" type="curve"/>
      <point x="104" y="518"/>
      <point x="100" y="507"/>
      <point x="99" y="497" type="curve"/>
      <point x="99" y="483"/>
      <point x="103" y="471"/>
      <point x="102" y="456" type="curve"/>
      <point x="113" y="437"/>
      <point x="131" y="425"/>
      <point x="143" y="408" type="curve"/>
      <point x="150" y="405"/>
      <point x="162" y="406"/>
      <point x="164" y="397" type="curve"/>
      <point x="162" y="384"/>
      <point x="146" y="385"/>
      <point x="135" y="380" type="curve"/>
      <point x="129" y="377"/>
      <point x="125" y="372"/>
      <point x="118" y="369" type="curve"/>
      <point x="112" y="365"/>
      <point x="109" y="359"/>
      <point x="101" y="358" type="curve"/>
      <point x="97" y="349"/>
      <point x="89" y="345"/>
      <point x="82" y="339" type="curve"/>
      <point x="74" y="324"/>
      <point x="66" y="309"/>
      <point x="57" y="295" type="curve"/>
      <point x="49" y="260"/>
      <point x="47" y="220"/>
      <point x="42" y="181" type="curve"/>
      <point x="46" y="170"/>
      <point x="50" y="159"/>
      <point x="50" y="145" type="curve"/>
      <point x="60" y="134"/>
      <point x="64" y="117"/>
      <point x="72" y="104" type="curve"/>
      <point x="79" y="89"/>
      <point x="92" y="81"/>
      <point x="99" y="66" type="curve"/>
      <point x="103" y="68"/>
      <point x="104" y="63"/>
      <point x="105" y="62" type="curve"/>
      <point x="113" y="56"/>
      <point x="121" y="53"/>
      <point x="124" y="44" type="curve"/>
      <point x="135" y="40"/>
      <point x="139" y="28"/>
      <point x="151" y="24" type="curve"/>
      <point x="152" y="20"/>
      <point x="160" y="23"/>
      <point x="164" y="22" type="curve"/>
      <point x="179" y="10"/>
      <point x="204" y="6"/>
      <point x="225" y="0" type="curve"/>
      <point x="233" y="-1"/>
      <point x="236" y="5"/>
      <point x="244" y="3" type="curve"/>
      <point x="252" y="5"/>
      <point x="253" y="0"/>
      <point x="260" y="0" type="curve"/>
      <point x="268" y="4"/>
      <point x="282" y="4"/>
      <point x="291" y="2" type="curve"/>
      <point x="299" y="5"/>
      <point x="308" y="7"/>
      <point x="317" y="8" type="curve"/>
      <point x="327" y="17"/>
      <point x="340" y="17"/>
      <point x="351" y="22" type="curve" smooth="yes"/>
      <point x="365" y="28"/>
      <point x="374" y="41"/>
      <point x="389" y="44" type="curve"/>
      <point x="392" y="54"/>
      <point x="405" y="54"/>
      <point x="407" y="65" type="curve"/>
      <point x="414" y="71"/>
      <point x="420" y="77"/>
      <point x="429" y="82" type="curve"/>
      <point x="434" y="93"/>
      <point x="440" y="102"/>
      <point x="448" y="111" type="curve"/>
      <point x="451" y="126" type="line"/>
      <point x="454" y="129"/>
      <point x="457" y="132"/>
      <point x="459" y="137" type="curve"/>
      <point x="460" y="148"/>
      <point x="464" y="157"/>
      <point x="466" y="167" type="curve"/>
      <point x="466" y="176"/>
      <point x="465" y="179"/>
      <point x="466" y="188" type="curve"/>
      <point x="466" y="196"/>
      <point x="467" y="203"/>
      <point x="473" y="205" type="curve"/>
      <point x="482" y="209"/>
      <point x="493" y="203"/>
      <point x="503" y="204" type="curve"/>
      <point x="514" y="204"/>
      <point x="523" y="209"/>
      <point x="534" y="208" type="curve"/>
      <point x="543" y="209"/>
      <point x="548" y="199"/>
      <point x="556" y="204" type="curve"/>
      <point x="573" y="208"/>
      <point x="568" y="234"/>
      <point x="574" y="249" type="curve"/>
      <point x="570" y="262"/>
      <point x="572" y="280"/>
      <point x="564" y="289" type="curve"/>
      <point x="542" y="290"/>
      <point x="517" y="293"/>
      <point x="495" y="290" type="curve"/>
      <point x="489" y="290"/>
      <point x="485" y="287"/>
      <point x="479" y="287" type="curve" smooth="yes"/>
      <point x="470" y="287"/>
      <point x="461" y="288"/>
      <point x="452" y="290" type="curve"/>
      <point x="443" y="289"/>
      <point x="434" y="287"/>
      <point x="424" y="287" type="curve" smooth="yes"/>
      <point x="416" y="287"/>
      <point x="409" y="290"/>
      <point x="400" y="290" type="curve" smooth="yes"/>
      <point x="395" y="290"/>
      <point x="391" y="288"/>
      <point x="386" y="287" type="curve" smooth="yes"/>
      <point x="369" y="284"/>
      <point x="346" y="285"/>
      <point x="334" y="289" type="curve"/>
      <point x="310" y="286"/>
      <point x="287" y="292"/>
      <point x="271" y="282" type="curve"/>
      <point x="265" y="263"/>
      <point x="270" y="232"/>
      <point x="271" y="210" type="curve"/>
      <point x="276" y="205"/>
      <point x="284" y="204"/>
      <point x="290" y="200" type="curve"/>
      <point x="299" y="201"/>
      <point x="305" y="205"/>
      <point x="314" y="207" type="curve"/>
      <point x="336" y="205"/>
      <point x="357" y="214"/>
      <point x="377" y="210" type="curve"/>
      <point x="379" y="204"/>
      <point x="379" y="198"/>
      <point x="378" y="192" type="curve"/>
      <point x="378" y="191"/>
      <point x="375" y="189"/>
      <point x="375" y="188" type="curve"/>
      <point x="371" y="169"/>
      <point x="369" y="161"/>
      <point x="361" y="150" type="curve" smooth="yes"/>
      <point x="355" y="142"/>
      <point x="347" y="133"/>
      <point x="340" y="128" type="curve"/>
    </contour>
  </outline>
</glyph>
<glyph name="quotesingle" format="1">
  <advance width="186"/>
  <unicode hex="0027"/>
  <outline>
    <contour>
      <point x="117" y="541"/>
      <point x="114" y="566"/>
      <point x="120" y="587" type="curve"/>
      <point x="113" y="605"/>
      <point x="118" y="620"/>
      <point x="122" y="628" type="curve"/>
      <point x="113" y="649"/>
      <point x="125" y="664"/>
      <point x="121" y="680" type="curve"/>
      <point x="122" y="684"/>
      <point x="126" y="687"/>
      <point x="127" y="691" type="curve"/>
      <point x="127" y="695"/>
      <point x="126" y="698"/>
      <point x="130" y="703" type="curve"/>
      <point x="122" y="716"/>
      <point x="132" y="724"/>
      <point x="125" y="738" type="curve"/>
      <point x="123" y="740"/>
      <point x="122" y="740"/>
      <point x="121" y="742" type="curve"/>
      <point x="99" y="746"/>
      <point x="73" y="750"/>
      <point x="42" y="736" type="curve"/>
      <point x="41" y="719"/>
      <point x="48" y="697"/>
      <point x="47" y="682" type="curve"/>
      <point x="47" y="641"/>
      <point x="43" y="616"/>
      <point x="53" y="576" type="curve"/>
      <point x="47" y="569"/>
      <point x="51" y="543"/>
      <point x="54" y="536" type="curve"/>
      <point x="51" y="534"/>
      <point x="54" y="533"/>
      <point x="53" y="532" type="curve"/>
      <point x="51" y="524"/>
      <point x="47" y="519"/>
      <point x="54" y="513" type="curve" smooth="yes"/>
      <point x="61" y="507"/>
      <point x="70" y="507"/>
      <point x="78" y="505" type="curve"/>
      <point x="91" y="509"/>
      <point x="101" y="515"/>
      <point x="112" y="519" type="curve"/>
    </contour>
  </outline>
</glyph>
<glyph name="parenleft" format="1">
  <advance width="372"/>
  <unicode hex="0028"/>
  <outline>
    <contour>
      <point x="264" y="-140" type="line" smooth="yes"/>
      <point x="257" y="-128"/>
      <point x="251" y="-115"/>
      <point x="246" y="-99" type="curve"/>
      <point x="242" y="-84"/>
      <point x="236" y="-70"/>
      <point x="231" y="-55" type="curve"/>
      <point x="217" y="-29"/>
      <point x="210" y="4"/>
      <point x="205" y="39" type="curve"/>
      <point x="200" y="48"/>
      <point x="199" y="60"/>
      <point x="194" y="69" type="curve"/>
      <point x="188" y="106"/>
      <point x="183" y="144"/>
      <point x="175" y="180" type="curve"/>
      <point x="177" y="202"/>
      <point x="169" y="222"/>
      <point x="168" y="244" type="curve"/>
      <point x="167" y="256"/>
      <point x="169" y="268"/>
      <point x="169" y="280" type="curve" smooth="yes"/>
      <point x="169" y="298"/>
      <point x="169" y="315"/>
      <point x="168" y="332" type="curve"/>
      <point x="171" y="348"/>
      <point x="174" y="370"/>
      <point x="172" y="386" type="curve"/>
      <point x="174" y="393"/>
      <point x="176" y="399"/>
      <point x="179" y="405" type="curve"/>
      <point x="175" y="416"/>
      <point x="180" y="425"/>
      <point x="182" y="435" type="curve"/>
      <point x="183" y="469"/>
      <point x="188" y="499"/>
      <point x="198" y="525" type="curve"/>
      <point x="198" y="533"/>
      <point x="195" y="537"/>
      <point x="196" y="545" type="curve"/>
      <point x="199" y="554"/>
      <point x="205" y="561"/>
      <point x="205" y="574" type="curve"/>
      <point x="208" y="584"/>
      <point x="211" y="594"/>
      <point x="218" y="600" type="curve"/>
      <point x="215" y="612"/>
      <point x="221" y="617"/>
      <point x="220" y="630" type="curve"/>
      <point x="226" y="646"/>
      <point x="231" y="663"/>
      <point x="235" y="678" type="curve"/>
      <point x="237" y="683"/>
      <point x="240" y="689"/>
      <point x="240" y="695" type="curve"/>
      <point x="247" y="704"/>
      <point x="249" y="716"/>
      <point x="257" y="723" type="curve"/>
      <point x="256" y="740"/>
      <point x="268" y="752"/>
      <point x="265" y="768" type="curve" smooth="yes"/>
      <point x="263" y="778"/>
      <point x="249" y="789"/>
      <point x="242" y="791" type="curve"/>
      <point x="236" y="793"/>
      <point x="232" y="793"/>
      <point x="226" y="793" type="curve"/>
      <point x="219" y="789"/>
      <point x="217" y="779"/>
      <point x="213" y="771" type="curve"/>
      <point x="206" y="755"/>
      <point x="196" y="742"/>
      <point x="193" y="722" type="curve"/>
      <point x="190" y="714"/>
      <point x="186" y="706"/>
      <point x="182" y="698" type="curve"/>
      <point x="178" y="673"/>
      <point x="168" y="647"/>
      <point x="163" y="627" type="curve"/>
      <point x="160" y="611" type="line" smooth="yes"/>
      <point x="158" y="602"/>
      <point x="154" y="592"/>
      <point x="152" y="582" type="curve"/>
      <point x="147" y="570"/>
      <point x="147" y="553"/>
      <point x="141" y="542" type="curve"/>
      <point x="142" y="527"/>
      <point x="139" y="512"/>
      <point x="136" y="496" type="curve" smooth="yes"/>
      <point x="131" y="465"/>
      <point x="127" y="432"/>
      <point x="125" y="400" type="curve" smooth="yes"/>
      <point x="123" y="373"/>
      <point x="125" y="344"/>
      <point x="120" y="323" type="curve"/>
      <point x="126" y="295"/>
      <point x="119" y="269"/>
      <point x="119" y="244" type="curve" smooth="yes"/>
      <point x="119" y="231"/>
      <point x="121" y="218"/>
      <point x="122" y="205" type="curve" smooth="yes"/>
      <point x="123" y="192"/>
      <point x="123" y="178"/>
      <point x="125" y="165" type="curve" smooth="yes"/>
      <point x="127" y="153"/>
      <point x="132" y="141"/>
      <point x="130" y="128" type="curve"/>
      <point x="133" y="121"/>
      <point x="136" y="113"/>
      <point x="138" y="105" type="curve"/>
      <point x="140" y="89"/>
      <point x="139" y="70"/>
      <point x="146" y="58" type="curve"/>
      <point x="145" y="37"/>
      <point x="152" y="24"/>
      <point x="153" y="5" type="curve"/>
      <point x="164" y="-9"/>
      <point x="167" y="-29"/>
      <point x="174" y="-46" type="curve"/>
      <point x="175" y="-57"/>
      <point x="177" y="-68"/>
      <point x="179" y="-79" type="curve"/>
      <point x="186" y="-91"/>
      <point x="193" y="-105"/>
      <point x="196" y="-122" type="curve"/>
      <point x="201" y="-130"/>
      <point x="206" y="-138"/>
      <point x="210" y="-147" type="curve"/>
      <point x="215" y="-156"/>
      <point x="217" y="-167"/>
      <point x="226" y="-172" type="curve"/>
      <point x="237" y="-171"/>
      <point x="249" y="-171"/>
      <point x="259" y="-169" type="curve"/>
      <point x="263" y="-163"/>
      <point x="267" y="-156"/>
      <point x="267" y="-145" type="curve"/>
    </contour>
  </outline>
</glyph>
<glyph name="parenright" format="1">
  <advance width="374"/>
  <unicode hex="0029"/>
  <outline>
    <contour>
      <point x="196" y="-176"/>
      <point x="197" y="-154"/>
      <point x="211" y="-145" type="curve"/>
      <point x="212" y="-128"/>
      <point x="220" y="-119"/>
      <point x="228" y="-110" type="curve"/>
      <point x="226" y="-85"/>
      <point x="241" y="-78"/>
      <point x="238" y="-53" type="curve"/>
      <point x="241" y="-50"/>
      <point x="241" y="-44"/>
      <point x="242" y="-39" type="curve"/>
      <point x="244" y="-34"/>
      <point x="248" y="-31"/>
      <point x="249" y="-26" type="curve" smooth="yes"/>
      <point x="253" y="-7"/>
      <point x="257" y="12"/>
      <point x="264" y="29" type="curve"/>
      <point x="266" y="62"/>
      <point x="273" y="90"/>
      <point x="277" y="122" type="curve"/>
      <point x="279" y="126"/>
      <point x="272" y="135"/>
      <point x="271" y="141" type="curve"/>
      <point x="275" y="148"/>
      <point x="281" y="153"/>
      <point x="283" y="161" type="curve" smooth="yes"/>
      <point x="285" y="168"/>
      <point x="286" y="178"/>
      <point x="287" y="186" type="curve"/>
      <point x="287" y="193"/>
      <point x="288" y="204"/>
      <point x="288" y="205" type="curve" smooth="yes"/>
      <point x="288" y="207"/>
      <point x="286" y="208"/>
      <point x="287" y="212" type="curve"/>
      <point x="287" y="229"/>
      <point x="288" y="248"/>
      <point x="291" y="264" type="curve"/>
      <point x="290" y="285"/>
      <point x="288" y="319"/>
      <point x="291" y="344" type="curve"/>
      <point x="289" y="363"/>
      <point x="286" y="382"/>
      <point x="287" y="404" type="curve"/>
      <point x="283" y="420"/>
      <point x="282" y="437"/>
      <point x="279" y="454" type="curve" smooth="yes"/>
      <point x="276" y="471"/>
      <point x="275" y="489"/>
      <point x="269" y="503" type="curve"/>
      <point x="269" y="522"/>
      <point x="263" y="536"/>
      <point x="260" y="552" type="curve"/>
      <point x="258" y="570"/>
      <point x="251" y="583"/>
      <point x="250" y="603" type="curve"/>
      <point x="246" y="610"/>
      <point x="245" y="621"/>
      <point x="241" y="629" type="curve"/>
      <point x="240" y="641"/>
      <point x="234" y="646"/>
      <point x="233" y="658" type="curve"/>
      <point x="228" y="677"/>
      <point x="220" y="693"/>
      <point x="216" y="713" type="curve"/>
      <point x="209" y="724"/>
      <point x="203" y="736"/>
      <point x="201" y="752" type="curve"/>
      <point x="197" y="759"/>
      <point x="193" y="766"/>
      <point x="190" y="774" type="curve"/>
      <point x="190" y="785"/>
      <point x="185" y="792"/>
      <point x="176" y="793" type="curve"/>
      <point x="166" y="793"/>
      <point x="160" y="788"/>
      <point x="156" y="782" type="curve"/>
      <point x="146" y="781"/>
      <point x="146" y="770"/>
      <point x="143" y="762" type="curve"/>
      <point x="149" y="743"/>
      <point x="161" y="730"/>
      <point x="162" y="707" type="curve"/>
      <point x="169" y="700"/>
      <point x="170" y="688"/>
      <point x="175" y="680" type="curve"/>
      <point x="179" y="671"/>
      <point x="181" y="660"/>
      <point x="186" y="651" type="curve"/>
      <point x="190" y="629"/>
      <point x="200" y="614"/>
      <point x="200" y="587" type="curve"/>
      <point x="209" y="573"/>
      <point x="209" y="550"/>
      <point x="216" y="533" type="curve"/>
      <point x="217" y="511"/>
      <point x="226" y="496"/>
      <point x="225" y="472" type="curve"/>
      <point x="231" y="456"/>
      <point x="235" y="438"/>
      <point x="235" y="417" type="curve"/>
      <point x="246" y="385"/>
      <point x="242" y="344"/>
      <point x="242" y="305" type="curve" smooth="yes"/>
      <point x="242" y="300"/>
      <point x="244" y="294"/>
      <point x="244" y="289" type="curve" smooth="yes"/>
      <point x="244" y="281"/>
      <point x="242" y="274"/>
      <point x="241" y="265" type="curve" smooth="yes"/>
      <point x="239" y="244"/>
      <point x="239" y="216"/>
      <point x="238" y="191" type="curve"/>
      <point x="234" y="182"/>
      <point x="230" y="171"/>
      <point x="228" y="158" type="curve" smooth="yes"/>
      <point x="227" y="150"/>
      <point x="229" y="142"/>
      <point x="228" y="134" type="curve" smooth="yes"/>
      <point x="227" y="125"/>
      <point x="224" y="117"/>
      <point x="222" y="109" type="curve"/>
      <point x="222" y="102"/>
      <point x="220" y="92"/>
      <point x="220" y="79" type="curve"/>
      <point x="215" y="67"/>
      <point x="214" y="50"/>
      <point x="206" y="40" type="curve"/>
      <point x="206" y="26"/>
      <point x="204" y="13"/>
      <point x="198" y="4" type="curve"/>
      <point x="196" y="-9"/>
      <point x="192" y="-21"/>
      <point x="189" y="-33" type="curve"/>
      <point x="185" y="-59"/>
      <point x="173" y="-78"/>
      <point x="168" y="-104" type="curve"/>
      <point x="162" y="-109"/>
      <point x="161" y="-119"/>
      <point x="157" y="-127" type="curve"/>
      <point x="156" y="-137"/>
      <point x="147" y="-140"/>
      <point x="148" y="-152" type="curve"/>
      <point x="148" y="-162"/>
      <point x="155" y="-165"/>
      <point x="159" y="-171" type="curve"/>
      <point x="163" y="-178"/>
      <point x="170" y="-181"/>
      <point x="179" y="-182" type="curve"/>
    </contour>
  </outline>
</glyph>
<glyph name="asterisk" format="1">
  <advance width="373"/>
  <unicode hex="002A"/>
  <outline>
    <contour>
      <point x="246" y="483" type="line"/>
      <point x="257" y="475" type="line"/>
      <point x="262" y="472"/>
      <point x="267" y="472"/>
      <point x="268" y="467" type="curve"/>
      <point x="281" y="463"/>
      <point x="286" y="451"/>
      <point x="300" y="448" type="curve"/>
      <point x="315" y="450"/>
      <point x="323" y="460"/>
      <point x="331" y="469" type="curve"/>
      <point x="334" y="493"/>
      <point x="319" y="499"/>
      <point x="300" y="502" type="curve"/>
      <point x="288" y="515"/>
      <point x="266" y="518"/>
      <point x="254" y="530" type="curve"/>
      <point x="242" y="533"/>
      <point x="230" y="535"/>
      <point x="227" y="547" type="curve"/>
      <point x="231" y="553"/>
      <point x="239" y="554"/>
      <point x="245" y="557" type="curve" smooth="yes"/>
      <point x="255" y="562"/>
      <point x="265" y="566"/>
      <point x="275" y="570" type="curve"/>
      <point x="278" y="571"/>
      <point x="280" y="573"/>
      <point x="284" y="574" type="curve"/>
      <point x="287" y="575"/>
      <point x="292" y="575"/>
      <point x="297" y="576" type="curve"/>
      <point x="300" y="577"/>
      <point x="304" y="581"/>
      <point x="308" y="579" type="curve"/>
      <point x="314" y="586"/>
      <point x="328" y="592"/>
      <point x="328" y="604" type="curve" smooth="yes"/>
      <point x="328" y="612"/>
      <point x="323" y="617"/>
      <point x="319" y="625" type="curve"/>
      <point x="314" y="633"/>
      <point x="311" y="640"/>
      <point x="303" y="640" type="curve"/>
      <point x="291" y="641"/>
      <point x="281" y="623"/>
      <point x="271" y="620" type="curve"/>
      <point x="259" y="617"/>
      <point x="255" y="605"/>
      <point x="241" y="603" type="curve"/>
      <point x="234" y="594"/>
      <point x="225" y="588"/>
      <point x="211" y="585" type="curve"/>
      <point x="207" y="592"/>
      <point x="207" y="601"/>
      <point x="207" y="609" type="curve"/>
      <point x="205" y="636"/>
      <point x="210" y="661"/>
      <point x="210" y="683" type="curve"/>
      <point x="207" y="687"/>
      <point x="209" y="696"/>
      <point x="205" y="699" type="curve"/>
      <point x="195" y="709"/>
      <point x="175" y="704"/>
      <point x="167" y="696" type="curve"/>
      <point x="162" y="679"/>
      <point x="169" y="662"/>
      <point x="169" y="645" type="curve" smooth="yes"/>
      <point x="169" y="641"/>
      <point x="167" y="635"/>
      <point x="167" y="631" type="curve" smooth="yes"/>
      <point x="167" y="623"/>
      <point x="169" y="614"/>
      <point x="169" y="606" type="curve" smooth="yes"/>
      <point x="169" y="597"/>
      <point x="169" y="587"/>
      <point x="163" y="581" type="curve"/>
      <point x="152" y="584"/>
      <point x="146" y="591"/>
      <point x="134" y="593" type="curve"/>
      <point x="126" y="603"/>
      <point x="113" y="608"/>
      <point x="104" y="617" type="curve"/>
      <point x="89" y="620"/>
      <point x="84" y="633"/>
      <point x="63" y="631" type="curve"/>
      <point x="55" y="625" type="line"/>
      <point x="50" y="605"/>
      <point x="60" y="588"/>
      <point x="70" y="577" type="curve"/>
      <point x="78" y="575"/>
      <point x="85" y="571"/>
      <point x="96" y="571" type="curve"/>
      <point x="102" y="566"/>
      <point x="111" y="563"/>
      <point x="120" y="560" type="curve"/>
      <point x="128" y="556"/>
      <point x="141" y="557"/>
      <point x="144" y="547" type="curve"/>
      <point x="142" y="538"/>
      <point x="131" y="538"/>
      <point x="126" y="532" type="curve"/>
      <point x="119" y="527"/>
      <point x="111" y="523"/>
      <point x="103" y="521" type="curve"/>
      <point x="96" y="513"/>
      <point x="87" y="509"/>
      <point x="79" y="503" type="curve"/>
      <point x="75" y="501"/>
      <point x="68" y="501"/>
      <point x="63" y="499" type="curve"/>
      <point x="59" y="497"/>
      <point x="51" y="493"/>
      <point x="51" y="489" type="curve"/>
      <point x="48" y="486"/>
      <point x="49" y="475"/>
      <point x="51" y="472" type="curve"/>
      <point x="54" y="468"/>
      <point x="53" y="461"/>
      <point x="57" y="458" type="curve"/>
      <point x="60" y="455"/>
      <point x="65" y="455"/>
      <point x="68" y="451" type="curve"/>
      <point x="82" y="452"/>
      <point x="91" y="457"/>
      <point x="103" y="459" type="curve"/>
      <point x="114" y="469"/>
      <point x="122" y="481"/>
      <point x="139" y="486" type="curve"/>
      <point x="144" y="495"/>
      <point x="155" y="506"/>
      <point x="166" y="505" type="curve"/>
      <point x="169" y="504"/>
      <point x="170" y="499"/>
      <point x="170" y="497" type="curve"/>
      <point x="174" y="483"/>
      <point x="170" y="470"/>
      <point x="169" y="456" type="curve" smooth="yes"/>
      <point x="168" y="444"/>
      <point x="169" y="432"/>
      <point x="169" y="420" type="curve"/>
      <point x="166" y="410"/>
      <point x="163" y="402"/>
      <point x="167" y="393" type="curve"/>
      <point x="179" y="384"/>
      <point x="207" y="388"/>
      <point x="213" y="399" type="curve"/>
      <point x="209" y="423"/>
      <point x="204" y="456"/>
      <point x="205" y="484" type="curve"/>
      <point x="205" y="491"/>
      <point x="203" y="501"/>
      <point x="210" y="505" type="curve"/>
      <point x="222" y="503"/>
      <point x="229" y="492"/>
      <point x="238" y="486" type="curve"/>
    </contour>
  </outline>
</glyph>
<glyph name="plus" format="1">
  <advance width="392"/>
  <unicode hex="002B"/>
  <outline>
    <contour>
      <point x="141" y="215" type="line"/>
      <point x="139" y="214"/>
      <point x="137" y="214"/>
      <point x="135" y="214" type="curve"/>
      <point x="122" y="212"/>
      <point x="59" y="216"/>
      <point x="51" y="215" type="curve"/>
      <point x="45" y="214"/>
      <point x="39" y="213"/>
      <point x="33" y="213" type="curve"/>
      <point x="26" y="207"/>
      <point x="23" y="197"/>
      <point x="22" y="186" type="curve" smooth="yes"/>
      <point x="21" y="175"/>
      <point x="22" y="163"/>
      <point x="25" y="152" type="curve"/>
      <point x="32" y="147"/>
      <point x="35" y="137"/>
      <point x="51" y="142" type="curve" smooth="yes"/>
      <point x="58" y="144"/>
      <point x="66" y="145"/>
      <point x="74" y="146" type="curve" smooth="yes"/>
      <point x="85" y="147"/>
      <point x="98" y="147"/>
      <point x="107" y="144" type="curve"/>
      <point x="125" y="147" type="line"/>
      <point x="140" y="147" type="line"/>
      <point x="140" y="144"/>
      <point x="140" y="142"/>
      <point x="141" y="140" type="curve"/>
      <point x="143" y="127"/>
      <point x="141" y="41"/>
      <point x="142" y="33" type="curve"/>
      <point x="143" y="27"/>
      <point x="144" y="21"/>
      <point x="144" y="15" type="curve"/>
      <point x="150" y="8"/>
      <point x="160" y="5"/>
      <point x="171" y="4" type="curve" smooth="yes"/>
      <point x="182" y="3"/>
      <point x="194" y="4"/>
      <point x="205" y="7" type="curve"/>
      <point x="210" y="14"/>
      <point x="220" y="17"/>
      <point x="215" y="33" type="curve" smooth="yes"/>
      <point x="213" y="40"/>
      <point x="212" y="48"/>
      <point x="211" y="56" type="curve" smooth="yes"/>
      <point x="210" y="67"/>
      <point x="210" y="80"/>
      <point x="213" y="89" type="curve"/>
      <point x="208" y="130" type="line"/>
      <point x="207" y="133"/>
      <point x="207" y="139"/>
      <point x="208" y="145" type="curve"/>
      <point x="237" y="148"/>
      <point x="292" y="152"/>
      <point x="302" y="148" type="curve" smooth="yes"/>
      <point x="309" y="145"/>
      <point x="317" y="152"/>
      <point x="324" y="153" type="curve"/>
      <point x="325" y="157"/>
      <point x="328" y="159"/>
      <point x="329" y="161" type="curve"/>
      <point x="334" y="170"/>
      <point x="336" y="184"/>
      <point x="335" y="194" type="curve"/>
      <point x="332" y="202"/>
      <point x="329" y="211"/>
      <point x="321" y="215" type="curve"/>
      <point x="306" y="217"/>
      <point x="291" y="214"/>
      <point x="275" y="215" type="curve"/>
      <point x="216" y="214" type="line" smooth="yes"/>
      <point x="214" y="214"/>
      <point x="211" y="214"/>
      <point x="209" y="213" type="curve"/>
      <point x="207" y="242"/>
      <point x="204" y="298"/>
      <point x="209" y="308" type="curve"/>
      <point x="212" y="315"/>
      <point x="209" y="325"/>
      <point x="204" y="330" type="curve" smooth="yes"/>
      <point x="201" y="333"/>
      <point x="198" y="334"/>
      <point x="196" y="335" type="curve"/>
      <point x="187" y="340"/>
      <point x="173" y="342"/>
      <point x="163" y="341" type="curve"/>
      <point x="155" y="338"/>
      <point x="146" y="335"/>
      <point x="142" y="327" type="curve"/>
      <point x="140" y="312"/>
      <point x="144" y="274"/>
      <point x="143" y="258" type="curve"/>
      <point x="143" y="252"/>
      <point x="141" y="228"/>
      <point x="141" y="221" type="curve" smooth="yes"/>
    </contour>
  </outline>
</glyph>
<glyph name="comma" format="1">
  <advance width="284"/>
  <unicode hex="002C"/>
  <outline>
    <contour>
      <point x="101" y="-58" type="line" smooth="yes"/>
      <point x="97" y="-69"/>
      <point x="95" y="-80"/>
      <point x="92" y="-91" type="curve"/>
      <point x="89" y="-96"/>
      <point x="81" y="-96"/>
      <point x="79" y="-102" type="curve"/>
      <point x="70" y="-138"/>
      <point x="104" y="-146"/>
      <point x="134" y="-141" type="curve"/>
      <point x="137" y="-138"/>
      <point x="140" y="-134"/>
      <point x="144" y="-132" type="curve"/>
      <point x="145" y="-126"/>
      <point x="148" y="-122"/>
      <point x="147" y="-113" type="curve"/>
      <point x="155" y="-98"/>
      <point x="160" y="-80"/>
      <point x="172" y="-69" type="curve"/>
      <point x="178" y="-53"/>
      <point x="183" y="-36"/>
      <point x="193" y="-23" type="curve"/>
      <point x="193" y="-16"/>
      <point x="195" y="-11"/>
      <point x="196" y="-4" type="curve"/>
      <point x="198" y="3"/>
      <point x="205" y="4"/>
      <point x="207" y="11" type="curve"/>
      <point x="214" y="22"/>
      <point x="215" y="36"/>
      <point x="219" y="48" type="curve"/>
      <point x="223" y="57"/>
      <point x="232" y="63"/>
      <point x="235" y="71" type="curve"/>
      <point x="238" y="80"/>
      <point x="246" y="85"/>
      <point x="246" y="97" type="curve"/>
      <point x="242" y="104"/>
      <point x="234" y="107"/>
      <point x="229" y="112" type="curve"/>
      <point x="206" y="115"/>
      <point x="197" y="130"/>
      <point x="171" y="128" type="curve"/>
      <point x="157" y="118"/>
      <point x="155" y="96"/>
      <point x="150" y="76" type="curve"/>
      <point x="136" y="51"/>
      <point x="130" y="22"/>
      <point x="120" y="-6" type="curve"/>
      <point x="118" y="-13"/>
      <point x="115" y="-19"/>
      <point x="112" y="-26" type="curve"/>
    </contour>
  </outline>
</glyph>
<glyph name="hyphen" format="1">
  <advance width="254"/>
  <unicode hex="002D"/>
  <outline>
    <contour>
      <point x="127" y="179" type="line"/>
      <point x="138" y="180"/>
      <point x="149" y="176"/>
      <point x="160" y="176" type="curve" smooth="yes"/>
      <point x="178" y="176"/>
      <point x="194" y="182"/>
      <point x="210" y="185" type="curve"/>
      <point x="211" y="189"/>
      <point x="214" y="191"/>
      <point x="215" y="193" type="curve"/>
      <point x="220" y="202"/>
      <point x="222" y="216"/>
      <point x="221" y="226" type="curve"/>
      <point x="218" y="234"/>
      <point x="215" y="243"/>
      <point x="207" y="247" type="curve"/>
      <point x="192" y="249"/>
      <point x="177" y="246"/>
      <point x="161" y="247" type="curve"/>
      <point x="155" y="247"/>
      <point x="148" y="248"/>
      <point x="141" y="248" type="curve" smooth="yes"/>
      <point x="134" y="248"/>
      <point x="127" y="245"/>
      <point x="120" y="245" type="curve" smooth="yes"/>
      <point x="106" y="245"/>
      <point x="92" y="248"/>
      <point x="78" y="248" type="curve" smooth="yes"/>
      <point x="63" y="248"/>
      <point x="49" y="246"/>
      <point x="35" y="245" type="curve"/>
      <point x="21" y="233"/>
      <point x="21" y="205"/>
      <point x="27" y="184" type="curve"/>
      <point x="34" y="179"/>
      <point x="45" y="178"/>
      <point x="53" y="174" type="curve"/>
      <point x="69" y="179"/>
      <point x="93" y="181"/>
      <point x="109" y="176" type="curve"/>
    </contour>
  </outline>
</glyph>
<glyph name="period" format="1">
  <advance width="237"/>
  <unicode hex="002E"/>
  <outline>
    <contour>
      <point x="170" y="80"/>
      <point x="160" y="94"/>
      <point x="150" y="109" type="curve"/>
      <point x="138" y="114"/>
      <point x="125" y="122"/>
      <point x="113" y="122" type="curve" smooth="yes"/>
      <point x="94" y="122"/>
      <point x="87" y="113"/>
      <point x="77" y="101" type="curve"/>
      <point x="72" y="94"/>
      <point x="65" y="86"/>
      <point x="62" y="80" type="curve" smooth="yes"/>
      <point x="56" y="68"/>
      <point x="53" y="39"/>
      <point x="58" y="29" type="curve"/>
      <point x="63" y="22"/>
      <point x="71" y="20"/>
      <point x="76" y="15" type="curve"/>
      <point x="81" y="8"/>
      <point x="88" y="6"/>
      <point x="97" y="2" type="curve"/>
      <point x="122" y="2"/>
      <point x="141" y="8"/>
      <point x="159" y="17" type="curve"/>
      <point x="165" y="30"/>
      <point x="174" y="41"/>
      <point x="177" y="58" type="curve"/>
      <point x="176" y="59"/>
      <point x="176" y="60"/>
      <point x="175" y="60" type="curve"/>
    </contour>
  </outline>
</glyph>
<glyph name="slash" format="1">
  <advance width="401"/>
  <unicode hex="002F"/>
  <outline>
    <contour>
      <point x="250" y="480" type="line"/>
      <point x="244" y="467"/>
      <point x="240" y="456"/>
      <point x="234" y="444" type="curve" smooth="yes"/>
      <point x="228" y="431"/>
      <point x="198" y="354"/>
      <point x="187" y="344" type="curve"/>
      <point x="184" y="329" type="line" smooth="yes"/>
      <point x="180" y="312"/>
      <point x="167" y="296"/>
      <point x="165" y="280" type="curve"/>
      <point x="153" y="264"/>
      <point x="151" y="247"/>
      <point x="141" y="231" type="curve"/>
      <point x="131" y="194"/>
      <point x="105" y="146"/>
      <point x="89" y="110" type="curve"/>
      <point x="77" y="73"/>
      <point x="45" y="17"/>
      <point x="35" y="-11" type="curve"/>
      <point x="28" y="-22"/>
      <point x="22" y="-34"/>
      <point x="19" y="-45" type="curve"/>
      <point x="14" y="-53"/>
      <point x="8" y="-60"/>
      <point x="4" y="-69" type="curve"/>
      <point x="5" y="-84"/>
      <point x="24" y="-87"/>
      <point x="44" y="-86" type="curve" smooth="yes"/>
      <point x="65" y="-85"/>
      <point x="66" y="-86"/>
      <point x="78" y="-70" type="curve"/>
      <point x="86" y="-64"/>
      <point x="83" y="-56"/>
      <point x="86" y="-50" type="curve"/>
      <point x="91" y="-45"/>
      <point x="89" y="-36"/>
      <point x="92" y="-29" type="curve" smooth="yes"/>
      <point x="117" y="29"/>
      <point x="93" y="-33"/>
      <point x="115" y="25" type="curve"/>
      <point x="118" y="32"/>
      <point x="123" y="35"/>
      <point x="126" y="42" type="curve"/>
      <point x="129" y="56"/>
      <point x="136" y="70"/>
      <point x="143" y="85" type="curve" smooth="yes"/>
      <point x="144" y="87"/>
      <point x="142" y="87"/>
      <point x="143" y="89" type="curve"/>
      <point x="149" y="100"/>
      <point x="158" y="113"/>
      <point x="159" y="124" type="curve"/>
      <point x="169" y="144"/>
      <point x="177" y="166"/>
      <point x="187" y="189" type="curve"/>
      <point x="195" y="211" type="line"/>
      <point x="198" y="217"/>
      <point x="204" y="225"/>
      <point x="207" y="231" type="curve" smooth="yes"/>
      <point x="216" y="248"/>
      <point x="220" y="264"/>
      <point x="226" y="278" type="curve" smooth="yes"/>
      <point x="233" y="296"/>
      <point x="238" y="312"/>
      <point x="249" y="328" type="curve"/>
      <point x="249" y="328"/>
      <point x="279" y="392"/>
      <point x="277" y="395" type="curve"/>
      <point x="274" y="397"/>
      <point x="282" y="405"/>
      <point x="282" y="407" type="curve"/>
      <point x="298" y="455"/>
      <point x="320" y="497"/>
      <point x="343" y="549" type="curve"/>
      <point x="346" y="557"/>
      <point x="353" y="558"/>
      <point x="356" y="568" type="curve"/>
      <point x="361" y="591"/>
      <point x="370" y="610"/>
      <point x="381" y="637" type="curve"/>
      <point x="391" y="650"/>
      <point x="401" y="671"/>
      <point x="395" y="679" type="curve"/>
      <point x="386" y="684"/>
      <point x="371" y="681"/>
      <point x="358" y="681" type="curve" smooth="yes"/>
      <point x="342" y="681"/>
      <point x="351" y="684"/>
      <point x="333" y="678" type="curve"/>
      <point x="320" y="664"/>
      <point x="319" y="648"/>
      <point x="313" y="633" type="curve"/>
      <point x="308" y="616"/>
      <point x="300" y="600"/>
      <point x="293" y="583" type="curve"/>
      <point x="283" y="556"/>
      <point x="268" y="519"/>
      <point x="256" y="495" type="curve"/>
    </contour>
  </outline>
</glyph>
<glyph name="zero" format="1">
  <advance width="562"/>
  <unicode hex="0030"/>
  <outline>
    <contour>
      <point x="469" y="410" type="line"/>
      <point x="462" y="417"/>
      <point x="456" y="425"/>
      <point x="450" y="432" type="curve"/>
      <point x="442" y="436"/>
      <point x="437" y="441"/>
      <point x="431" y="446" type="curve"/>
      <point x="423" y="450"/>
      <point x="420" y="457"/>
      <point x="412" y="460" type="curve"/>
      <point x="402" y="467"/>
      <point x="389" y="469"/>
      <point x="382" y="478" type="curve"/>
      <point x="371" y="480"/>
      <point x="361" y="484"/>
      <point x="352" y="489" type="curve"/>
      <point x="335" y="492"/>
      <point x="316" y="492"/>
      <point x="302" y="498" type="curve"/>
      <point x="280" y="497"/>
      <point x="261" y="494"/>
      <point x="239" y="493" type="curve"/>
      <point x="222" y="490"/>
      <point x="208" y="484"/>
      <point x="190" y="482" type="curve"/>
      <point x="181" y="477"/>
      <point x="173" y="471"/>
      <point x="161" y="468" type="curve"/>
      <point x="153" y="457"/>
      <point x="139" y="451"/>
      <point x="130" y="441" type="curve"/>
      <point x="124" y="438"/>
      <point x="120" y="432"/>
      <point x="116" y="427" type="curve"/>
      <point x="109" y="423"/>
      <point x="106" y="417"/>
      <point x="100" y="413" type="curve"/>
      <point x="95" y="400"/>
      <point x="84" y="393"/>
      <point x="79" y="380" type="curve"/>
      <point x="75" y="375"/>
      <point x="73" y="369"/>
      <point x="70" y="363" type="curve"/>
      <point x="67" y="356"/>
      <point x="66" y="349"/>
      <point x="60" y="344" type="curve"/>
      <point x="60" y="332"/>
      <point x="56" y="325"/>
      <point x="54" y="315" type="curve"/>
      <point x="54" y="298"/>
      <point x="50" y="286"/>
      <point x="48" y="271" type="curve"/>
      <point x="47" y="251"/>
      <point x="52" y="234"/>
      <point x="45" y="219" type="curve"/>
      <point x="49" y="213"/>
      <point x="48" y="201"/>
      <point x="48" y="191" type="curve"/>
      <point x="53" y="173"/>
      <point x="62" y="159"/>
      <point x="65" y="140" type="curve"/>
      <point x="76" y="131"/>
      <point x="80" y="115"/>
      <point x="92" y="106" type="curve"/>
      <point x="120" y="71" type="line"/>
      <point x="131" y="66"/>
      <point x="138" y="57"/>
      <point x="149" y="52" type="curve"/>
      <point x="159" y="46"/>
      <point x="167" y="38"/>
      <point x="180" y="35" type="curve"/>
      <point x="185" y="32"/>
      <point x="186" y="27"/>
      <point x="190" y="24" type="curve"/>
      <point x="207" y="25"/>
      <point x="216" y="19"/>
      <point x="229" y="16" type="curve"/>
      <point x="241" y="18"/>
      <point x="253" y="13"/>
      <point x="265" y="13" type="curve"/>
      <point x="276" y="12"/>
      <point x="288" y="15"/>
      <point x="298" y="16" type="curve"/>
      <point x="312" y="16"/>
      <point x="324" y="15"/>
      <point x="336" y="16" type="curve" smooth="yes"/>
      <point x="353" y="17"/>
      <point x="368" y="25"/>
      <point x="382" y="27" type="curve"/>
      <point x="387" y="33"/>
      <point x="396" y="34"/>
      <point x="401" y="39" type="curve"/>
      <point x="407" y="44"/>
      <point x="415" y="48"/>
      <point x="423" y="51" type="curve"/>
      <point x="432" y="60"/>
      <point x="444" y="67"/>
      <point x="455" y="76" type="curve"/>
      <point x="462" y="87"/>
      <point x="470" y="97"/>
      <point x="481" y="104" type="curve"/>
      <point x="484" y="112"/>
      <point x="488" y="120"/>
      <point x="496" y="123" type="curve"/>
      <point x="494" y="138"/>
      <point x="504" y="140"/>
      <point x="507" y="151" type="curve" smooth="yes"/>
      <point x="512" y="169"/>
      <point x="518" y="186"/>
      <point x="522" y="205" type="curve"/>
      <point x="524" y="228"/>
      <point x="518" y="249"/>
      <point x="522" y="270" type="curve"/>
      <point x="522" y="271"/>
      <point x="522" y="271"/>
      <point x="521" y="271" type="curve"/>
      <point x="521" y="294"/>
      <point x="513" y="315"/>
      <point x="511" y="341" type="curve"/>
      <point x="505" y="359"/>
      <point x="493" y="371"/>
      <point x="488" y="389" type="curve"/>
    </contour>
    <contour>
      <point x="198" y="129" type="line"/>
      <point x="195" y="134"/>
      <point x="190" y="137"/>
      <point x="187" y="140" type="curve"/>
      <point x="182" y="147" type="line"/>
      <point x="180" y="148"/>
      <point x="177" y="148"/>
      <point x="176" y="150" type="curve"/>
      <point x="168" y="157"/>
      <point x="160" y="164"/>
      <point x="155" y="172" type="curve" smooth="yes"/>
      <point x="152" y="177"/>
      <point x="150" y="184"/>
      <point x="147" y="189" type="curve"/>
      <point x="144" y="195"/>
      <point x="140" y="199"/>
      <point x="138" y="205" type="curve"/>
      <point x="134" y="225"/>
      <point x="130" y="244"/>
      <point x="131" y="270" type="curve"/>
      <point x="133" y="279"/>
      <point x="138" y="284"/>
      <point x="138" y="295" type="curve"/>
      <point x="143" y="302"/>
      <point x="147" y="310"/>
      <point x="149" y="320" type="curve"/>
      <point x="154" y="325"/>
      <point x="157" y="331"/>
      <point x="160" y="339" type="curve"/>
      <point x="166" y="342"/>
      <point x="168" y="349"/>
      <point x="174" y="352" type="curve"/>
      <point x="186" y="365"/>
      <point x="202" y="374"/>
      <point x="215" y="386" type="curve"/>
      <point x="228" y="389"/>
      <point x="236" y="398"/>
      <point x="246" y="404" type="curve"/>
      <point x="259" y="400"/>
      <point x="272" y="404"/>
      <point x="283" y="407" type="curve"/>
      <point x="306" y="408"/>
      <point x="327" y="406"/>
      <point x="346" y="402" type="curve"/>
      <point x="352" y="397"/>
      <point x="357" y="390"/>
      <point x="366" y="388" type="curve"/>
      <point x="370" y="380"/>
      <point x="378" y="376"/>
      <point x="387" y="374" type="curve"/>
      <point x="395" y="361"/>
      <point x="406" y="351"/>
      <point x="417" y="341" type="curve"/>
      <point x="417" y="332"/>
      <point x="422" y="328"/>
      <point x="425" y="322" type="curve"/>
      <point x="426" y="314"/>
      <point x="430" y="310"/>
      <point x="434" y="306" type="curve"/>
      <point x="433" y="291"/>
      <point x="439" y="284"/>
      <point x="442" y="274" type="curve"/>
      <point x="440" y="265"/>
      <point x="444" y="257"/>
      <point x="444" y="249" type="curve"/>
      <point x="443" y="238"/>
      <point x="439" y="228"/>
      <point x="439" y="216" type="curve"/>
      <point x="431" y="202"/>
      <point x="425" y="186"/>
      <point x="418" y="170" type="curve"/>
      <point x="407" y="156"/>
      <point x="395" y="143"/>
      <point x="382" y="131" type="curve"/>
      <point x="370" y="128"/>
      <point x="362" y="121"/>
      <point x="352" y="115" type="curve"/>
      <point x="342" y="114"/>
      <point x="335" y="111"/>
      <point x="327" y="109" type="curve"/>
      <point x="319" y="106"/>
      <point x="308" y="107"/>
      <point x="300" y="104" type="curve"/>
      <point x="296" y="107"/>
      <point x="289" y="106"/>
      <point x="284" y="109" type="curve"/>
      <point x="278" y="109"/>
      <point x="275" y="106"/>
      <point x="269" y="106" type="curve"/>
      <point x="262" y="109"/>
      <point x="251" y="108"/>
      <point x="243" y="110" type="curve"/>
    </contour>
  </outline>
</glyph>
<glyph name="one" format="1">
  <advance width="299"/>
  <unicode hex="0031"/>
  <outline>
    <contour>
      <point x="230" y="248" type="line" smooth="yes"/>
      <point x="230" y="298"/>
      <point x="229" y="347"/>
      <point x="230" y="393" type="curve"/>
      <point x="231" y="405"/>
      <point x="232" y="417"/>
      <point x="232" y="429" type="curve" smooth="yes"/>
      <point x="232" y="440"/>
      <point x="233" y="453"/>
      <point x="226" y="462" type="curve"/>
      <point x="216" y="468"/>
      <point x="204" y="464"/>
      <point x="196" y="464" type="curve"/>
      <point x="192" y="463"/>
      <point x="188" y="465"/>
      <point x="185" y="465" type="curve" smooth="yes"/>
      <point x="170" y="465"/>
      <point x="156" y="462"/>
      <point x="141" y="462" type="curve" smooth="yes"/>
      <point x="96" y="462" type="line" smooth="yes"/>
      <point x="81" y="462"/>
      <point x="66" y="464"/>
      <point x="52" y="459" type="curve"/>
      <point x="46" y="450"/>
      <point x="47" y="437"/>
      <point x="46" y="424" type="curve" smooth="yes"/>
      <point x="45" y="411"/>
      <point x="43" y="397"/>
      <point x="46" y="385" type="curve"/>
      <point x="50" y="382"/>
      <point x="53" y="379"/>
      <point x="55" y="375" type="curve"/>
      <point x="82" y="367"/>
      <point x="104" y="382"/>
      <point x="136" y="378" type="curve"/>
      <point x="147" y="370"/>
      <point x="143" y="346"/>
      <point x="150" y="333" type="curve"/>
      <point x="147" y="316"/>
      <point x="151" y="301"/>
      <point x="147" y="284" type="curve"/>
      <point x="150" y="260" type="line"/>
      <point x="145" y="238"/>
      <point x="148" y="214"/>
      <point x="152" y="191" type="curve"/>
      <point x="147" y="157"/>
      <point x="154" y="113"/>
      <point x="147" y="82" type="curve"/>
      <point x="154" y="60"/>
      <point x="145" y="36"/>
      <point x="147" y="16" type="curve"/>
      <point x="150" y="15"/>
      <point x="152" y="11"/>
      <point x="153" y="8" type="curve"/>
      <point x="165" y="0"/>
      <point x="183" y="4"/>
      <point x="199" y="5" type="curve"/>
      <point x="210" y="5"/>
      <point x="221" y="2"/>
      <point x="229" y="6" type="curve"/>
      <point x="234" y="14"/>
      <point x="240" y="20"/>
      <point x="238" y="35" type="curve"/>
      <point x="238" y="37"/>
      <point x="236" y="37"/>
      <point x="237" y="39" type="curve"/>
      <point x="236" y="49"/>
      <point x="233" y="59"/>
      <point x="232" y="69" type="curve"/>
      <point x="232" y="72"/>
      <point x="234" y="74"/>
      <point x="234" y="77" type="curve" smooth="yes"/>
      <point x="234" y="80"/>
      <point x="232" y="84"/>
      <point x="232" y="87" type="curve"/>
      <point x="231" y="110"/>
      <point x="234" y="135"/>
      <point x="229" y="155" type="curve"/>
      <point x="235" y="170"/>
      <point x="231" y="190"/>
      <point x="230" y="208" type="curve"/>
    </contour>
  </outline>
</glyph>
<glyph name="two" format="1">
  <advance width="523"/>
  <unicode hex="0032"/>
  <outline>
    <contour>
      <point x="432" y="336" type="line"/>
      <point x="428" y="345"/>
      <point x="424" y="353"/>
      <point x="423" y="366" type="curve"/>
      <point x="414" y="382"/>
      <point x="403" y="396"/>
      <point x="393" y="411" type="curve"/>
      <point x="384" y="421"/>
      <point x="373" y="429"/>
      <point x="365" y="440" type="curve"/>
      <point x="356" y="443"/>
      <point x="349" y="450"/>
      <point x="341" y="454" type="curve"/>
      <point x="316" y="468" type="line"/>
      <point x="296" y="469"/>
      <point x="285" y="478"/>
      <point x="267" y="481" type="curve"/>
      <point x="239" y="481" type="line"/>
      <point x="232" y="479"/>
      <point x="227" y="477"/>
      <point x="218" y="478" type="curve"/>
      <point x="211" y="475"/>
      <point x="206" y="470"/>
      <point x="194" y="471" type="curve"/>
      <point x="189" y="467"/>
      <point x="182" y="464"/>
      <point x="175" y="460" type="curve"/>
      <point x="155" y="456"/>
      <point x="144" y="444"/>
      <point x="128" y="435" type="curve"/>
      <point x="103" y="408" type="line"/>
      <point x="96" y="395"/>
      <point x="90" y="381"/>
      <point x="79" y="371" type="curve"/>
      <point x="78" y="361"/>
      <point x="75" y="355"/>
      <point x="71" y="348" type="curve"/>
      <point x="70" y="336"/>
      <point x="69" y="323"/>
      <point x="65" y="314" type="curve"/>
      <point x="67" y="303"/>
      <point x="63" y="294"/>
      <point x="62" y="284" type="curve"/>
      <point x="61" y="264"/>
      <point x="68" y="247"/>
      <point x="68" y="227" type="curve"/>
      <point x="74" y="221"/>
      <point x="75" y="209"/>
      <point x="79" y="202" type="curve"/>
      <point x="80" y="201"/>
      <point x="87" y="195"/>
      <point x="87" y="194" type="curve"/>
      <point x="88" y="192"/>
      <point x="134" y="203"/>
      <point x="141" y="207" type="curve"/>
      <point x="149" y="209"/>
      <point x="156" y="217"/>
      <point x="156" y="220" type="curve" smooth="yes"/>
      <point x="156" y="223"/>
      <point x="144" y="268"/>
      <point x="142" y="281" type="curve"/>
      <point x="142" y="288"/>
      <point x="146" y="297"/>
      <point x="142" y="306" type="curve"/>
      <point x="146" y="314"/>
      <point x="151" y="321"/>
      <point x="152" y="333" type="curve"/>
      <point x="158" y="339"/>
      <point x="164" y="346"/>
      <point x="168" y="355" type="curve"/>
      <point x="179" y="362"/>
      <point x="186" y="373"/>
      <point x="198" y="380" type="curve"/>
      <point x="207" y="384"/>
      <point x="217" y="390"/>
      <point x="227" y="391" type="curve"/>
      <point x="230" y="391"/>
      <point x="232" y="389"/>
      <point x="235" y="389" type="curve"/>
      <point x="251" y="390"/>
      <point x="265" y="392"/>
      <point x="278" y="388" type="curve" smooth="yes"/>
      <point x="289" y="385"/>
      <point x="299" y="376"/>
      <point x="309" y="375" type="curve"/>
      <point x="318" y="368"/>
      <point x="328" y="361"/>
      <point x="336" y="353" type="curve"/>
      <point x="339" y="342"/>
      <point x="347" y="336"/>
      <point x="350" y="326" type="curve"/>
      <point x="356" y="313"/>
      <point x="357" y="295"/>
      <point x="358" y="278" type="curve"/>
      <point x="354" y="265"/>
      <point x="354" y="258"/>
      <point x="346" y="241" type="curve" smooth="yes"/>
      <point x="338" y="224"/>
      <point x="298" y="180"/>
      <point x="298" y="180" type="curve" smooth="yes"/>
      <point x="298" y="180"/>
      <point x="281" y="164"/>
      <point x="270" y="159" type="curve"/>
      <point x="264" y="149"/>
      <point x="248" y="148"/>
      <point x="243" y="137" type="curve"/>
      <point x="223" y="125"/>
      <point x="208" y="107"/>
      <point x="185" y="98" type="curve"/>
      <point x="181" y="87"/>
      <point x="169" y="84"/>
      <point x="163" y="76" type="curve"/>
      <point x="153" y="71"/>
      <point x="143" y="64"/>
      <point x="136" y="60" type="curve"/>
      <point x="133" y="58"/>
      <point x="129" y="57"/>
      <point x="127" y="55" type="curve"/>
      <point x="115" y="48"/>
      <point x="106" y="38"/>
      <point x="94" y="32" type="curve"/>
      <point x="89" y="23"/>
      <point x="76" y="24"/>
      <point x="76" y="11" type="curve"/>
      <point x="84" y="2"/>
      <point x="97" y="7"/>
      <point x="109" y="8" type="curve"/>
      <point x="138" y="9"/>
      <point x="172" y="5"/>
      <point x="196" y="8" type="curve"/>
      <point x="202" y="9"/>
      <point x="202" y="4"/>
      <point x="209" y="5" type="curve"/>
      <point x="214" y="6"/>
      <point x="218" y="9"/>
      <point x="224" y="10" type="curve"/>
      <point x="235" y="8"/>
      <point x="251" y="6"/>
      <point x="262" y="6" type="curve"/>
      <point x="269" y="7"/>
      <point x="280" y="6"/>
      <point x="291" y="6" type="curve" smooth="yes"/>
      <point x="304" y="6"/>
      <point x="317" y="8"/>
      <point x="328" y="5" type="curve"/>
      <point x="337" y="8"/>
      <point x="353" y="4"/>
      <point x="360" y="10" type="curve"/>
      <point x="367" y="5"/>
      <point x="377" y="8"/>
      <point x="385" y="8" type="curve" smooth="yes"/>
      <point x="391" y="8"/>
      <point x="395" y="6"/>
      <point x="401" y="6" type="curve"/>
      <point x="415" y="7"/>
      <point x="430" y="10"/>
      <point x="445" y="11" type="curve" smooth="yes"/>
      <point x="459" y="12"/>
      <point x="483" y="16"/>
      <point x="483" y="16" type="curve" smooth="yes"/>
      <point x="483" y="16"/>
      <point x="484" y="78"/>
      <point x="472" y="95" type="curve"/>
      <point x="457" y="97"/>
      <point x="441" y="89"/>
      <point x="421" y="90" type="curve"/>
      <point x="409" y="88"/>
      <point x="387" y="88"/>
      <point x="368" y="88" type="curve"/>
      <point x="363" y="89"/>
      <point x="360" y="86"/>
      <point x="357" y="85" type="curve"/>
      <point x="341" y="90"/>
      <point x="323" y="88"/>
      <point x="305" y="87" type="curve"/>
      <point x="297" y="86"/>
      <point x="288" y="84"/>
      <point x="284" y="90" type="curve"/>
      <point x="288" y="96"/>
      <point x="291" y="102"/>
      <point x="300" y="103" type="curve"/>
      <point x="309" y="112"/>
      <point x="320" y="119"/>
      <point x="335" y="123" type="curve"/>
      <point x="341" y="131"/>
      <point x="349" y="138"/>
      <point x="357" y="145" type="curve"/>
      <point x="367" y="150"/>
      <point x="374" y="159"/>
      <point x="385" y="162" type="curve"/>
      <point x="389" y="167"/>
      <point x="393" y="172"/>
      <point x="396" y="177" type="curve"/>
      <point x="400" y="181"/>
      <point x="408" y="182"/>
      <point x="409" y="189" type="curve"/>
      <point x="416" y="200"/>
      <point x="419" y="215"/>
      <point x="428" y="224" type="curve"/>
      <point x="427" y="234"/>
      <point x="432" y="238"/>
      <point x="434" y="246" type="curve"/>
      <point x="433" y="257"/>
      <point x="435" y="283"/>
      <point x="434" y="290" type="curve"/>
    </contour>
  </outline>
</glyph>
<glyph name="three" format="1">
  <advance width="455"/>
  <unicode hex="0033"/>
  <outline>
    <contour>
      <point x="342" y="-148" type="line"/>
      <point x="352" y="-143"/>
      <point x="358" y="-133"/>
      <point x="372" y="-131" type="curve"/>
      <point x="375" y="-122"/>
      <point x="382" y="-116"/>
      <point x="387" y="-109" type="curve" smooth="yes"/>
      <point x="393" y="-101"/>
      <point x="397" y="-93"/>
      <point x="405" y="-88" type="curve"/>
      <point x="408" y="-78"/>
      <point x="413" y="-69"/>
      <point x="419" y="-61" type="curve"/>
      <point x="417" y="-48"/>
      <point x="426" y="-44"/>
      <point x="427" y="-33" type="curve"/>
      <point x="429" y="-22"/>
      <point x="429" y="-10"/>
      <point x="430" y="2" type="curve"/>
      <point x="428" y="10"/>
      <point x="423" y="19"/>
      <point x="422" y="30" type="curve"/>
      <point x="420" y="45"/>
      <point x="424" y="61"/>
      <point x="420" y="76" type="curve"/>
      <point x="412" y="93"/>
      <point x="405" y="113"/>
      <point x="392" y="126" type="curve" smooth="yes"/>
      <point x="389" y="129"/>
      <point x="390" y="134"/>
      <point x="384" y="134" type="curve"/>
      <point x="377" y="138"/>
      <point x="378" y="149"/>
      <point x="370" y="151" type="curve"/>
      <point x="364" y="158"/>
      <point x="353" y="159"/>
      <point x="345" y="164" type="curve"/>
      <point x="338" y="170"/>
      <point x="323" y="168"/>
      <point x="321" y="178" type="curve"/>
      <point x="327" y="186"/>
      <point x="338" y="188"/>
      <point x="348" y="191" type="curve"/>
      <point x="349" y="194"/>
      <point x="352" y="195"/>
      <point x="356" y="196" type="curve"/>
      <point x="369" y="207"/>
      <point x="381" y="220"/>
      <point x="392" y="233" type="curve"/>
      <point x="394" y="247"/>
      <point x="401" y="257"/>
      <point x="406" y="268" type="curve"/>
      <point x="409" y="285"/>
      <point x="407" y="297"/>
      <point x="409" y="314" type="curve"/>
      <point x="406" y="328"/>
      <point x="402" y="341"/>
      <point x="400" y="356" type="curve"/>
      <point x="391" y="373"/>
      <point x="383" y="391"/>
      <point x="375" y="408" type="curve"/>
      <point x="367" y="414"/>
      <point x="362" y="423"/>
      <point x="356" y="430" type="curve"/>
      <point x="350" y="436"/>
      <point x="341" y="439"/>
      <point x="337" y="446" type="curve"/>
      <point x="329" y="451"/>
      <point x="321" y="455"/>
      <point x="315" y="460" type="curve"/>
      <point x="302" y="464"/>
      <point x="288" y="467"/>
      <point x="279" y="475" type="curve"/>
      <point x="264" y="475"/>
      <point x="252" y="478"/>
      <point x="239" y="479" type="curve"/>
      <point x="225" y="477"/>
      <point x="210" y="474"/>
      <point x="192" y="475" type="curve"/>
      <point x="177" y="471"/>
      <point x="165" y="466"/>
      <point x="152" y="460" type="curve"/>
      <point x="143" y="452"/>
      <point x="134" y="443"/>
      <point x="119" y="440" type="curve"/>
      <point x="113" y="432"/>
      <point x="106" y="425"/>
      <point x="97" y="419" type="curve"/>
      <point x="92" y="410"/>
      <point x="87" y="401"/>
      <point x="80" y="393" type="curve"/>
      <point x="77" y="379"/>
      <point x="74" y="366"/>
      <point x="67" y="356" type="curve"/>
      <point x="66" y="339"/>
      <point x="62" y="325"/>
      <point x="59" y="309" type="curve"/>
      <point x="59" y="294"/>
      <point x="59" y="280"/>
      <point x="64" y="271" type="curve"/>
      <point x="69" y="267"/>
      <point x="77" y="266"/>
      <point x="82" y="262" type="curve"/>
      <point x="105" y="267"/>
      <point x="137" y="254"/>
      <point x="146" y="273" type="curve"/>
      <point x="146" y="289"/>
      <point x="140" y="298"/>
      <point x="140" y="314" type="curve"/>
      <point x="149" y="341"/>
      <point x="162" y="363"/>
      <point x="181" y="380" type="curve"/>
      <point x="192" y="387"/>
      <point x="205" y="392"/>
      <point x="220" y="396" type="curve"/>
      <point x="240" y="397"/>
      <point x="257" y="395"/>
      <point x="271" y="391" type="curve"/>
      <point x="302" y="371" type="line"/>
      <point x="312" y="353"/>
      <point x="327" y="340"/>
      <point x="331" y="315" type="curve"/>
      <point x="327" y="284" type="line"/>
      <point x="321" y="266"/>
      <point x="309" y="254"/>
      <point x="301" y="238" type="curve"/>
      <point x="292" y="236"/>
      <point x="289" y="228"/>
      <point x="282" y="225" type="curve"/>
      <point x="274" y="222"/>
      <point x="265" y="221"/>
      <point x="256" y="218" type="curve"/>
      <point x="243" y="219"/>
      <point x="234" y="216"/>
      <point x="227" y="211" type="curve"/>
      <point x="223" y="187"/>
      <point x="225" y="155"/>
      <point x="227" y="134" type="curve"/>
      <point x="232" y="129"/>
      <point x="240" y="127"/>
      <point x="252" y="128" type="curve"/>
      <point x="260" y="125"/>
      <point x="270" y="124"/>
      <point x="280" y="123" type="curve"/>
      <point x="280" y="121"/>
      <point x="283" y="121"/>
      <point x="285" y="121" type="curve"/>
      <point x="303" y="110"/>
      <point x="321" y="98"/>
      <point x="332" y="80" type="curve"/>
      <point x="338" y="62"/>
      <point x="351" y="50"/>
      <point x="351" y="25" type="curve"/>
      <point x="352" y="16"/>
      <point x="349" y="7"/>
      <point x="348" y="-1" type="curve"/>
      <point x="343" y="-27" type="line"/>
      <point x="338" y="-42"/>
      <point x="326" y="-48"/>
      <point x="320" y="-60" type="curve"/>
      <point x="308" y="-62"/>
      <point x="305" y="-72"/>
      <point x="296" y="-76" type="curve" smooth="yes"/>
      <point x="274" y="-85"/>
      <point x="249" y="-91"/>
      <point x="219" y="-93" type="curve"/>
      <point x="201" y="-87"/>
      <point x="186" y="-79"/>
      <point x="168" y="-74" type="curve"/>
      <point x="161" y="-67"/>
      <point x="153" y="-60"/>
      <point x="145" y="-54" type="curve"/>
      <point x="140" y="-41"/>
      <point x="131" y="-34"/>
      <point x="126" y="-22" type="curve"/>
      <point x="125" y="-11"/>
      <point x="121" y="-3"/>
      <point x="119" y="8" type="curve"/>
      <point x="119" y="20"/>
      <point x="124" y="34"/>
      <point x="119" y="44" type="curve"/>
      <point x="112" y="54"/>
      <point x="92" y="50"/>
      <point x="75" y="51" type="curve"/>
      <point x="65" y="51"/>
      <point x="54" y="53"/>
      <point x="48" y="49" type="curve"/>
      <point x="39" y="34"/>
      <point x="42" y="14"/>
      <point x="39" y="-5" type="curve"/>
      <point x="39" y="-10"/>
      <point x="41" y="-14"/>
      <point x="41" y="-20" type="curve"/>
      <point x="46" y="-31"/>
      <point x="49" y="-44"/>
      <point x="52" y="-58" type="curve"/>
      <point x="63" y="-69"/>
      <point x="67" y="-87"/>
      <point x="77" y="-99" type="curve"/>
      <point x="86" y="-112"/>
      <point x="99" y="-121"/>
      <point x="107" y="-135" type="curve"/>
      <point x="120" y="-139"/>
      <point x="127" y="-147"/>
      <point x="135" y="-156" type="curve"/>
      <point x="144" y="-158"/>
      <point x="155" y="-163"/>
      <point x="160" y="-167" type="curve" smooth="yes"/>
      <point x="164" y="-170"/>
      <point x="167" y="-170"/>
      <point x="171" y="-172" type="curve"/>
      <point x="181" y="-176"/>
      <point x="195" y="-181"/>
      <point x="211" y="-176" type="curve"/>
      <point x="215" y="-179"/>
      <point x="218" y="-182"/>
      <point x="225" y="-181" type="curve"/>
      <point x="232" y="-181"/>
      <point x="233" y="-175"/>
      <point x="241" y="-176" type="curve"/>
      <point x="257" y="-180"/>
      <point x="267" y="-172"/>
      <point x="283" y="-176" type="curve"/>
      <point x="293" y="-173"/>
      <point x="302" y="-169"/>
      <point x="313" y="-167" type="curve"/>
    </contour>
  </outline>
</glyph>
<glyph name="four" format="1">
  <advance width="546"/>
  <unicode hex="0034"/>
  <outline>
    <contour>
      <point x="409" y="412" type="line"/>
      <point x="413" y="423"/>
      <point x="412" y="440"/>
      <point x="416" y="451" type="curve"/>
      <point x="416" y="466"/>
      <point x="417" y="482"/>
      <point x="405" y="486" type="curve"/>
      <point x="384" y="484"/>
      <point x="385" y="462"/>
      <point x="372" y="454" type="curve"/>
      <point x="371" y="444"/>
      <point x="363" y="442"/>
      <point x="359" y="435" type="curve"/>
      <point x="356" y="427"/>
      <point x="349" y="423"/>
      <point x="348" y="413" type="curve"/>
      <point x="345" y="410"/>
      <point x="341" y="409"/>
      <point x="338" y="407" type="curve"/>
      <point x="336" y="404"/>
      <point x="335" y="400"/>
      <point x="332" y="397" type="curve"/>
      <point x="327" y="391"/>
      <point x="321" y="387"/>
      <point x="316" y="380" type="curve" smooth="yes"/>
      <point x="310" y="371" type="line"/>
      <point x="302" y="361"/>
      <point x="293" y="354"/>
      <point x="286" y="344" type="curve"/>
      <point x="281" y="333"/>
      <point x="271" y="326"/>
      <point x="266" y="315" type="curve"/>
      <point x="257" y="308"/>
      <point x="251" y="297"/>
      <point x="242" y="289" type="curve"/>
      <point x="237" y="288"/>
      <point x="240" y="280"/>
      <point x="236" y="279" type="curve"/>
      <point x="234" y="275"/>
      <point x="230" y="274"/>
      <point x="230" y="268" type="curve"/>
      <point x="218" y="260"/>
      <point x="210" y="250"/>
      <point x="203" y="238" type="curve"/>
      <point x="193" y="229"/>
      <point x="187" y="216"/>
      <point x="176" y="208" type="curve"/>
      <point x="173" y="202"/>
      <point x="167" y="198"/>
      <point x="163" y="192" type="curve"/>
      <point x="158" y="188"/>
      <point x="157" y="179"/>
      <point x="151" y="177" type="curve"/>
      <point x="145" y="164"/>
      <point x="137" y="153"/>
      <point x="127" y="144" type="curve"/>
      <point x="113" y="120"/>
      <point x="93" y="102"/>
      <point x="77" y="80" type="curve"/>
      <point x="67" y="71"/>
      <point x="59" y="60"/>
      <point x="52" y="49" type="curve"/>
      <point x="45" y="36"/>
      <point x="29" y="32"/>
      <point x="28" y="14" type="curve"/>
      <point x="37" y="0"/>
      <point x="53" y="4"/>
      <point x="70" y="3" type="curve"/>
      <point x="76" y="3"/>
      <point x="82" y="2"/>
      <point x="88" y="2" type="curve" smooth="yes"/>
      <point x="94" y="2"/>
      <point x="101" y="5"/>
      <point x="108" y="5" type="curve" smooth="yes"/>
      <point x="118" y="5"/>
      <point x="130" y="2"/>
      <point x="140" y="2" type="curve" smooth="yes"/>
      <point x="158" y="2"/>
      <point x="176" y="4"/>
      <point x="193" y="3" type="curve"/>
      <point x="204" y="3"/>
      <point x="213" y="2"/>
      <point x="222" y="3" type="curve" smooth="yes"/>
      <point x="231" y="4"/>
      <point x="243" y="4"/>
      <point x="253" y="3" type="curve"/>
      <point x="268" y="9"/>
      <point x="287" y="8"/>
      <point x="305" y="6" type="curve" smooth="yes"/>
      <point x="313" y="5"/>
      <point x="324" y="6"/>
      <point x="329" y="2" type="curve"/>
      <point x="333" y="-10"/>
      <point x="329" y="-25"/>
      <point x="326" y="-35" type="curve"/>
      <point x="332" y="-52"/>
      <point x="329" y="-70"/>
      <point x="329" y="-87" type="curve" smooth="yes"/>
      <point x="329" y="-104"/>
      <point x="334" y="-121"/>
      <point x="331" y="-139" type="curve"/>
      <point x="327" y="-147"/>
      <point x="326" y="-157"/>
      <point x="324" y="-167" type="curve"/>
      <point x="327" y="-173"/>
      <point x="330" y="-179"/>
      <point x="334" y="-184" type="curve"/>
      <point x="340" y="-189"/>
      <point x="350" y="-190"/>
      <point x="357" y="-192" type="curve"/>
      <point x="364" y="-191"/>
      <point x="371" y="-188"/>
      <point x="379" y="-188" type="curve"/>
      <point x="394" y="-186"/>
      <point x="409" y="-190"/>
      <point x="419" y="-184" type="curve"/>
      <point x="422" y="-168"/>
      <point x="417" y="-152"/>
      <point x="416" y="-135" type="curve" smooth="yes"/>
      <point x="415" y="-121"/>
      <point x="416" y="-101"/>
      <point x="416" y="-90" type="curve" smooth="yes"/>
      <point x="416" y="-87"/>
      <point x="414" y="-83"/>
      <point x="414" y="-80" type="curve" smooth="yes"/>
      <point x="414" y="-63" type="line"/>
      <point x="413" y="-37"/>
      <point x="407" y="-10"/>
      <point x="419" y="10" type="curve"/>
      <point x="437" y="10"/>
      <point x="456" y="10"/>
      <point x="471" y="6" type="curve"/>
      <point x="479" y="9"/>
      <point x="487" y="7"/>
      <point x="496" y="6" type="curve" smooth="yes"/>
      <point x="507" y="5"/>
      <point x="510" y="11"/>
      <point x="518" y="13" type="curve"/>
      <point x="521" y="18"/>
      <point x="523" y="25"/>
      <point x="523" y="32" type="curve" smooth="yes"/>
      <point x="523" y="33"/>
      <point x="522" y="34"/>
      <point x="521" y="36" type="curve"/>
      <point x="518" y="54"/>
      <point x="523" y="77"/>
      <point x="515" y="90" type="curve"/>
      <point x="484" y="96"/>
      <point x="449" y="86"/>
      <point x="416" y="93" type="curve"/>
      <point x="410" y="122"/>
      <point x="413" y="151"/>
      <point x="409" y="180" type="curve"/>
      <point x="411" y="184"/>
      <point x="412" y="189"/>
      <point x="413" y="194" type="curve"/>
      <point x="409" y="263"/>
      <point x="410" y="325"/>
      <point x="413" y="396" type="curve"/>
    </contour>
    <contour>
      <point x="242" y="167" type="line"/>
      <point x="245" y="173"/>
      <point x="252" y="182"/>
      <point x="258" y="188" type="curve" smooth="yes"/>
      <point x="269" y="199"/>
      <point x="275" y="215"/>
      <point x="290" y="222" type="curve"/>
      <point x="291" y="231"/>
      <point x="298" y="236"/>
      <point x="304" y="241" type="curve"/>
      <point x="305" y="254"/>
      <point x="315" y="264"/>
      <point x="326" y="262" type="curve"/>
      <point x="328" y="222"/>
      <point x="333" y="182"/>
      <point x="326" y="145" type="curve"/>
      <point x="329" y="131"/>
      <point x="332" y="108"/>
      <point x="324" y="96" type="curve"/>
      <point x="313" y="90"/>
      <point x="292" y="90"/>
      <point x="277" y="93" type="curve"/>
      <point x="260" y="89"/>
      <point x="242" y="88"/>
      <point x="225" y="93" type="curve"/>
      <point x="210" y="95"/>
      <point x="197" y="89"/>
      <point x="184" y="93" type="curve"/>
      <point x="186" y="110"/>
      <point x="201" y="114"/>
      <point x="206" y="129" type="curve"/>
      <point x="211" y="129"/>
      <point x="211" y="133"/>
      <point x="215" y="134" type="curve"/>
      <point x="219" y="144"/>
      <point x="225" y="150"/>
      <point x="231" y="158" type="curve"/>
      <point x="234" y="161"/>
      <point x="236" y="162"/>
      <point x="239" y="166" type="curve"/>
    </contour>
  </outline>
</glyph>
<glyph name="five" format="1">
  <advance width="475"/>
  <unicode hex="0035"/>
  <outline>
    <contour>
      <point x="317" y="-169" type="line"/>
      <point x="322" y="-163"/>
      <point x="330" y="-159"/>
      <point x="337" y="-154" type="curve"/>
      <point x="346" y="-151"/>
      <point x="350" y="-144"/>
      <point x="359" y="-142" type="curve"/>
      <point x="364" y="-135"/>
      <point x="370" y="-130"/>
      <point x="377" y="-124" type="curve"/>
      <point x="381" y="-123"/>
      <point x="383" y="-119"/>
      <point x="385" y="-115" type="curve"/>
      <point x="388" y="-112"/>
      <point x="394" y="-112"/>
      <point x="394" y="-106" type="curve"/>
      <point x="399" y="-102"/>
      <point x="399" y="-93"/>
      <point x="403" y="-90" type="curve"/>
      <point x="407" y="-85"/>
      <point x="410" y="-80"/>
      <point x="411" y="-72" type="curve"/>
      <point x="416" y="-68"/>
      <point x="422" y="-65"/>
      <point x="426" y="-60" type="curve"/>
      <point x="425" y="-53"/>
      <point x="430" y="-52"/>
      <point x="433" y="-49" type="curve"/>
      <point x="431" y="-37"/>
      <point x="437" y="-34"/>
      <point x="438" y="-25" type="curve"/>
      <point x="438" y="-10"/>
      <point x="437" y="6"/>
      <point x="440" y="19" type="curve"/>
      <point x="437" y="30"/>
      <point x="437" y="43"/>
      <point x="437" y="57" type="curve"/>
      <point x="432" y="68"/>
      <point x="429" y="80"/>
      <point x="429" y="95" type="curve"/>
      <point x="421" y="114"/>
      <point x="411" y="131"/>
      <point x="403" y="150" type="curve"/>
      <point x="395" y="159"/>
      <point x="388" y="169"/>
      <point x="381" y="180" type="curve"/>
      <point x="361" y="201"/>
      <point x="336" y="216"/>
      <point x="310" y="232" type="curve"/>
      <point x="299" y="233"/>
      <point x="288" y="236"/>
      <point x="281" y="241" type="curve"/>
      <point x="261" y="243"/>
      <point x="248" y="245"/>
      <point x="227" y="243" type="curve"/>
      <point x="219" y="240"/>
      <point x="210" y="238"/>
      <point x="200" y="237" type="curve"/>
      <point x="195" y="233"/>
      <point x="179" y="229"/>
      <point x="173" y="235" type="curve"/>
      <point x="175" y="250"/>
      <point x="181" y="259"/>
      <point x="183" y="273" type="curve"/>
      <point x="189" y="299"/>
      <point x="197" y="322"/>
      <point x="203" y="348" type="curve"/>
      <point x="208" y="360"/>
      <point x="209" y="376"/>
      <point x="216" y="385" type="curve"/>
      <point x="245" y="388"/>
      <point x="278" y="382"/>
      <point x="307" y="386" type="curve"/>
      <point x="312" y="386"/>
      <point x="317" y="385"/>
      <point x="320" y="383" type="curve"/>
      <point x="355" y="387"/>
      <point x="386" y="384"/>
      <point x="419" y="386" type="curve"/>
      <point x="427" y="393"/>
      <point x="425" y="404"/>
      <point x="426" y="415" type="curve"/>
      <point x="427" y="436"/>
      <point x="428" y="456"/>
      <point x="421" y="468" type="curve"/>
      <point x="402" y="477"/>
      <point x="378" y="470"/>
      <point x="355" y="470" type="curve" smooth="yes"/>
      <point x="348" y="470"/>
      <point x="342" y="471"/>
      <point x="336" y="471" type="curve" smooth="yes"/>
      <point x="320" y="471"/>
      <point x="303" y="470"/>
      <point x="287" y="470" type="curve" smooth="yes"/>
      <point x="247" y="470"/>
      <point x="202" y="473"/>
      <point x="165" y="470" type="curve"/>
      <point x="158" y="469"/>
      <point x="151" y="470"/>
      <point x="145" y="467" type="curve"/>
      <point x="144" y="455"/>
      <point x="139" y="445"/>
      <point x="136" y="434" type="curve"/>
      <point x="132" y="422"/>
      <point x="130" y="409"/>
      <point x="128" y="397" type="curve"/>
      <point x="123" y="373"/>
      <point x="118" y="350"/>
      <point x="109" y="330" type="curve"/>
      <point x="107" y="307"/>
      <point x="103" y="287"/>
      <point x="95" y="271" type="curve"/>
      <point x="95" y="250"/>
      <point x="83" y="243"/>
      <point x="85" y="221" type="curve"/>
      <point x="77" y="208"/>
      <point x="78" y="187"/>
      <point x="71" y="173" type="curve"/>
      <point x="70" y="170"/>
      <point x="69" y="165"/>
      <point x="69" y="159" type="curve"/>
      <point x="65" y="151"/>
      <point x="62" y="141"/>
      <point x="60" y="131" type="curve"/>
      <point x="57" y="121"/>
      <point x="52" y="110"/>
      <point x="55" y="99" type="curve"/>
      <point x="64" y="95"/>
      <point x="72" y="102"/>
      <point x="80" y="104" type="curve"/>
      <point x="87" y="108"/>
      <point x="90" y="117"/>
      <point x="99" y="118" type="curve"/>
      <point x="103" y="125"/>
      <point x="111" y="129"/>
      <point x="118" y="132" type="curve"/>
      <point x="123" y="139"/>
      <point x="133" y="141"/>
      <point x="139" y="147" type="curve"/>
      <point x="153" y="144"/>
      <point x="153" y="155"/>
      <point x="165" y="155" type="curve"/>
      <point x="172" y="159"/>
      <point x="184" y="160"/>
      <point x="192" y="162" type="curve"/>
      <point x="211" y="163"/>
      <point x="222" y="164"/>
      <point x="240" y="162" type="curve"/>
      <point x="252" y="159"/>
      <point x="264" y="155"/>
      <point x="277" y="151" type="curve"/>
      <point x="292" y="143"/>
      <point x="305" y="133"/>
      <point x="318" y="123" type="curve"/>
      <point x="325" y="114"/>
      <point x="333" y="106"/>
      <point x="339" y="96" type="curve"/>
      <point x="343" y="83"/>
      <point x="352" y="73"/>
      <point x="356" y="60" type="curve"/>
      <point x="358" y="48"/>
      <point x="360" y="35"/>
      <point x="358" y="24" type="curve"/>
      <point x="356" y="17"/>
      <point x="353" y="14"/>
      <point x="351" y="10" type="curve"/>
      <point x="350" y="3"/>
      <point x="350" y="-4"/>
      <point x="348" y="-9" type="curve"/>
      <point x="348" y="-10"/>
      <point x="346" y="-13"/>
      <point x="345" y="-14" type="curve"/>
      <point x="342" y="-21"/>
      <point x="341" y="-23"/>
      <point x="337" y="-28" type="curve" smooth="yes"/>
      <point x="330" y="-37"/>
      <point x="323" y="-46"/>
      <point x="318" y="-55" type="curve"/>
      <point x="309" y="-57"/>
      <point x="303" y="-65"/>
      <point x="296" y="-69" type="curve"/>
      <point x="289" y="-75"/>
      <point x="280" y="-78"/>
      <point x="271" y="-82" type="curve"/>
      <point x="257" y="-87"/>
      <point x="239" y="-88"/>
      <point x="225" y="-93" type="curve"/>
      <point x="219" y="-92"/>
      <point x="210" y="-86"/>
      <point x="203" y="-90" type="curve"/>
      <point x="195" y="-88"/>
      <point x="189" y="-85"/>
      <point x="178" y="-87" type="curve"/>
      <point x="168" y="-79"/>
      <point x="156" y="-73"/>
      <point x="143" y="-68" type="curve"/>
      <point x="127" y="-53"/>
      <point x="117" y="-34"/>
      <point x="106" y="-14" type="curve"/>
      <point x="101" y="-4"/>
      <point x="103" y="13"/>
      <point x="91" y="16" type="curve" smooth="yes"/>
      <point x="84" y="18"/>
      <point x="71" y="13"/>
      <point x="63" y="10" type="curve"/>
      <point x="55" y="5"/>
      <point x="43" y="4"/>
      <point x="35" y="0" type="curve"/>
      <point x="29" y="-7"/>
      <point x="25" y="-14"/>
      <point x="22" y="-24" type="curve"/>
      <point x="20" y="-36"/>
      <point x="25" y="-41"/>
      <point x="25" y="-52" type="curve"/>
      <point x="32" y="-59"/>
      <point x="37" y="-68"/>
      <point x="38" y="-80" type="curve"/>
      <point x="47" y="-91"/>
      <point x="57" y="-100"/>
      <point x="66" y="-110" type="curve"/>
      <point x="74" y="-122"/>
      <point x="87" y="-129"/>
      <point x="95" y="-142" type="curve"/>
      <point x="118" y="-152"/>
      <point x="137" y="-167"/>
      <point x="158" y="-180" type="curve"/>
      <point x="190" y="-186"/>
      <point x="228" y="-189"/>
      <point x="260" y="-183" type="curve"/>
      <point x="267" y="-184"/>
      <point x="273" y="-186"/>
      <point x="281" y="-186" type="curve"/>
      <point x="288" y="-182"/>
      <point x="293" y="-175"/>
      <point x="301" y="-172" type="curve"/>
    </contour>
  </outline>
</glyph>
<glyph name="six" format="1">
  <advance width="511"/>
  <unicode hex="0036"/>
  <outline>
    <contour>
      <point x="239" y="593" type="line"/>
      <point x="237" y="591"/>
      <point x="238" y="588"/>
      <point x="237" y="586" type="curve"/>
      <point x="230" y="576"/>
      <point x="219" y="568"/>
      <point x="217" y="555" type="curve"/>
      <point x="196" y="536"/>
      <point x="179" y="511"/>
      <point x="166" y="484" type="curve"/>
      <point x="157" y="478"/>
      <point x="153" y="468"/>
      <point x="144" y="462" type="curve"/>
      <point x="137" y="442"/>
      <point x="120" y="432"/>
      <point x="111" y="413" type="curve"/>
      <point x="101" y="402"/>
      <point x="93" y="388"/>
      <point x="84" y="378" type="curve"/>
      <point x="81" y="375"/>
      <point x="76" y="372"/>
      <point x="73" y="367" type="curve"/>
      <point x="70" y="363"/>
      <point x="70" y="356"/>
      <point x="67" y="352" type="curve"/>
      <point x="64" y="347"/>
      <point x="58" y="345"/>
      <point x="57" y="339" type="curve"/>
      <point x="52" y="325"/>
      <point x="43" y="314"/>
      <point x="38" y="298" type="curve"/>
      <point x="36" y="290"/>
      <point x="35" y="281"/>
      <point x="34" y="273" type="curve"/>
      <point x="32" y="264"/>
      <point x="29" y="255"/>
      <point x="31" y="246" type="curve"/>
      <point x="28" y="239"/>
      <point x="25" y="234"/>
      <point x="24" y="225" type="curve"/>
      <point x="26" y="215"/>
      <point x="29" y="205"/>
      <point x="27" y="191" type="curve"/>
      <point x="31" y="176"/>
      <point x="36" y="161"/>
      <point x="37" y="144" type="curve"/>
      <point x="42" y="134"/>
      <point x="50" y="128"/>
      <point x="51" y="114" type="curve"/>
      <point x="59" y="106"/>
      <point x="65" y="97"/>
      <point x="72" y="88" type="curve"/>
      <point x="78" y="79"/>
      <point x="86" y="73"/>
      <point x="90" y="62" type="curve"/>
      <point x="99" y="58"/>
      <point x="103" y="51"/>
      <point x="111" y="47" type="curve"/>
      <point x="116" y="40"/>
      <point x="122" y="34"/>
      <point x="130" y="30" type="curve"/>
      <point x="138" y="25"/>
      <point x="147" y="23"/>
      <point x="155" y="19" type="curve"/>
      <point x="158" y="18"/>
      <point x="160" y="15"/>
      <point x="163" y="14" type="curve"/>
      <point x="168" y="13"/>
      <point x="174" y="13"/>
      <point x="179" y="11" type="curve"/>
      <point x="193" y="7"/>
      <point x="208" y="0"/>
      <point x="226" y="2" type="curve"/>
      <point x="233" y="-4"/>
      <point x="247" y="-3"/>
      <point x="258" y="-5" type="curve"/>
      <point x="265" y="-4"/>
      <point x="271" y="0"/>
      <point x="278" y="2" type="curve"/>
      <point x="293" y="0"/>
      <point x="299" y="5"/>
      <point x="313" y="5" type="curve"/>
      <point x="321" y="10"/>
      <point x="332" y="12"/>
      <point x="344" y="13" type="curve"/>
      <point x="359" y="23"/>
      <point x="374" y="34"/>
      <point x="395" y="39" type="curve"/>
      <point x="397" y="49"/>
      <point x="407" y="51"/>
      <point x="410" y="60" type="curve"/>
      <point x="416" y="67"/>
      <point x="422" y="73"/>
      <point x="429" y="79" type="curve"/>
      <point x="432" y="90"/>
      <point x="444" y="98"/>
      <point x="448" y="106" type="curve"/>
      <point x="451" y="110"/>
      <point x="452" y="115"/>
      <point x="455" y="118" type="curve"/>
      <point x="459" y="123" type="line"/>
      <point x="460" y="134"/>
      <point x="466" y="139"/>
      <point x="467" y="150" type="curve"/>
      <point x="472" y="157"/>
      <point x="474" y="167"/>
      <point x="478" y="175" type="curve"/>
      <point x="480" y="182"/>
      <point x="480" y="192"/>
      <point x="483" y="197" type="curve"/>
      <point x="479" y="206"/>
      <point x="483" y="216"/>
      <point x="481" y="230" type="curve"/>
      <point x="478" y="240"/>
      <point x="477" y="251"/>
      <point x="473" y="260" type="curve"/>
      <point x="473" y="279"/>
      <point x="470" y="296"/>
      <point x="464" y="309" type="curve"/>
      <point x="460" y="325"/>
      <point x="450" y="335"/>
      <point x="445" y="350" type="curve"/>
      <point x="439" y="357"/>
      <point x="433" y="363"/>
      <point x="428" y="371" type="curve"/>
      <point x="427" y="376"/>
      <point x="421" y="376"/>
      <point x="418" y="380" type="curve"/>
      <point x="418" y="386"/>
      <point x="412" y="386"/>
      <point x="409" y="389" type="curve"/>
      <point x="398" y="404"/>
      <point x="381" y="412"/>
      <point x="368" y="424" type="curve"/>
      <point x="354" y="428"/>
      <point x="342" y="433"/>
      <point x="328" y="437" type="curve"/>
      <point x="305" y="439"/>
      <point x="287" y="437"/>
      <point x="261" y="437" type="curve"/>
      <point x="252" y="436"/>
      <point x="240" y="429"/>
      <point x="231" y="434" type="curve"/>
      <point x="232" y="444"/>
      <point x="242" y="444"/>
      <point x="243" y="454" type="curve"/>
      <point x="250" y="458"/>
      <point x="254" y="466"/>
      <point x="261" y="470" type="curve"/>
      <point x="267" y="486"/>
      <point x="281" y="494"/>
      <point x="289" y="508" type="curve"/>
      <point x="301" y="518"/>
      <point x="308" y="533"/>
      <point x="319" y="544" type="curve"/>
      <point x="320" y="554"/>
      <point x="331" y="554"/>
      <point x="332" y="564" type="curve"/>
      <point x="337" y="570"/>
      <point x="342" y="577"/>
      <point x="349" y="582" type="curve"/>
      <point x="351" y="588"/>
      <point x="356" y="592"/>
      <point x="357" y="599" type="curve"/>
      <point x="369" y="609"/>
      <point x="377" y="623"/>
      <point x="390" y="632" type="curve"/>
      <point x="393" y="644"/>
      <point x="401" y="650"/>
      <point x="403" y="664" type="curve"/>
      <point x="401" y="670"/>
      <point x="396" y="673"/>
      <point x="393" y="678" type="curve"/>
      <point x="387" y="680"/>
      <point x="388" y="688"/>
      <point x="384" y="692" type="curve"/>
      <point x="361" y="695"/>
      <point x="354" y="712"/>
      <point x="328" y="713" type="curve"/>
      <point x="314" y="705"/>
      <point x="311" y="686"/>
      <point x="300" y="675" type="curve"/>
      <point x="295" y="669"/>
      <point x="291" y="661"/>
      <point x="287" y="654" type="curve"/>
      <point x="280" y="650"/>
      <point x="278" y="640"/>
      <point x="272" y="635" type="curve"/>
      <point x="263" y="622"/>
      <point x="253" y="609"/>
      <point x="243" y="596" type="curve"/>
    </contour>
    <contour>
      <point x="388" y="266" type="line"/>
      <point x="392" y="260"/>
      <point x="396" y="257"/>
      <point x="395" y="246" type="curve"/>
      <point x="398" y="239"/>
      <point x="395" y="226"/>
      <point x="396" y="216" type="curve"/>
      <point x="393" y="201"/>
      <point x="388" y="186"/>
      <point x="384" y="172" type="curve"/>
      <point x="375" y="160"/>
      <point x="366" y="148"/>
      <point x="358" y="136" type="curve"/>
      <point x="346" y="123"/>
      <point x="331" y="113"/>
      <point x="316" y="104" type="curve"/>
      <point x="303" y="102"/>
      <point x="292" y="98"/>
      <point x="281" y="93" type="curve"/>
      <point x="259" y="92"/>
      <point x="239" y="91"/>
      <point x="218" y="95" type="curve"/>
      <point x="206" y="99"/>
      <point x="194" y="104"/>
      <point x="182" y="109" type="curve"/>
      <point x="176" y="114"/>
      <point x="170" y="120"/>
      <point x="161" y="123" type="curve"/>
      <point x="155" y="131"/>
      <point x="147" y="138"/>
      <point x="139" y="147" type="curve"/>
      <point x="136" y="150"/>
      <point x="133" y="155"/>
      <point x="130" y="159" type="curve"/>
      <point x="126" y="165"/>
      <point x="121" y="169"/>
      <point x="119" y="177" type="curve" smooth="yes"/>
      <point x="117" y="184"/>
      <point x="117" y="193"/>
      <point x="116" y="203" type="curve"/>
      <point x="115" y="208"/>
      <point x="113" y="212"/>
      <point x="112" y="216" type="curve"/>
      <point x="110" y="232"/>
      <point x="113" y="247"/>
      <point x="117" y="263" type="curve"/>
      <point x="127" y="283"/>
      <point x="136" y="302"/>
      <point x="149" y="318" type="curve"/>
      <point x="155" y="324"/>
      <point x="163" y="329"/>
      <point x="168" y="336" type="curve"/>
      <point x="177" y="339"/>
      <point x="183" y="345"/>
      <point x="190" y="350" type="curve"/>
      <point x="199" y="353"/>
      <point x="208" y="356"/>
      <point x="215" y="361" type="curve"/>
      <point x="227" y="359"/>
      <point x="236" y="360"/>
      <point x="245" y="364" type="curve"/>
      <point x="256" y="361"/>
      <point x="265" y="365"/>
      <point x="278" y="364" type="curve"/>
      <point x="278" y="362"/>
      <point x="282" y="363"/>
      <point x="284" y="363" type="curve"/>
      <point x="300" y="358"/>
      <point x="308" y="346"/>
      <point x="327" y="345" type="curve"/>
      <point x="342" y="334"/>
      <point x="355" y="320"/>
      <point x="366" y="304" type="curve"/>
      <point x="372" y="298"/>
      <point x="377" y="290"/>
      <point x="382" y="281" type="curve"/>
    </contour>
  </outline>
</glyph>
<glyph name="seven" format="1">
  <advance width="610"/>
  <unicode hex="0037"/>
  <outline>
    <contour>
      <point x="286" y="227" type="line" smooth="yes"/>
      <point x="284" y="224"/>
      <point x="281" y="223"/>
      <point x="279" y="221" type="curve"/>
      <point x="270" y="207" type="line"/>
      <point x="267" y="203"/>
      <point x="262" y="200"/>
      <point x="260" y="197" type="curve"/>
      <point x="259" y="196"/>
      <point x="260" y="194"/>
      <point x="259" y="192" type="curve"/>
      <point x="255" y="188"/>
      <point x="250" y="186"/>
      <point x="246" y="181" type="curve"/>
      <point x="240" y="169" type="line"/>
      <point x="237" y="164"/>
      <point x="233" y="163"/>
      <point x="230" y="159" type="curve"/>
      <point x="224" y="152"/>
      <point x="221" y="143"/>
      <point x="213" y="139" type="curve"/>
      <point x="208" y="122"/>
      <point x="195" y="113"/>
      <point x="186" y="99" type="curve"/>
      <point x="176" y="88"/>
      <point x="168" y="73"/>
      <point x="156" y="63" type="curve"/>
      <point x="148" y="50"/>
      <point x="139" y="36"/>
      <point x="126" y="27" type="curve"/>
      <point x="121" y="6"/>
      <point x="103" y="-2"/>
      <point x="95" y="-20" type="curve"/>
      <point x="87" y="-25"/>
      <point x="83" y="-35"/>
      <point x="78" y="-42" type="curve"/>
      <point x="70" y="-48"/>
      <point x="66" y="-57"/>
      <point x="62" y="-66" type="curve"/>
      <point x="55" y="-72"/>
      <point x="49" y="-78"/>
      <point x="43" y="-85" type="curve"/>
      <point x="39" y="-95"/>
      <point x="28" y="-97"/>
      <point x="29" y="-110" type="curve"/>
      <point x="31" y="-127"/>
      <point x="45" y="-131"/>
      <point x="51" y="-143" type="curve"/>
      <point x="59" y="-144"/>
      <point x="63" y="-150"/>
      <point x="71" y="-151" type="curve"/>
      <point x="75" y="-157"/>
      <point x="81" y="-162"/>
      <point x="92" y="-161" type="curve" smooth="yes"/>
      <point x="107" y="-160"/>
      <point x="112" y="-147"/>
      <point x="123" y="-142" type="curve"/>
      <point x="135" y="-119"/>
      <point x="147" y="-95"/>
      <point x="167" y="-80" type="curve"/>
      <point x="169" y="-72"/>
      <point x="176" y="-70"/>
      <point x="177" y="-61" type="curve"/>
      <point x="182" y="-58"/>
      <point x="185" y="-53"/>
      <point x="191" y="-50" type="curve"/>
      <point x="193" y="-43"/>
      <point x="194" y="-36"/>
      <point x="202" y="-35" type="curve"/>
      <point x="209" y="-24"/>
      <point x="215" y="-13"/>
      <point x="226" y="-6" type="curve"/>
      <point x="227" y="3"/>
      <point x="234" y="7"/>
      <point x="237" y="14" type="curve"/>
      <point x="240" y="22"/>
      <point x="248" y="25"/>
      <point x="249" y="35" type="curve"/>
      <point x="263" y="43"/>
      <point x="267" y="62"/>
      <point x="281" y="69" type="curve"/>
      <point x="288" y="84"/>
      <point x="298" y="96"/>
      <point x="308" y="107" type="curve"/>
      <point x="315" y="122"/>
      <point x="328" y="131"/>
      <point x="333" y="148" type="curve"/>
      <point x="347" y="158"/>
      <point x="356" y="172"/>
      <point x="364" y="188" type="curve"/>
      <point x="369" y="190"/>
      <point x="369" y="196"/>
      <point x="372" y="199" type="curve"/>
      <point x="376" y="202"/>
      <point x="381" y="204"/>
      <point x="382" y="210" type="curve"/>
      <point x="386" y="213"/>
      <point x="386" y="220"/>
      <point x="388" y="225" type="curve"/>
      <point x="412" y="241"/>
      <point x="423" y="269"/>
      <point x="443" y="289" type="curve"/>
      <point x="452" y="306"/>
      <point x="462" y="322"/>
      <point x="476" y="334" type="curve"/>
      <point x="485" y="353"/>
      <point x="499" y="365"/>
      <point x="511" y="380" type="curve"/>
      <point x="536" y="424" type="line"/>
      <point x="552" y="439"/>
      <point x="570" y="453"/>
      <point x="574" y="479" type="curve"/>
      <point x="574" y="482"/>
      <point x="570" y="482"/>
      <point x="569" y="486" type="curve"/>
      <point x="529" y="486"/>
      <point x="488" y="487"/>
      <point x="446" y="487" type="curve" smooth="yes"/>
      <point x="413" y="487"/>
      <point x="379" y="486"/>
      <point x="346" y="484" type="curve"/>
      <point x="340" y="484"/>
      <point x="338" y="488"/>
      <point x="331" y="487" type="curve"/>
      <point x="299" y="485"/>
      <point x="270" y="485"/>
      <point x="235" y="487" type="curve"/>
      <point x="225" y="484"/>
      <point x="214" y="484"/>
      <point x="204" y="484" type="curve" smooth="yes"/>
      <point x="171" y="485"/>
      <point x="123" y="484"/>
      <point x="90" y="484" type="curve" smooth="yes"/>
      <point x="72" y="484"/>
      <point x="55" y="489"/>
      <point x="38" y="486" type="curve"/>
      <point x="31" y="479"/>
      <point x="28" y="468"/>
      <point x="26" y="457" type="curve"/>
      <point x="30" y="442"/>
      <point x="23" y="418"/>
      <point x="30" y="402" type="curve"/>
      <point x="49" y="393"/>
      <point x="71" y="395"/>
      <point x="92" y="396" type="curve" smooth="yes"/>
      <point x="122" y="397"/>
      <point x="153" y="397"/>
      <point x="180" y="399" type="curve"/>
      <point x="186" y="396"/>
      <point x="193" y="398"/>
      <point x="196" y="397" type="curve"/>
      <point x="218" y="396"/>
      <point x="241" y="396"/>
      <point x="260" y="400" type="curve"/>
      <point x="270" y="399"/>
      <point x="282" y="399"/>
      <point x="294" y="399" type="curve"/>
      <point x="310" y="403"/>
      <point x="334" y="404"/>
      <point x="352" y="402" type="curve"/>
      <point x="365" y="406"/>
      <point x="385" y="404"/>
      <point x="399" y="407" type="curve"/>
      <point x="404" y="406"/>
      <point x="413" y="409"/>
      <point x="413" y="404" type="curve"/>
      <point x="412" y="394"/>
      <point x="407" y="388"/>
      <point x="402" y="382" type="curve"/>
      <point x="399" y="380"/>
      <point x="396" y="376"/>
      <point x="396" y="371" type="curve"/>
      <point x="393" y="368"/>
      <point x="389" y="366"/>
      <point x="388" y="361" type="curve"/>
      <point x="374" y="352"/>
      <point x="369" y="334"/>
      <point x="355" y="325" type="curve"/>
      <point x="354" y="316"/>
      <point x="347" y="312"/>
      <point x="344" y="304" type="curve"/>
      <point x="339" y="298"/>
      <point x="335" y="291"/>
      <point x="328" y="287" type="curve"/>
      <point x="326" y="278"/>
      <point x="318" y="275"/>
      <point x="314" y="268" type="curve"/>
      <point x="311" y="260"/>
      <point x="305" y="255"/>
      <point x="300" y="249" type="curve"/>
    </contour>
  </outline>
</glyph>
<glyph name="eight" format="1">
  <advance width="491"/>
  <unicode hex="0038"/>
  <outline>
    <contour>
      <point x="77" y="342" type="line"/>
      <point x="71" y="327"/>
      <point x="63" y="314"/>
      <point x="55" y="301" type="curve"/>
      <point x="48" y="287"/>
      <point x="44" y="270"/>
      <point x="39" y="254" type="curve"/>
      <point x="42" y="241"/>
      <point x="38" y="228"/>
      <point x="36" y="216" type="curve"/>
      <point x="35" y="207"/>
      <point x="37" y="195"/>
      <point x="34" y="188" type="curve"/>
      <point x="37" y="183"/>
      <point x="39" y="176"/>
      <point x="36" y="170" type="curve"/>
      <point x="38" y="166"/>
      <point x="41" y="162"/>
      <point x="41" y="155" type="curve"/>
      <point x="46" y="146"/>
      <point x="51" y="137"/>
      <point x="53" y="126" type="curve"/>
      <point x="59" y="119"/>
      <point x="64" y="111"/>
      <point x="67" y="104" type="curve"/>
      <point x="69" y="101"/>
      <point x="71" y="99"/>
      <point x="72" y="96" type="curve"/>
      <point x="74" y="94"/>
      <point x="74" y="91"/>
      <point x="75" y="88" type="curve"/>
      <point x="82" y="82" type="line"/>
      <point x="83" y="81"/>
      <point x="82" y="79"/>
      <point x="83" y="77" type="curve"/>
      <point x="86" y="73"/>
      <point x="90" y="71"/>
      <point x="91" y="66" type="curve"/>
      <point x="97" y="61"/>
      <point x="104" y="56"/>
      <point x="108" y="49" type="curve"/>
      <point x="125" y="44"/>
      <point x="137" y="36"/>
      <point x="148" y="25" type="curve"/>
      <point x="154" y="25"/>
      <point x="160" y="23"/>
      <point x="164" y="19" type="curve"/>
      <point x="191" y="18"/>
      <point x="206" y="5"/>
      <point x="236" y="6" type="curve" smooth="yes"/>
      <point x="241" y="6"/>
      <point x="242" y="2"/>
      <point x="249" y="3" type="curve"/>
      <point x="263" y="2"/>
      <point x="276" y="5"/>
      <point x="285" y="6" type="curve"/>
      <point x="287" y="7"/>
      <point x="291" y="7"/>
      <point x="296" y="8" type="curve"/>
      <point x="304" y="10"/>
      <point x="309" y="12"/>
      <point x="315" y="14" type="curve"/>
      <point x="327" y="19"/>
      <point x="338" y="23"/>
      <point x="351" y="27" type="curve"/>
      <point x="359" y="35"/>
      <point x="371" y="39"/>
      <point x="380" y="47" type="curve"/>
      <point x="388" y="55"/>
      <point x="397" y="63"/>
      <point x="406" y="69" type="curve"/>
      <point x="416" y="83"/>
      <point x="424" y="97"/>
      <point x="436" y="107" type="curve"/>
      <point x="435" y="118"/>
      <point x="443" y="119"/>
      <point x="441" y="129" type="curve"/>
      <point x="444" y="135"/>
      <point x="451" y="137"/>
      <point x="452" y="145" type="curve"/>
      <point x="450" y="160"/>
      <point x="456" y="168"/>
      <point x="458" y="180" type="curve" smooth="yes"/>
      <point x="463" y="211"/>
      <point x="453" y="240"/>
      <point x="455" y="268" type="curve"/>
      <point x="451" y="277"/>
      <point x="448" y="287"/>
      <point x="446" y="298" type="curve"/>
      <point x="436" y="314"/>
      <point x="428" y="332"/>
      <point x="416" y="345" type="curve"/>
      <point x="408" y="350"/>
      <point x="404" y="358"/>
      <point x="398" y="366" type="curve"/>
      <point x="392" y="366"/>
      <point x="392" y="372"/>
      <point x="387" y="374" type="curve"/>
      <point x="384" y="377"/>
      <point x="379" y="379"/>
      <point x="376" y="383" type="curve"/>
      <point x="369" y="385"/>
      <point x="365" y="389"/>
      <point x="359" y="391" type="curve"/>
      <point x="355" y="395"/>
      <point x="343" y="393"/>
      <point x="343" y="402" type="curve"/>
      <point x="348" y="409"/>
      <point x="361" y="408"/>
      <point x="368" y="411" type="curve"/>
      <point x="384" y="424"/>
      <point x="396" y="441"/>
      <point x="411" y="454" type="curve"/>
      <point x="416" y="465"/>
      <point x="423" y="474"/>
      <point x="428" y="484" type="curve"/>
      <point x="426" y="497"/>
      <point x="432" y="507"/>
      <point x="432" y="519" type="curve" smooth="yes"/>
      <point x="432" y="530"/>
      <point x="427" y="541"/>
      <point x="425" y="552" type="curve" smooth="yes"/>
      <point x="423" y="563"/>
      <point x="421" y="574"/>
      <point x="420" y="586" type="curve"/>
      <point x="416" y="592"/>
      <point x="414" y="600"/>
      <point x="413" y="609" type="curve"/>
      <point x="405" y="620"/>
      <point x="397" y="631"/>
      <point x="392" y="645" type="curve"/>
      <point x="375" y="661" type="line"/>
      <point x="371" y="668"/>
      <point x="364" y="672"/>
      <point x="357" y="676" type="curve"/>
      <point x="354" y="684"/>
      <point x="344" y="685"/>
      <point x="339" y="691" type="curve"/>
      <point x="333" y="696"/>
      <point x="324" y="698"/>
      <point x="318" y="703" type="curve"/>
      <point x="307" y="701"/>
      <point x="302" y="706"/>
      <point x="294" y="708" type="curve"/>
      <point x="280" y="708"/>
      <point x="266" y="712"/>
      <point x="252" y="713" type="curve"/>
      <point x="232" y="713"/>
      <point x="213" y="706"/>
      <point x="192" y="706" type="curve"/>
      <point x="184" y="699"/>
      <point x="169" y="698"/>
      <point x="160" y="691" type="curve"/>
      <point x="149" y="685"/>
      <point x="142" y="677"/>
      <point x="130" y="672" type="curve"/>
      <point x="117" y="659"/>
      <point x="108" y="642"/>
      <point x="94" y="631" type="curve"/>
      <point x="75" y="575" type="line"/>
      <point x="75" y="557" type="line"/>
      <point x="69" y="538"/>
      <point x="69" y="523"/>
      <point x="69" y="498" type="curve"/>
      <point x="72" y="490"/>
      <point x="76" y="482"/>
      <point x="77" y="471" type="curve"/>
      <point x="83" y="465"/>
      <point x="87" y="455"/>
      <point x="91" y="446" type="curve"/>
      <point x="103" y="439"/>
      <point x="112" y="426"/>
      <point x="126" y="421" type="curve" smooth="yes"/>
      <point x="134" y="418"/>
      <point x="157" y="399"/>
      <point x="153" y="394" type="curve"/>
      <point x="136" y="388"/>
      <point x="125" y="379"/>
      <point x="110" y="374" type="curve"/>
    </contour>
    <contour>
      <point x="346" y="516" type="line"/>
      <point x="343" y="503"/>
      <point x="337" y="491"/>
      <point x="332" y="479" type="curve"/>
      <point x="323" y="471"/>
      <point x="314" y="462"/>
      <point x="305" y="452" type="curve"/>
      <point x="294" y="448"/>
      <point x="284" y="443"/>
      <point x="272" y="438" type="curve"/>
      <point x="260" y="440"/>
      <point x="248" y="436"/>
      <point x="238" y="437" type="curve"/>
      <point x="221" y="437"/>
      <point x="208" y="444"/>
      <point x="195" y="449" type="curve"/>
      <point x="170" y="469"/>
      <point x="149" y="494"/>
      <point x="153" y="542" type="curve"/>
      <point x="158" y="557"/>
      <point x="169" y="578"/>
      <point x="171" y="583" type="curve"/>
      <point x="174" y="589"/>
      <point x="195" y="618"/>
      <point x="211" y="628" type="curve" smooth="yes"/>
      <point x="227" y="638"/>
      <point x="267" y="627"/>
      <point x="277" y="631" type="curve"/>
      <point x="286" y="627"/>
      <point x="291" y="620"/>
      <point x="298" y="615" type="curve"/>
      <point x="306" y="613"/>
      <point x="312" y="608"/>
      <point x="318" y="604" type="curve"/>
      <point x="321" y="599"/>
      <point x="322" y="592"/>
      <point x="323" y="585" type="curve"/>
      <point x="327" y="577"/>
      <point x="335" y="573"/>
      <point x="339" y="564" type="curve"/>
      <point x="341" y="556"/>
      <point x="344" y="548"/>
      <point x="346" y="539" type="curve"/>
    </contour>
    <contour>
      <point x="376" y="214" type="line"/>
      <point x="378" y="214"/>
      <point x="377" y="213"/>
      <point x="376" y="213" type="curve"/>
      <point x="377" y="205"/>
      <point x="374" y="201"/>
      <point x="375" y="192" type="curve"/>
      <point x="366" y="178"/>
      <point x="359" y="163"/>
      <point x="351" y="148" type="curve"/>
      <point x="339" y="136"/>
      <point x="326" y="124"/>
      <point x="310" y="115" type="curve"/>
      <point x="296" y="110"/>
      <point x="278" y="108"/>
      <point x="264" y="103" type="curve"/>
      <point x="254" y="103"/>
      <point x="243" y="103"/>
      <point x="234" y="101" type="curve"/>
      <point x="215" y="107"/>
      <point x="197" y="113"/>
      <point x="178" y="118" type="curve"/>
      <point x="158" y="135"/>
      <point x="142" y="156"/>
      <point x="129" y="180" type="curve"/>
      <point x="124" y="197"/>
      <point x="120" y="213"/>
      <point x="121" y="230" type="curve"/>
      <point x="121" y="234"/>
      <point x="123" y="239"/>
      <point x="124" y="243" type="curve"/>
      <point x="126" y="255" type="line" smooth="yes"/>
      <point x="127" y="260"/>
      <point x="131" y="265"/>
      <point x="134" y="270" type="curve"/>
      <point x="136" y="275"/>
      <point x="138" y="282"/>
      <point x="140" y="285" type="curve" smooth="yes"/>
      <point x="144" y="291"/>
      <point x="149" y="294"/>
      <point x="154" y="300" type="curve"/>
      <point x="157" y="301" type="line"/>
      <point x="161" y="309"/>
      <point x="169" y="315"/>
      <point x="175" y="322" type="curve"/>
      <point x="181" y="324"/>
      <point x="187" y="326"/>
      <point x="190" y="331" type="curve"/>
      <point x="200" y="332"/>
      <point x="210" y="333"/>
      <point x="214" y="339" type="curve"/>
      <point x="224" y="339"/>
      <point x="229" y="344"/>
      <point x="238" y="345" type="curve"/>
      <point x="256" y="345"/>
      <point x="274" y="343"/>
      <point x="288" y="339" type="curve"/>
      <point x="297" y="338"/>
      <point x="303" y="331"/>
      <point x="310" y="326" type="curve"/>
      <point x="313" y="325"/>
      <point x="316" y="325"/>
      <point x="318" y="323" type="curve"/>
      <point x="328" y="318"/>
      <point x="336" y="311"/>
      <point x="345" y="304" type="curve"/>
      <point x="357" y="287"/>
      <point x="367" y="268"/>
      <point x="376" y="248" type="curve"/>
    </contour>
  </outline>
</glyph>
<glyph name="colon" format="1">
  <advance width="196"/>
  <unicode hex="003A"/>
  <outline>
    <contour>
      <point x="153" y="303" type="line"/>
      <point x="142" y="325" type="line"/>
      <point x="134" y="329"/>
      <point x="133" y="339"/>
      <point x="126" y="344" type="curve" smooth="yes"/>
      <point x="123" y="346"/>
      <point x="119" y="345"/>
      <point x="117" y="349" type="curve"/>
      <point x="85" y="349" type="line"/>
      <point x="63" y="337"/>
      <point x="50" y="314"/>
      <point x="47" y="283" type="curve"/>
      <point x="50" y="274"/>
      <point x="54" y="268"/>
      <point x="58" y="264" type="curve" smooth="yes"/>
      <point x="65" y="257"/>
      <point x="74" y="248"/>
      <point x="80" y="245" type="curve"/>
      <point x="88" y="243" type="line"/>
      <point x="91" y="242"/>
      <point x="91" y="238"/>
      <point x="95" y="240" type="curve"/>
      <point x="111" y="242"/>
      <point x="124" y="247"/>
      <point x="137" y="253" type="curve"/>
      <point x="147" y="264"/>
      <point x="151" y="281"/>
      <point x="154" y="298" type="curve"/>
      <point x="154" y="299"/>
      <point x="154" y="300"/>
      <point x="153" y="300" type="curve"/>
    </contour>
    <contour>
      <point x="152" y="90"/>
      <point x="143" y="103"/>
      <point x="134" y="116" type="curve"/>
      <point x="123" y="121"/>
      <point x="112" y="128"/>
      <point x="101" y="128" type="curve" smooth="yes"/>
      <point x="84" y="128"/>
      <point x="78" y="120"/>
      <point x="69" y="109" type="curve" smooth="yes"/>
      <point x="64" y="103"/>
      <point x="58" y="96"/>
      <point x="55" y="90" type="curve" smooth="yes"/>
      <point x="50" y="80"/>
      <point x="47" y="54"/>
      <point x="52" y="45" type="curve"/>
      <point x="56" y="39"/>
      <point x="63" y="37"/>
      <point x="68" y="32" type="curve"/>
      <point x="72" y="26"/>
      <point x="79" y="24"/>
      <point x="87" y="21" type="curve"/>
      <point x="109" y="21"/>
      <point x="126" y="26"/>
      <point x="142" y="34" type="curve"/>
      <point x="147" y="46"/>
      <point x="155" y="56"/>
      <point x="158" y="71" type="curve"/>
      <point x="157" y="72"/>
      <point x="157" y="73"/>
      <point x="156" y="73" type="curve"/>
    </contour>
  </outline>
</glyph>
<glyph name="semicolon" format="1">
  <advance width="250"/>
  <unicode hex="003B"/>
  <outline>
    <contour>
      <point x="138" y="309" type="line"/>
      <point x="133" y="311"/>
      <point x="130" y="316"/>
      <point x="126" y="319" type="curve"/>
      <point x="118" y="320"/>
      <point x="110" y="322"/>
      <point x="102" y="324" type="curve"/>
      <point x="83" y="322"/>
      <point x="70" y="313"/>
      <point x="59" y="303" type="curve"/>
      <point x="56" y="294"/>
      <point x="51" y="285"/>
      <point x="45" y="278" type="curve"/>
      <point x="40" y="244"/>
      <point x="58" y="223"/>
      <point x="80" y="212" type="curve"/>
      <point x="102" y="209"/>
      <point x="121" y="211"/>
      <point x="137" y="220" type="curve"/>
      <point x="148" y="233"/>
      <point x="161" y="252"/>
      <point x="154" y="279" type="curve"/>
      <point x="154" y="281"/>
      <point x="154" y="283"/>
      <point x="152" y="283" type="curve"/>
      <point x="152" y="289"/>
      <point x="145" y="289"/>
      <point x="144" y="295" type="curve"/>
    </contour>
    <contour>
      <point x="146" y="98" type="line"/>
      <point x="126" y="111"/>
      <point x="101" y="128"/>
      <point x="67" y="122" type="curve"/>
      <point x="55" y="105"/>
      <point x="55" y="76"/>
      <point x="42" y="60" type="curve"/>
      <point x="31" y="10"/>
      <point x="8" y="-30"/>
      <point x="-2" y="-82" type="curve"/>
      <point x="-9" y="-88"/>
      <point x="-12" y="-97"/>
      <point x="-16" y="-105" type="curve"/>
      <point x="-20" y="-105"/>
      <point x="-18" y="-109"/>
      <point x="-20" y="-111" type="curve"/>
      <point x="-23" y="-118"/>
      <point x="-29" y="-122"/>
      <point x="-27" y="-132" type="curve"/>
      <point x="-23" y="-141"/>
      <point x="-13" y="-146"/>
      <point x="-4" y="-151" type="curve"/>
      <point x="10" y="-151"/>
      <point x="21" y="-149"/>
      <point x="33" y="-148" type="curve"/>
      <point x="50" y="-127"/>
      <point x="58" y="-98"/>
      <point x="75" y="-77" type="curve"/>
      <point x="78" y="-56"/>
      <point x="87" y="-38"/>
      <point x="99" y="-28" type="curve"/>
      <point x="98" y="-2"/>
      <point x="115" y="7"/>
      <point x="119" y="29" type="curve"/>
      <point x="122" y="32"/>
      <point x="126" y="34"/>
      <point x="129" y="38" type="curve"/>
      <point x="131" y="42"/>
      <point x="132" y="48"/>
      <point x="137" y="49" type="curve"/>
      <point x="135" y="69"/>
      <point x="149" y="73"/>
      <point x="149" y="92" type="curve"/>
    </contour>
  </outline>
</glyph>
<glyph name="less" format="1">
  <advance width="281"/>
  <unicode hex="003C"/>
  <outline>
    <contour>
      <point x="132" y="384" type="line"/>
      <point x="126" y="370"/>
      <point x="116" y="360"/>
      <point x="109" y="347" type="curve"/>
      <point x="104" y="342"/>
      <point x="99" y="337"/>
      <point x="96" y="330" type="curve"/>
      <point x="92" y="324"/>
      <point x="86" y="320"/>
      <point x="83" y="313" type="curve"/>
      <point x="62" y="294"/>
      <point x="52" y="265"/>
      <point x="30" y="247" type="curve"/>
      <point x="30" y="235"/>
      <point x="23" y="230"/>
      <point x="22" y="218" type="curve"/>
      <point x="31" y="203"/>
      <point x="40" y="187"/>
      <point x="53" y="177" type="curve"/>
      <point x="60" y="159"/>
      <point x="76" y="152"/>
      <point x="82" y="133" type="curve"/>
      <point x="90" y="127"/>
      <point x="91" y="118"/>
      <point x="99" y="109" type="curve"/>
      <point x="103" y="105"/>
      <point x="108" y="104"/>
      <point x="110" y="100" type="curve"/>
      <point x="116" y="84" type="line"/>
      <point x="122" y="80"/>
      <point x="127" y="74"/>
      <point x="134" y="72" type="curve"/>
      <point x="134" y="67"/>
      <point x="136" y="64"/>
      <point x="139" y="60" type="curve"/>
      <point x="146" y="56"/>
      <point x="152" y="50"/>
      <point x="159" y="45" type="curve"/>
      <point x="162" y="38"/>
      <point x="165" y="31"/>
      <point x="170" y="27" type="curve"/>
      <point x="176" y="24"/>
      <point x="185" y="24"/>
      <point x="195" y="24" type="curve"/>
      <point x="205" y="31"/>
      <point x="219" y="34"/>
      <point x="221" y="46" type="curve"/>
      <point x="222" y="58"/>
      <point x="211" y="63"/>
      <point x="208" y="75" type="curve"/>
      <point x="203" y="77"/>
      <point x="199" y="80"/>
      <point x="194" y="83" type="curve"/>
      <point x="191" y="91"/>
      <point x="183" y="93"/>
      <point x="180" y="100" type="curve"/>
      <point x="174" y="105"/>
      <point x="170" y="112"/>
      <point x="164" y="116" type="curve"/>
      <point x="157" y="130"/>
      <point x="145" y="139"/>
      <point x="139" y="154" type="curve"/>
      <point x="123" y="166" type="line"/>
      <point x="122" y="174"/>
      <point x="115" y="176"/>
      <point x="112" y="182" type="curve"/>
      <point x="110" y="189"/>
      <point x="106" y="194"/>
      <point x="101" y="198" type="curve"/>
      <point x="95" y="210"/>
      <point x="84" y="217"/>
      <point x="80" y="231" type="curve"/>
      <point x="83" y="238"/>
      <point x="89" y="243"/>
      <point x="96" y="247" type="curve"/>
      <point x="100" y="258"/>
      <point x="109" y="267"/>
      <point x="115" y="275" type="curve" smooth="yes"/>
      <point x="118" y="279"/>
      <point x="120" y="283"/>
      <point x="123" y="286" type="curve" smooth="yes"/>
      <point x="128" y="291"/>
      <point x="133" y="295"/>
      <point x="137" y="300" type="curve" smooth="yes"/>
      <point x="140" y="304"/>
      <point x="142" y="308"/>
      <point x="145" y="311" type="curve"/>
      <point x="150" y="318"/>
      <point x="157" y="325"/>
      <point x="159" y="335" type="curve"/>
      <point x="174" y="345"/>
      <point x="183" y="361"/>
      <point x="194" y="376" type="curve"/>
      <point x="199" y="379"/>
      <point x="204" y="384"/>
      <point x="209" y="388" type="curve"/>
      <point x="211" y="396"/>
      <point x="220" y="398"/>
      <point x="222" y="406" type="curve"/>
      <point x="220" y="420"/>
      <point x="210" y="426"/>
      <point x="202" y="434" type="curve"/>
      <point x="187" y="432"/>
      <point x="184" y="440"/>
      <point x="170" y="439" type="curve"/>
      <point x="158" y="431"/>
      <point x="158" y="411"/>
      <point x="151" y="398" type="curve"/>
    </contour>
  </outline>
</glyph>
<glyph name="equal" format="1">
  <advance width="375"/>
  <unicode hex="003D"/>
  <outline>
    <contour>
      <point x="127" y="277" type="line"/>
      <point x="138" y="278"/>
      <point x="182" y="274"/>
      <point x="193" y="274" type="curve" smooth="yes"/>
      <point x="199" y="274"/>
      <point x="291" y="284"/>
      <point x="304" y="278" type="curve" smooth="yes"/>
      <point x="311" y="275"/>
      <point x="321" y="278"/>
      <point x="326" y="283" type="curve" smooth="yes"/>
      <point x="329" y="286"/>
      <point x="330" y="289"/>
      <point x="331" y="291" type="curve"/>
      <point x="336" y="300"/>
      <point x="330" y="311"/>
      <point x="329" y="321" type="curve"/>
      <point x="326" y="329"/>
      <point x="331" y="340"/>
      <point x="323" y="344" type="curve"/>
      <point x="308" y="346"/>
      <point x="293" y="343"/>
      <point x="277" y="344" type="curve"/>
      <point x="271" y="344"/>
      <point x="263" y="345"/>
      <point x="256" y="345" type="curve" smooth="yes"/>
      <point x="249" y="345"/>
      <point x="204" y="344"/>
      <point x="197" y="343" type="curve" smooth="yes"/>
      <point x="165" y="339"/>
      <point x="149" y="351"/>
      <point x="102" y="344" type="curve" smooth="yes"/>
      <point x="89" y="342"/>
      <point x="67" y="345"/>
      <point x="59" y="344" type="curve"/>
      <point x="53" y="343"/>
      <point x="38" y="346"/>
      <point x="35" y="342" type="curve"/>
      <point x="28" y="336"/>
      <point x="31" y="324"/>
      <point x="30" y="313" type="curve" smooth="yes"/>
      <point x="29" y="302"/>
      <point x="26" y="293"/>
      <point x="27" y="282" type="curve" smooth="yes"/>
      <point x="28" y="268"/>
      <point x="43" y="267"/>
      <point x="59" y="272" type="curve" smooth="yes"/>
      <point x="66" y="274"/>
      <point x="90" y="271"/>
      <point x="98" y="272" type="curve" smooth="yes"/>
      <point x="109" y="273"/>
      <point x="100" y="277"/>
      <point x="109" y="274" type="curve"/>
    </contour>
    <contour>
      <point x="127" y="124" type="line"/>
      <point x="138" y="125"/>
      <point x="182" y="121"/>
      <point x="193" y="121" type="curve" smooth="yes"/>
      <point x="199" y="121"/>
      <point x="291" y="131"/>
      <point x="304" y="125" type="curve" smooth="yes"/>
      <point x="311" y="122"/>
      <point x="319" y="129"/>
      <point x="326" y="130" type="curve"/>
      <point x="327" y="134"/>
      <point x="330" y="136"/>
      <point x="331" y="138" type="curve"/>
      <point x="336" y="147"/>
      <point x="338" y="161"/>
      <point x="337" y="171" type="curve"/>
      <point x="334" y="179"/>
      <point x="331" y="188"/>
      <point x="323" y="192" type="curve"/>
      <point x="308" y="194"/>
      <point x="293" y="191"/>
      <point x="277" y="192" type="curve"/>
      <point x="218" y="191" type="line" smooth="yes"/>
      <point x="211" y="191"/>
      <point x="204" y="188"/>
      <point x="197" y="188" type="curve" smooth="yes"/>
      <point x="194" y="188"/>
      <point x="184" y="198"/>
      <point x="137" y="191" type="curve" smooth="yes"/>
      <point x="124" y="189"/>
      <point x="61" y="193"/>
      <point x="53" y="192" type="curve"/>
      <point x="47" y="191"/>
      <point x="41" y="190"/>
      <point x="35" y="190" type="curve"/>
      <point x="28" y="184"/>
      <point x="25" y="174"/>
      <point x="24" y="163" type="curve" smooth="yes"/>
      <point x="23" y="152"/>
      <point x="24" y="140"/>
      <point x="27" y="129" type="curve"/>
      <point x="34" y="124"/>
      <point x="37" y="114"/>
      <point x="53" y="119" type="curve" smooth="yes"/>
      <point x="60" y="121"/>
      <point x="68" y="122"/>
      <point x="76" y="123" type="curve" smooth="yes"/>
      <point x="87" y="124"/>
      <point x="100" y="124"/>
      <point x="109" y="121" type="curve"/>
    </contour>
  </outline>
</glyph>
<glyph name="question" format="1">
  <advance width="424"/>
  <unicode hex="003F"/>
  <outline>
    <contour>
      <point x="312" y="431" type="line"/>
      <point x="324" y="434"/>
      <point x="330" y="442"/>
      <point x="340" y="447" type="curve"/>
      <point x="345" y="459"/>
      <point x="358" y="465"/>
      <point x="364" y="478" type="curve"/>
      <point x="366" y="483"/>
      <point x="366" y="490"/>
      <point x="368" y="497" type="curve"/>
      <point x="370" y="503"/>
      <point x="374" y="509"/>
      <point x="375" y="514" type="curve"/>
      <point x="375" y="521"/>
      <point x="373" y="527"/>
      <point x="373" y="533" type="curve" smooth="yes"/>
      <point x="373" y="545"/>
      <point x="374" y="558"/>
      <point x="372" y="566" type="curve" smooth="yes"/>
      <point x="367" y="586"/>
      <point x="364" y="606"/>
      <point x="359" y="623" type="curve"/>
      <point x="352" y="634"/>
      <point x="346" y="645"/>
      <point x="340" y="656" type="curve"/>
      <point x="334" y="660"/>
      <point x="328" y="666"/>
      <point x="324" y="669" type="curve" smooth="yes"/>
      <point x="320" y="672"/>
      <point x="320" y="678"/>
      <point x="315" y="678" type="curve"/>
      <point x="313" y="683"/>
      <point x="305" y="683"/>
      <point x="302" y="685" type="curve"/>
      <point x="302" y="685"/>
      <point x="301" y="687"/>
      <point x="301" y="688" type="curve"/>
      <point x="300" y="688"/>
      <point x="298" y="687"/>
      <point x="297" y="688" type="curve"/>
      <point x="297" y="688"/>
      <point x="296" y="690"/>
      <point x="296" y="691" type="curve"/>
      <point x="277" y="703" type="line"/>
      <point x="262" y="708"/>
      <point x="245" y="715"/>
      <point x="227" y="716" type="curve"/>
      <point x="209" y="718"/>
      <point x="191" y="712"/>
      <point x="171" y="713" type="curve"/>
      <point x="164" y="711"/>
      <point x="161" y="706"/>
      <point x="151" y="707" type="curve"/>
      <point x="146" y="701"/>
      <point x="139" y="698"/>
      <point x="130" y="696" type="curve"/>
      <point x="116" y="682"/>
      <point x="102" y="668"/>
      <point x="85" y="658" type="curve"/>
      <point x="81" y="650"/>
      <point x="75" y="643"/>
      <point x="72" y="634" type="curve"/>
      <point x="72" y="630"/>
      <point x="69" y="625"/>
      <point x="67" y="622" type="curve"/>
      <point x="65" y="617"/>
      <point x="65" y="612"/>
      <point x="61" y="609" type="curve"/>
      <point x="61" y="595"/>
      <point x="57" y="586"/>
      <point x="55" y="576" type="curve"/>
      <point x="55" y="557" type="line"/>
      <point x="53" y="549"/>
      <point x="47" y="544"/>
      <point x="47" y="535" type="curve"/>
      <point x="51" y="527"/>
      <point x="58" y="521"/>
      <point x="66" y="517" type="curve"/>
      <point x="78" y="517"/>
      <point x="84" y="521"/>
      <point x="94" y="522" type="curve"/>
      <point x="108" y="520"/>
      <point x="131" y="518"/>
      <point x="135" y="530" type="curve"/>
      <point x="142" y="535"/>
      <point x="135" y="544"/>
      <point x="137" y="554" type="curve"/>
      <point x="139" y="558"/>
      <point x="138" y="566"/>
      <point x="140" y="571" type="curve"/>
      <point x="148" y="589"/>
      <point x="157" y="607"/>
      <point x="173" y="618" type="curve"/>
      <point x="179" y="620"/>
      <point x="185" y="622"/>
      <point x="190" y="625" type="curve"/>
      <point x="202" y="622"/>
      <point x="212" y="624"/>
      <point x="220" y="628" type="curve"/>
      <point x="227" y="625"/>
      <point x="234" y="623"/>
      <point x="244" y="623" type="curve"/>
      <point x="250" y="618"/>
      <point x="255" y="611"/>
      <point x="264" y="609" type="curve"/>
      <point x="271" y="594"/>
      <point x="287" y="589"/>
      <point x="291" y="571" type="curve"/>
      <point x="291" y="569"/>
      <point x="292" y="569"/>
      <point x="293" y="568" type="curve"/>
      <point x="295" y="547"/>
      <point x="286" y="535"/>
      <point x="282" y="521" type="curve"/>
      <point x="271" y="511"/>
      <point x="262" y="499"/>
      <point x="249" y="492" type="curve" smooth="yes"/>
      <point x="241" y="488"/>
      <point x="230" y="486"/>
      <point x="220" y="483" type="curve"/>
      <point x="208" y="482"/>
      <point x="202" y="475"/>
      <point x="192" y="472" type="curve"/>
      <point x="183" y="472"/>
      <point x="178" y="469"/>
      <point x="170" y="469" type="curve"/>
      <point x="160" y="461"/>
      <point x="146" y="459"/>
      <point x="134" y="454" type="curve"/>
      <point x="126" y="448"/>
      <point x="115" y="445"/>
      <point x="110" y="436" type="curve"/>
      <point x="105" y="433"/>
      <point x="104" y="427"/>
      <point x="99" y="424" type="curve"/>
      <point x="81" y="416"/>
      <point x="82" y="390"/>
      <point x="70" y="376" type="curve"/>
      <point x="72" y="363"/>
      <point x="68" y="356"/>
      <point x="66" y="347" type="curve"/>
      <point x="67" y="336"/>
      <point x="64" y="327"/>
      <point x="64" y="319" type="curve"/>
      <point x="66" y="294"/>
      <point x="82" y="278"/>
      <point x="85" y="254" type="curve"/>
      <point x="93" y="248"/>
      <point x="95" y="235"/>
      <point x="105" y="231" type="curve"/>
      <point x="111" y="221"/>
      <point x="120" y="215"/>
      <point x="127" y="207" type="curve"/>
      <point x="147" y="197"/>
      <point x="172" y="192"/>
      <point x="195" y="185" type="curve"/>
      <point x="215" y="184"/>
      <point x="232" y="185"/>
      <point x="250" y="186" type="curve"/>
      <point x="258" y="188"/>
      <point x="263" y="192"/>
      <point x="274" y="191" type="curve"/>
      <point x="279" y="196"/>
      <point x="287" y="197"/>
      <point x="294" y="199" type="curve"/>
      <point x="301" y="208"/>
      <point x="311" y="214"/>
      <point x="320" y="221" type="curve"/>
      <point x="323" y="228"/>
      <point x="329" y="232"/>
      <point x="332" y="238" type="curve"/>
      <point x="335" y="246"/>
      <point x="342" y="248"/>
      <point x="346" y="254" type="curve"/>
      <point x="349" y="258"/>
      <point x="349" y="263"/>
      <point x="351" y="267" type="curve"/>
      <point x="357" y="278" type="line"/>
      <point x="356" y="290"/>
      <point x="361" y="296"/>
      <point x="362" y="305" type="curve"/>
      <point x="361" y="315"/>
      <point x="364" y="329"/>
      <point x="359" y="335" type="curve"/>
      <point x="343" y="343"/>
      <point x="322" y="337"/>
      <point x="305" y="336" type="curve"/>
      <point x="295" y="336"/>
      <point x="286" y="338"/>
      <point x="279" y="335" type="curve"/>
      <point x="271" y="328"/>
      <point x="272" y="314"/>
      <point x="268" y="305" type="curve"/>
      <point x="260" y="298"/>
      <point x="255" y="288"/>
      <point x="247" y="283" type="curve"/>
      <point x="237" y="278"/>
      <point x="226" y="271"/>
      <point x="212" y="272" type="curve"/>
      <point x="203" y="272"/>
      <point x="194" y="278"/>
      <point x="184" y="276" type="curve"/>
      <point x="165" y="288"/>
      <point x="146" y="308"/>
      <point x="151" y="339" type="curve"/>
      <point x="154" y="347"/>
      <point x="158" y="353"/>
      <point x="162" y="360" type="curve"/>
      <point x="174" y="369"/>
      <point x="186" y="376"/>
      <point x="201" y="382" type="curve"/>
      <point x="214" y="386"/>
      <point x="229" y="387"/>
      <point x="239" y="393" type="curve"/>
      <point x="251" y="398"/>
      <point x="263" y="403"/>
      <point x="277" y="406" type="curve"/>
    </contour>
    <contour>
      <point x="268" y="83"/>
      <point x="259" y="99"/>
      <point x="252" y="116" type="curve"/>
      <point x="242" y="121"/>
      <point x="232" y="132"/>
      <point x="219" y="133" type="curve" smooth="yes"/>
      <point x="209" y="134"/>
      <point x="203" y="128"/>
      <point x="192" y="128" type="curve"/>
      <point x="186" y="123"/>
      <point x="180" y="117"/>
      <point x="173" y="112" type="curve"/>
      <point x="171" y="105"/>
      <point x="166" y="101"/>
      <point x="165" y="92" type="curve"/>
      <point x="161" y="87"/>
      <point x="156" y="82"/>
      <point x="156" y="73" type="curve"/>
      <point x="157" y="58"/>
      <point x="165" y="49"/>
      <point x="171" y="38" type="curve"/>
      <point x="181" y="33"/>
      <point x="192" y="24"/>
      <point x="208" y="23" type="curve"/>
      <point x="221" y="21"/>
      <point x="234" y="25"/>
      <point x="247" y="27" type="curve"/>
      <point x="256" y="37"/>
      <point x="266" y="48"/>
      <point x="269" y="60" type="curve"/>
    </contour>
  </outline>
</glyph>
<glyph name="at" format="1">
  <advance width="768"/>
  <unicode hex="0040"/>
  <outline>
    <contour>
      <point x="86" y="432" type="line"/>
      <point x="85" y="430"/>
      <point x="86" y="427"/>
      <point x="85" y="425" type="curve"/>
      <point x="84" y="424"/>
      <point x="81" y="423"/>
      <point x="80" y="421" type="curve"/>
      <point x="77" y="416" type="line"/>
      <point x="65" y="401"/>
      <point x="59" y="382"/>
      <point x="52" y="362" type="curve"/>
      <point x="49" y="349"/>
      <point x="47" y="336"/>
      <point x="42" y="325" type="curve"/>
      <point x="39" y="300"/>
      <point x="38" y="274"/>
      <point x="38" y="247" type="curve"/>
      <point x="37" y="238"/>
      <point x="36" y="229"/>
      <point x="36" y="221" type="curve"/>
      <point x="37" y="205"/>
      <point x="47" y="192"/>
      <point x="44" y="176" type="curve"/>
      <point x="50" y="163"/>
      <point x="55" y="149"/>
      <point x="58" y="132" type="curve"/>
      <point x="79" y="94"/>
      <point x="102" y="57"/>
      <point x="132" y="28" type="curve"/>
      <point x="141" y="17"/>
      <point x="155" y="11"/>
      <point x="162" y="-2" type="curve"/>
      <point x="175" y="-8"/>
      <point x="186" y="-17"/>
      <point x="198" y="-24" type="curve" smooth="yes"/>
      <point x="212" y="-32"/>
      <point x="227" y="-42"/>
      <point x="243" y="-47" type="curve"/>
      <point x="245" y="-48"/>
      <point x="247" y="-50"/>
      <point x="250" y="-51" type="curve"/>
      <point x="256" y="-52"/>
      <point x="262" y="-53"/>
      <point x="268" y="-55" type="curve"/>
      <point x="269" y="-58" type="line"/>
      <point x="271" y="-59"/>
      <point x="284" y="-62"/>
      <point x="285" y="-62" type="curve"/>
      <point x="293" y="-66"/>
      <point x="313" y="-66"/>
      <point x="321" y="-70" type="curve"/>
      <point x="339" y="-77"/>
      <point x="357" y="-77"/>
      <point x="367" y="-80" type="curve"/>
      <point x="384" y="-78"/>
      <point x="411" y="-84"/>
      <point x="436" y="-79" type="curve" smooth="yes"/>
      <point x="467" y="-73"/>
      <point x="491" y="-73"/>
      <point x="517" y="-64" type="curve"/>
      <point x="531" y="-60"/>
      <point x="610" y="-40"/>
      <point x="621" y="-33" type="curve"/>
      <point x="633" y="-29"/>
      <point x="653" y="-24"/>
      <point x="661" y="-16" type="curve"/>
      <point x="675" y="-12"/>
      <point x="682" y="-6"/>
      <point x="657" y="46" type="curve"/>
      <point x="643" y="44"/>
      <point x="618" y="41"/>
      <point x="610" y="31" type="curve"/>
      <point x="602" y="29"/>
      <point x="556" y="11"/>
      <point x="509" y="6" type="curve" smooth="yes"/>
      <point x="461" y="1"/>
      <point x="447" y="-3"/>
      <point x="425" y="-4" type="curve" smooth="yes"/>
      <point x="406" y="-5"/>
      <point x="366" y="1"/>
      <point x="350" y="1" type="curve" smooth="yes"/>
      <point x="344" y="1"/>
      <point x="313" y="17"/>
      <point x="307" y="17" type="curve"/>
      <point x="286" y="25"/>
      <point x="270" y="36"/>
      <point x="247" y="42" type="curve"/>
      <point x="239" y="48"/>
      <point x="232" y="55"/>
      <point x="222" y="58" type="curve"/>
      <point x="217" y="67"/>
      <point x="209" y="72"/>
      <point x="202" y="79" type="curve"/>
      <point x="191" y="88"/>
      <point x="178" y="100"/>
      <point x="167" y="110" type="curve"/>
      <point x="165" y="118"/>
      <point x="160" y="121"/>
      <point x="156" y="126" type="curve"/>
      <point x="153" y="141"/>
      <point x="144" y="151"/>
      <point x="140" y="165" type="curve"/>
      <point x="135" y="178"/>
      <point x="130" y="192"/>
      <point x="124" y="205" type="curve"/>
      <point x="121" y="238" type="line"/>
      <point x="121" y="247"/>
      <point x="119" y="258"/>
      <point x="120" y="266" type="curve"/>
      <point x="120" y="275"/>
      <point x="123" y="284"/>
      <point x="124" y="293" type="curve"/>
      <point x="126" y="302"/>
      <point x="128" y="311"/>
      <point x="129" y="320" type="curve"/>
      <point x="135" y="327"/>
      <point x="136" y="339"/>
      <point x="140" y="348" type="curve"/>
      <point x="147" y="357"/>
      <point x="146" y="367"/>
      <point x="151" y="377" type="curve"/>
      <point x="157" y="388"/>
      <point x="169" y="395"/>
      <point x="172" y="408" type="curve"/>
      <point x="184" y="418"/>
      <point x="194" y="430"/>
      <point x="203" y="443" type="curve"/>
      <point x="208" y="443"/>
      <point x="211" y="448"/>
      <point x="214" y="451" type="curve"/>
      <point x="218" y="454"/>
      <point x="228" y="457"/>
      <point x="233" y="462" type="curve"/>
      <point x="244" y="466"/>
      <point x="253" y="477"/>
      <point x="265" y="482" type="curve"/>
      <point x="275" y="487"/>
      <point x="290" y="489"/>
      <point x="304" y="493" type="curve"/>
      <point x="323" y="500" type="line"/>
      <point x="329" y="501"/>
      <point x="336" y="504"/>
      <point x="342" y="504" type="curve"/>
      <point x="352" y="506"/>
      <point x="364" y="505"/>
      <point x="375" y="506" type="curve" smooth="yes"/>
      <point x="387" y="507"/>
      <point x="398" y="508"/>
      <point x="410" y="507" type="curve"/>
      <point x="420" y="507"/>
      <point x="430" y="503"/>
      <point x="441" y="503" type="curve"/>
      <point x="450" y="500"/>
      <point x="459" y="497"/>
      <point x="470" y="495" type="curve"/>
      <point x="487" y="489"/>
      <point x="500" y="479"/>
      <point x="518" y="474" type="curve"/>
      <point x="524" y="467"/>
      <point x="534" y="464"/>
      <point x="540" y="457" type="curve"/>
      <point x="566" y="443"/>
      <point x="581" y="420"/>
      <point x="602" y="402" type="curve"/>
      <point x="607" y="391"/>
      <point x="613" y="381"/>
      <point x="621" y="373" type="curve"/>
      <point x="624" y="362"/>
      <point x="631" y="353"/>
      <point x="637" y="343" type="curve"/>
      <point x="636" y="342"/>
      <point x="637" y="341"/>
      <point x="638" y="340" type="curve"/>
      <point x="639" y="320"/>
      <point x="647" y="307"/>
      <point x="649" y="288" type="curve"/>
      <point x="649" y="285" type="line"/>
      <point x="651" y="285"/>
      <point x="651" y="285"/>
      <point x="651" y="284" type="curve"/>
      <point x="649" y="277"/>
      <point x="651" y="270"/>
      <point x="651" y="263" type="curve"/>
      <point x="650" y="256"/>
      <point x="649" y="244"/>
      <point x="646" y="229" type="curve" smooth="yes"/>
      <point x="640" y="198"/>
      <point x="634" y="187"/>
      <point x="627" y="176" type="curve" smooth="yes"/>
      <point x="601" y="138" type="line" smooth="yes"/>
      <point x="597" y="132"/>
      <point x="566" y="123"/>
      <point x="557" y="122" type="curve"/>
      <point x="551" y="121"/>
      <point x="537" y="124"/>
      <point x="537" y="137" type="curve"/>
      <point x="534" y="149" type="line" smooth="yes"/>
      <point x="530" y="165"/>
      <point x="535" y="149"/>
      <point x="532" y="167" type="curve" smooth="yes"/>
      <point x="530" y="182"/>
      <point x="532" y="196"/>
      <point x="532" y="211" type="curve" smooth="yes"/>
      <point x="532" y="225"/>
      <point x="526" y="239"/>
      <point x="530" y="253" type="curve"/>
      <point x="527" y="267" type="line"/>
      <point x="529" y="288"/>
      <point x="532" y="311"/>
      <point x="527" y="330" type="curve"/>
      <point x="532" y="355"/>
      <point x="533" y="391"/>
      <point x="523" y="411" type="curve"/>
      <point x="506" y="414"/>
      <point x="481" y="415"/>
      <point x="467" y="407" type="curve"/>
      <point x="464" y="396"/>
      <point x="471" y="374"/>
      <point x="461" y="369" type="curve"/>
      <point x="450" y="372"/>
      <point x="445" y="383"/>
      <point x="438" y="392" type="curve"/>
      <point x="428" y="398"/>
      <point x="415" y="407"/>
      <point x="404" y="410" type="curve"/>
      <point x="392" y="414" type="line"/>
      <point x="390" y="414"/>
      <point x="388" y="415"/>
      <point x="386" y="416" type="curve"/>
      <point x="372" y="419"/>
      <point x="358" y="415"/>
      <point x="345" y="416" type="curve"/>
      <point x="340" y="416"/>
      <point x="336" y="417"/>
      <point x="332" y="417" type="curve" smooth="yes"/>
      <point x="326" y="417"/>
      <point x="316" y="414"/>
      <point x="312" y="413" type="curve" smooth="yes"/>
      <point x="303" y="411" type="line"/>
      <point x="293" y="408"/>
      <point x="286" y="402"/>
      <point x="277" y="401" type="curve"/>
      <point x="252" y="381" type="line"/>
      <point x="239" y="366" type="line" smooth="yes"/>
      <point x="234" y="360"/>
      <point x="231" y="354"/>
      <point x="226" y="349" type="curve"/>
      <point x="224" y="341"/>
      <point x="222" y="335"/>
      <point x="217" y="330" type="curve"/>
      <point x="217" y="322"/>
      <point x="212" y="317"/>
      <point x="210" y="310" type="curve"/>
      <point x="208" y="298"/>
      <point x="210" y="283"/>
      <point x="204" y="275" type="curve"/>
      <point x="208" y="265"/>
      <point x="203" y="253"/>
      <point x="202" y="243" type="curve"/>
      <point x="206" y="226"/>
      <point x="204" y="203"/>
      <point x="208" y="187" type="curve"/>
      <point x="212" y="179"/>
      <point x="217" y="172"/>
      <point x="217" y="159" type="curve"/>
      <point x="224" y="155"/>
      <point x="229" y="147"/>
      <point x="231" y="137" type="curve"/>
      <point x="237" y="134"/>
      <point x="240" y="128"/>
      <point x="243" y="122" type="curve"/>
      <point x="248" y="119"/>
      <point x="254" y="116"/>
      <point x="255" y="110" type="curve"/>
      <point x="262" y="108"/>
      <point x="267" y="104"/>
      <point x="271" y="99" type="curve"/>
      <point x="278" y="98"/>
      <point x="283" y="94"/>
      <point x="287" y="91" type="curve"/>
      <point x="295" y="89"/>
      <point x="302" y="86"/>
      <point x="309" y="84" type="curve"/>
      <point x="327" y="84"/>
      <point x="345" y="79"/>
      <point x="364" y="80" type="curve"/>
      <point x="366" y="80"/>
      <point x="371" y="82"/>
      <point x="375" y="83" type="curve"/>
      <point x="390" y="84"/>
      <point x="401" y="86"/>
      <point x="415" y="91" type="curve"/>
      <point x="419" y="94"/>
      <point x="424" y="98"/>
      <point x="432" y="99" type="curve"/>
      <point x="436" y="106"/>
      <point x="443" y="109"/>
      <point x="448" y="114" type="curve"/>
      <point x="454" y="119"/>
      <point x="462" y="117"/>
      <point x="466" y="129" type="curve" smooth="yes"/>
      <point x="467" y="132"/>
      <point x="467" y="111"/>
      <point x="476" y="104" type="curve"/>
      <point x="476" y="104"/>
      <point x="484" y="87"/>
      <point x="489" y="84" type="curve"/>
      <point x="495" y="80"/>
      <point x="514" y="69"/>
      <point x="515" y="69" type="curve"/>
      <point x="543" y="67"/>
      <point x="558" y="55"/>
      <point x="600" y="73" type="curve" smooth="yes"/>
      <point x="612" y="78"/>
      <point x="643" y="98"/>
      <point x="656" y="110" type="curve"/>
      <point x="669" y="112"/>
      <point x="686" y="139"/>
      <point x="693" y="151" type="curve" smooth="yes"/>
      <point x="709" y="179"/>
      <point x="710" y="199"/>
      <point x="718" y="214" type="curve" smooth="yes"/>
      <point x="724" y="226"/>
      <point x="720" y="232"/>
      <point x="727" y="266" type="curve"/>
      <point x="727" y="267"/>
      <point x="729" y="290"/>
      <point x="728" y="290" type="curve"/>
      <point x="727" y="310"/>
      <point x="719" y="325"/>
      <point x="720" y="348" type="curve"/>
      <point x="714" y="358"/>
      <point x="712" y="371"/>
      <point x="706" y="380" type="curve"/>
      <point x="704" y="393"/>
      <point x="694" y="399"/>
      <point x="693" y="413" type="curve"/>
      <point x="682" y="426"/>
      <point x="674" y="443"/>
      <point x="662" y="455" type="curve"/>
      <point x="652" y="470"/>
      <point x="639" y="483"/>
      <point x="629" y="498" type="curve"/>
      <point x="618" y="503"/>
      <point x="608" y="509"/>
      <point x="600" y="517" type="curve"/>
      <point x="590" y="522"/>
      <point x="581" y="529"/>
      <point x="574" y="537" type="curve"/>
      <point x="547" y="544"/>
      <point x="535" y="566"/>
      <point x="501" y="566" type="curve"/>
      <point x="494" y="571"/>
      <point x="487" y="575"/>
      <point x="477" y="578" type="curve" smooth="yes"/>
      <point x="471" y="580"/>
      <point x="462" y="582"/>
      <point x="454" y="583" type="curve"/>
      <point x="446" y="585"/>
      <point x="438" y="587"/>
      <point x="430" y="588" type="curve"/>
      <point x="426" y="588"/>
      <point x="421" y="587"/>
      <point x="416" y="588" type="curve"/>
      <point x="412" y="588"/>
      <point x="409" y="591"/>
      <point x="405" y="591" type="curve"/>
      <point x="383" y="593"/>
      <point x="367" y="591"/>
      <point x="348" y="589" type="curve"/>
      <point x="337" y="589"/>
      <point x="326" y="588"/>
      <point x="317" y="586" type="curve" smooth="yes"/>
      <point x="313" y="585"/>
      <point x="309" y="582"/>
      <point x="306" y="582" type="curve"/>
      <point x="300" y="580"/>
      <point x="295" y="581"/>
      <point x="290" y="580" type="curve" smooth="yes"/>
      <point x="285" y="579"/>
      <point x="282" y="576"/>
      <point x="277" y="575" type="curve" smooth="yes"/>
      <point x="272" y="574"/>
      <point x="268" y="574"/>
      <point x="263" y="572" type="curve"/>
      <point x="250" y="564"/>
      <point x="233" y="561"/>
      <point x="222" y="552" type="curve"/>
      <point x="207" y="546"/>
      <point x="199" y="534"/>
      <point x="181" y="531" type="curve"/>
      <point x="166" y="518"/>
      <point x="152" y="505"/>
      <point x="134" y="495" type="curve"/>
      <point x="128" y="488"/>
      <point x="124" y="480"/>
      <point x="118" y="473" type="curve" smooth="yes"/>
      <point x="112" y="466"/>
      <point x="104" y="461"/>
      <point x="99" y="454" type="curve"/>
      <point x="96" y="449"/>
      <point x="94" y="441"/>
      <point x="91" y="436" type="curve"/>
    </contour>
    <contour>
      <point x="467" y="291"/>
      <point x="470" y="282"/>
      <point x="470" y="269" type="curve"/>
      <point x="472" y="270"/>
      <point x="472" y="269"/>
      <point x="472" y="268" type="curve" smooth="yes"/>
      <point x="473" y="228"/>
      <point x="471" y="190"/>
      <point x="447" y="175" type="curve"/>
      <point x="444" y="172"/>
      <point x="442" y="166"/>
      <point x="438" y="162" type="curve"/>
      <point x="433" y="159"/>
      <point x="428" y="157"/>
      <point x="423" y="152" type="curve"/>
      <point x="419" y="151"/>
      <point x="415" y="150"/>
      <point x="412" y="148" type="curve"/>
      <point x="408" y="147"/>
      <point x="402" y="149"/>
      <point x="400" y="146" type="curve"/>
      <point x="393" y="147"/>
      <point x="393" y="142"/>
      <point x="387" y="142" type="curve"/>
      <point x="382" y="141"/>
      <point x="378" y="139"/>
      <point x="372" y="139" type="curve"/>
      <point x="364" y="138"/>
      <point x="361" y="143"/>
      <point x="351" y="143" type="curve" smooth="yes"/>
      <point x="345" y="143"/>
      <point x="340" y="147"/>
      <point x="332" y="146" type="curve"/>
      <point x="322" y="151"/>
      <point x="313" y="156"/>
      <point x="306" y="163" type="curve"/>
      <point x="300" y="171"/>
      <point x="290" y="175"/>
      <point x="283" y="181" type="curve"/>
      <point x="281" y="189"/>
      <point x="276" y="194"/>
      <point x="277" y="206" type="curve"/>
      <point x="274" y="213"/>
      <point x="272" y="220"/>
      <point x="268" y="226" type="curve"/>
      <point x="269" y="233"/>
      <point x="268" y="239"/>
      <point x="267" y="245" type="curve"/>
      <point x="268" y="256"/>
      <point x="270" y="265"/>
      <point x="270" y="277" type="curve"/>
      <point x="274" y="284"/>
      <point x="276" y="291"/>
      <point x="279" y="300" type="curve"/>
      <point x="281" y="307"/>
      <point x="287" y="312"/>
      <point x="288" y="321" type="curve"/>
      <point x="299" y="326"/>
      <point x="305" y="335"/>
      <point x="313" y="342" type="curve"/>
      <point x="323" y="347"/>
      <point x="332" y="352"/>
      <point x="342" y="355" type="curve"/>
      <point x="353" y="355"/>
      <point x="362" y="359"/>
      <point x="374" y="358" type="curve"/>
      <point x="386" y="358"/>
      <point x="393" y="354"/>
      <point x="404" y="354" type="curve"/>
      <point x="409" y="349"/>
      <point x="416" y="348"/>
      <point x="422" y="345" type="curve"/>
      <point x="432" y="338"/>
      <point x="440" y="330"/>
      <point x="449" y="323" type="curve"/>
      <point x="451" y="319"/>
      <point x="454" y="316"/>
      <point x="457" y="312" type="curve"/>
      <point x="459" y="309"/>
      <point x="461" y="304"/>
      <point x="464" y="301" type="curve"/>
    </contour>
  </outline>
</glyph>
<glyph name="B" format="1">
  <advance width="503"/>
  <unicode hex="0042"/>
  <outline>
    <contour>
      <point x="386" y="400" type="line"/>
      <point x="386" y="410"/>
      <point x="392" y="414"/>
      <point x="394" y="422" type="curve"/>
      <point x="399" y="452"/>
      <point x="399" y="486"/>
      <point x="395" y="517" type="curve"/>
      <point x="388" y="532"/>
      <point x="380" y="546"/>
      <point x="375" y="564" type="curve"/>
      <point x="363" y="580"/>
      <point x="349" y="595"/>
      <point x="336" y="610" type="curve"/>
      <point x="316" y="620"/>
      <point x="298" y="632"/>
      <point x="279" y="643" type="curve"/>
      <point x="226" y="655"/>
      <point x="165" y="650"/>
      <point x="109" y="656" type="curve"/>
      <point x="98" y="651"/>
      <point x="82" y="652"/>
      <point x="75" y="644" type="curve"/>
      <point x="72" y="636"/>
      <point x="74" y="625"/>
      <point x="74" y="615" type="curve" smooth="yes"/>
      <point x="75" y="585"/>
      <point x="74" y="555"/>
      <point x="77" y="529" type="curve"/>
      <point x="72" y="513"/>
      <point x="77" y="495"/>
      <point x="77" y="477" type="curve" smooth="yes"/>
      <point x="77" y="409"/>
      <point x="77" y="336"/>
      <point x="79" y="272" type="curve" smooth="yes"/>
      <point x="79" y="248"/>
      <point x="82" y="220"/>
      <point x="77" y="198" type="curve"/>
      <point x="80" y="130"/>
      <point x="82" y="73"/>
      <point x="77" y="8" type="curve"/>
      <point x="76" y="0"/>
      <point x="87" y="-5"/>
      <point x="94" y="-7" type="curve"/>
      <point x="104" y="-9"/>
      <point x="115" y="-5"/>
      <point x="124" y="-5" type="curve" smooth="yes"/>
      <point x="135" y="-5"/>
      <point x="147" y="-8"/>
      <point x="159" y="-8" type="curve" smooth="yes"/>
      <point x="171" y="-8"/>
      <point x="184" y="-5"/>
      <point x="195" y="-5" type="curve" smooth="yes"/>
      <point x="203" y="-5"/>
      <point x="211" y="-6"/>
      <point x="219" y="-7" type="curve"/>
      <point x="223" y="-7"/>
      <point x="226" y="-5"/>
      <point x="230" y="-5" type="curve" smooth="yes"/>
      <point x="234" y="-5"/>
      <point x="238" y="-7"/>
      <point x="243" y="-7" type="curve"/>
      <point x="267" y="-6"/>
      <point x="292" y="0"/>
      <point x="318" y="-2" type="curve"/>
      <point x="327" y="2"/>
      <point x="334" y="6"/>
      <point x="345" y="8" type="curve"/>
      <point x="353" y="12"/>
      <point x="362" y="16"/>
      <point x="372" y="19" type="curve"/>
      <point x="387" y="33"/>
      <point x="404" y="45"/>
      <point x="421" y="58" type="curve"/>
      <point x="424" y="66"/>
      <point x="430" y="74"/>
      <point x="435" y="83" type="curve" smooth="yes"/>
      <point x="440" y="92"/>
      <point x="446" y="101"/>
      <point x="449" y="109" type="curve"/>
      <point x="451" y="112"/>
      <point x="452" y="118"/>
      <point x="454" y="123" type="curve"/>
      <point x="458" y="137"/>
      <point x="465" y="156"/>
      <point x="465" y="172" type="curve" smooth="yes"/>
      <point x="465" y="174"/>
      <point x="464" y="175"/>
      <point x="463" y="178" type="curve"/>
      <point x="461" y="193"/>
      <point x="462" y="208"/>
      <point x="460" y="224" type="curve" smooth="yes"/>
      <point x="459" y="235"/>
      <point x="457" y="249"/>
      <point x="452" y="258" type="curve"/>
      <point x="441" y="276"/>
      <point x="427" y="291"/>
      <point x="416" y="309" type="curve"/>
      <point x="411" y="312"/>
      <point x="399" y="319"/>
      <point x="397" y="321" type="curve"/>
      <point x="393" y="329"/>
      <point x="382" y="329"/>
      <point x="378" y="336" type="curve"/>
      <point x="378" y="336"/>
      <point x="366" y="341"/>
      <point x="359" y="342" type="curve"/>
      <point x="358" y="342"/>
      <point x="344" y="345"/>
      <point x="343" y="353" type="curve"/>
      <point x="348" y="364"/>
      <point x="360" y="368"/>
      <point x="369" y="375" type="curve"/>
    </contour>
    <contour>
      <point x="317" y="488" type="line"/>
      <point x="317" y="481"/>
      <point x="315" y="471"/>
      <point x="318" y="466" type="curve"/>
      <point x="317" y="462"/>
      <point x="317" y="450"/>
      <point x="315" y="444" type="curve"/>
      <point x="314" y="442"/>
      <point x="311" y="439"/>
      <point x="310" y="436" type="curve" smooth="yes"/>
      <point x="304" y="419" type="line"/>
      <point x="302" y="414"/>
      <point x="300" y="412"/>
      <point x="298" y="408" type="curve"/>
      <point x="291" y="398"/>
      <point x="278" y="390"/>
      <point x="269" y="381" type="curve"/>
      <point x="260" y="380"/>
      <point x="254" y="374"/>
      <point x="246" y="370" type="curve"/>
      <point x="220" y="365"/>
      <point x="191" y="365"/>
      <point x="164" y="367" type="curve"/>
      <point x="153" y="379"/>
      <point x="166" y="406"/>
      <point x="157" y="421" type="curve"/>
      <point x="159" y="471"/>
      <point x="157" y="523"/>
      <point x="159" y="572" type="curve"/>
      <point x="169" y="584"/>
      <point x="189" y="578"/>
      <point x="208" y="578" type="curve"/>
      <point x="221" y="573"/>
      <point x="238" y="573"/>
      <point x="252" y="569" type="curve"/>
      <point x="273" y="559"/>
      <point x="289" y="544"/>
      <point x="302" y="526" type="curve"/>
    </contour>
    <contour>
      <point x="159" y="211" type="line"/>
      <point x="160" y="238"/>
      <point x="157" y="266"/>
      <point x="159" y="293" type="curve"/>
      <point x="170" y="300"/>
      <point x="184" y="296"/>
      <point x="198" y="296" type="curve"/>
      <point x="224" y="297"/>
      <point x="251" y="299"/>
      <point x="276" y="295" type="curve" smooth="yes"/>
      <point x="298" y="291"/>
      <point x="316" y="282"/>
      <point x="331" y="274" type="curve"/>
      <point x="338" y="272"/>
      <point x="341" y="266"/>
      <point x="345" y="261" type="curve"/>
      <point x="349" y="257"/>
      <point x="355" y="254"/>
      <point x="358" y="249" type="curve"/>
      <point x="366" y="241"/>
      <point x="371" y="229"/>
      <point x="378" y="219" type="curve"/>
      <point x="378" y="213"/>
      <point x="380" y="209"/>
      <point x="381" y="205" type="curve"/>
      <point x="382" y="189"/>
      <point x="379" y="178"/>
      <point x="380" y="164" type="curve"/>
      <point x="377" y="155"/>
      <point x="372" y="147"/>
      <point x="370" y="137" type="curve"/>
      <point x="339" y="99" type="line"/>
      <point x="322" y="92"/>
      <point x="309" y="80"/>
      <point x="291" y="74" type="curve" smooth="yes"/>
      <point x="278" y="70"/>
      <point x="263" y="74"/>
      <point x="249" y="74" type="curve" smooth="yes"/>
      <point x="239" y="74"/>
      <point x="230" y="70"/>
      <point x="220" y="69" type="curve"/>
      <point x="215" y="69"/>
      <point x="210" y="71"/>
      <point x="205" y="71" type="curve" smooth="yes"/>
      <point x="192" y="71"/>
      <point x="174" y="67"/>
      <point x="161" y="73" type="curve"/>
      <point x="157" y="83"/>
      <point x="160" y="97"/>
      <point x="159" y="110" type="curve" smooth="yes"/>
      <point x="158" y="123"/>
      <point x="159" y="137"/>
      <point x="161" y="148" type="curve"/>
      <point x="161" y="155"/>
      <point x="158" y="158"/>
      <point x="157" y="164" type="curve"/>
      <point x="160" y="171"/>
      <point x="159" y="179"/>
      <point x="159" y="187" type="curve" smooth="yes"/>
    </contour>
  </outline>
</glyph>
<glyph name="C" format="1">
  <advance width="626"/>
  <unicode hex="0043"/>
  <outline>
    <contour>
      <point x="528" y="644" type="line"/>
      <point x="512" y="647"/>
      <point x="500" y="653"/>
      <point x="487" y="659" type="curve"/>
      <point x="470" y="657"/>
      <point x="454" y="666"/>
      <point x="436" y="668" type="curve" smooth="yes"/>
      <point x="407" y="671"/>
      <point x="377" y="666"/>
      <point x="348" y="668" type="curve"/>
      <point x="331" y="661"/>
      <point x="312" y="660"/>
      <point x="294" y="656" type="curve"/>
      <point x="277" y="649" type="line"/>
      <point x="274" y="648"/>
      <point x="271" y="649"/>
      <point x="268" y="648" type="curve" smooth="yes"/>
      <point x="259" y="645"/>
      <point x="247" y="640"/>
      <point x="241" y="637" type="curve"/>
      <point x="212" y="624" type="line"/>
      <point x="202" y="615"/>
      <point x="190" y="612"/>
      <point x="183" y="600" type="curve"/>
      <point x="167" y="591" type="line"/>
      <point x="162" y="584"/>
      <point x="156" y="578"/>
      <point x="149" y="574" type="curve"/>
      <point x="144" y="567"/>
      <point x="137" y="561"/>
      <point x="132" y="555" type="curve"/>
      <point x="119" y="544"/>
      <point x="110" y="529"/>
      <point x="99" y="517" type="curve"/>
      <point x="95" y="504"/>
      <point x="89" y="492"/>
      <point x="80" y="484" type="curve"/>
      <point x="78" y="479"/>
      <point x="72" y="470"/>
      <point x="72" y="460" type="curve"/>
      <point x="67" y="455"/>
      <point x="67" y="445"/>
      <point x="61" y="440" type="curve"/>
      <point x="59" y="422"/>
      <point x="54" y="406"/>
      <point x="50" y="389" type="curve"/>
      <point x="50" y="377"/>
      <point x="49" y="365"/>
      <point x="49" y="353" type="curve"/>
      <point x="48" y="340"/>
      <point x="46" y="328"/>
      <point x="47" y="317" type="curve"/>
      <point x="47" y="311"/>
      <point x="49" y="305"/>
      <point x="50" y="299" type="curve"/>
      <point x="52" y="280" type="line" smooth="yes"/>
      <point x="54" y="262"/>
      <point x="57" y="242"/>
      <point x="61" y="230" type="curve"/>
      <point x="62" y="229"/>
      <point x="62" y="226"/>
      <point x="63" y="224" type="curve"/>
      <point x="70" y="202"/>
      <point x="81" y="183"/>
      <point x="88" y="164" type="curve"/>
      <point x="97" y="153"/>
      <point x="106" y="142"/>
      <point x="113" y="132" type="curve" smooth="yes"/>
      <point x="116" y="128"/>
      <point x="121" y="125"/>
      <point x="121" y="120" type="curve"/>
      <point x="132" y="105"/>
      <point x="147" y="94"/>
      <point x="157" y="79" type="curve"/>
      <point x="166" y="74"/>
      <point x="175" y="69"/>
      <point x="181" y="61" type="curve"/>
      <point x="192" y="58"/>
      <point x="196" y="48"/>
      <point x="206" y="44" type="curve"/>
      <point x="225" y="34"/>
      <point x="246" y="26"/>
      <point x="263" y="14" type="curve"/>
      <point x="286" y="9"/>
      <point x="307" y="3"/>
      <point x="328" y="-3" type="curve"/>
      <point x="356" y="-5"/>
      <point x="386" y="-8"/>
      <point x="416" y="-7" type="curve"/>
      <point x="434" y="-5"/>
      <point x="453" y="-1"/>
      <point x="469" y="3" type="curve"/>
      <point x="488" y="7"/>
      <point x="504" y="13"/>
      <point x="518" y="19" type="curve"/>
      <point x="526" y="20"/>
      <point x="531" y="22"/>
      <point x="537" y="25" type="curve"/>
      <point x="551" y="29"/>
      <point x="563" y="34"/>
      <point x="570" y="44" type="curve"/>
      <point x="573" y="51"/>
      <point x="571" y="61"/>
      <point x="573" y="68" type="curve"/>
      <point x="571" y="71"/>
      <point x="572" y="77"/>
      <point x="570" y="80" type="curve"/>
      <point x="570" y="92"/>
      <point x="570" y="104"/>
      <point x="572" y="113" type="curve"/>
      <point x="573" y="120"/>
      <point x="570" y="123"/>
      <point x="570" y="129" type="curve"/>
      <point x="567" y="132"/>
      <point x="569" y="140"/>
      <point x="562" y="140" type="curve"/>
      <point x="543" y="139"/>
      <point x="540" y="122"/>
      <point x="526" y="116" type="curve"/>
      <point x="516" y="114"/>
      <point x="510" y="108"/>
      <point x="501" y="104" type="curve"/>
      <point x="488" y="104"/>
      <point x="482" y="96"/>
      <point x="473" y="93" type="curve"/>
      <point x="466" y="93"/>
      <point x="461" y="89"/>
      <point x="454" y="88" type="curve"/>
      <point x="445" y="86"/>
      <point x="434" y="88"/>
      <point x="425" y="86" type="curve"/>
      <point x="418" y="85"/>
      <point x="413" y="82"/>
      <point x="406" y="82" type="curve"/>
      <point x="399" y="81"/>
      <point x="391" y="81"/>
      <point x="383" y="82" type="curve"/>
      <point x="353" y="83"/>
      <point x="327" y="91"/>
      <point x="302" y="94" type="curve"/>
      <point x="295" y="99"/>
      <point x="286" y="102"/>
      <point x="277" y="105" type="curve"/>
      <point x="272" y="112"/>
      <point x="261" y="114"/>
      <point x="252" y="116" type="curve"/>
      <point x="245" y="123"/>
      <point x="237" y="130"/>
      <point x="228" y="135" type="curve" smooth="yes"/>
      <point x="219" y="140"/>
      <point x="214" y="149"/>
      <point x="205" y="154" type="curve"/>
      <point x="200" y="163"/>
      <point x="193" y="168"/>
      <point x="189" y="176" type="curve"/>
      <point x="176" y="186"/>
      <point x="167" y="199"/>
      <point x="160" y="216" type="curve"/>
      <point x="157" y="222"/>
      <point x="152" y="228"/>
      <point x="151" y="236" type="curve"/>
      <point x="142" y="247"/>
      <point x="138" y="263"/>
      <point x="132" y="277" type="curve"/>
      <point x="131" y="299"/>
      <point x="130" y="321"/>
      <point x="130" y="345" type="curve"/>
      <point x="133" y="357"/>
      <point x="134" y="371"/>
      <point x="135" y="384" type="curve"/>
      <point x="139" y="395"/>
      <point x="143" y="405"/>
      <point x="145" y="417" type="curve"/>
      <point x="150" y="424"/>
      <point x="154" y="433"/>
      <point x="159" y="438" type="curve" smooth="yes"/>
      <point x="162" y="441"/>
      <point x="162" y="442"/>
      <point x="164" y="446" type="curve"/>
      <point x="165" y="450"/>
      <point x="165" y="455"/>
      <point x="168" y="458" type="curve"/>
      <point x="174" y="466"/>
      <point x="181" y="472"/>
      <point x="184" y="482" type="curve"/>
      <point x="202" y="496"/>
      <point x="215" y="515"/>
      <point x="235" y="528" type="curve"/>
      <point x="252" y="543"/>
      <point x="271" y="556"/>
      <point x="294" y="564" type="curve"/>
      <point x="333" y="567"/>
      <point x="360" y="582"/>
      <point x="402" y="583" type="curve"/>
      <point x="422" y="579"/>
      <point x="442" y="577"/>
      <point x="460" y="574" type="curve"/>
      <point x="479" y="569"/>
      <point x="496" y="563"/>
      <point x="514" y="556" type="curve"/>
      <point x="531" y="548"/>
      <point x="540" y="525"/>
      <point x="564" y="529" type="curve"/>
      <point x="576" y="536"/>
      <point x="571" y="555"/>
      <point x="570" y="570" type="curve"/>
      <point x="570" y="588"/>
      <point x="572" y="608"/>
      <point x="566" y="619" type="curve"/>
      <point x="561" y="627"/>
      <point x="553" y="628"/>
      <point x="547" y="632" type="curve" smooth="yes"/>
    </contour>
  </outline>
</glyph>
<glyph name="E" format="1">
  <advance width="463"/>
  <unicode hex="0045"/>
  <outline>
    <contour>
      <point x="139" y="213" type="line"/>
      <point x="138" y="227"/>
      <point x="138" y="250"/>
      <point x="139" y="266" type="curve"/>
      <point x="143" y="273"/>
      <point x="138" y="288"/>
      <point x="144" y="293" type="curve"/>
      <point x="141" y="303"/>
      <point x="145" y="309"/>
      <point x="150" y="315" type="curve"/>
      <point x="166" y="322"/>
      <point x="192" y="320"/>
      <point x="208" y="320" type="curve" smooth="yes"/>
      <point x="212" y="320"/>
      <point x="216" y="321"/>
      <point x="219" y="321" type="curve"/>
      <point x="247" y="322"/>
      <point x="272" y="323"/>
      <point x="297" y="323" type="curve" smooth="yes"/>
      <point x="307" y="323"/>
      <point x="316" y="321"/>
      <point x="327" y="321" type="curve" smooth="yes"/>
      <point x="336" y="321"/>
      <point x="346" y="323"/>
      <point x="355" y="321" type="curve"/>
      <point x="372" y="326"/>
      <point x="395" y="324"/>
      <point x="407" y="334" type="curve"/>
      <point x="416" y="352"/>
      <point x="404" y="372"/>
      <point x="407" y="394" type="curve"/>
      <point x="392" y="405"/>
      <point x="365" y="403"/>
      <point x="339" y="403" type="curve"/>
      <point x="312" y="412"/>
      <point x="279" y="403"/>
      <point x="254" y="410" type="curve"/>
      <point x="247" y="405"/>
      <point x="239" y="409"/>
      <point x="227" y="408" type="curve" smooth="yes"/>
      <point x="200" y="406"/>
      <point x="161" y="400"/>
      <point x="145" y="417" type="curve"/>
      <point x="139" y="430"/>
      <point x="141" y="454"/>
      <point x="142" y="465" type="curve" smooth="yes"/>
      <point x="143" y="477"/>
      <point x="140" y="486"/>
      <point x="139" y="496" type="curve"/>
      <point x="145" y="513"/>
      <point x="142" y="531"/>
      <point x="142" y="551" type="curve"/>
      <point x="147" y="556"/>
      <point x="145" y="567"/>
      <point x="152" y="569" type="curve"/>
      <point x="158" y="575"/>
      <point x="171" y="574"/>
      <point x="182" y="572" type="curve"/>
      <point x="219" y="578"/>
      <point x="258" y="575"/>
      <point x="297" y="575" type="curve" smooth="yes"/>
      <point x="322" y="575"/>
      <point x="347" y="580"/>
      <point x="371" y="577" type="curve"/>
      <point x="384" y="580"/>
      <point x="403" y="578"/>
      <point x="405" y="592" type="curve" smooth="yes"/>
      <point x="407" y="610"/>
      <point x="407" y="639"/>
      <point x="396" y="649" type="curve"/>
      <point x="371" y="655"/>
      <point x="343" y="654"/>
      <point x="314" y="654" type="curve" smooth="yes"/>
      <point x="307" y="654"/>
      <point x="299" y="656"/>
      <point x="292" y="656" type="curve"/>
      <point x="285" y="655"/>
      <point x="278" y="652"/>
      <point x="271" y="652" type="curve" smooth="yes"/>
      <point x="257" y="652"/>
      <point x="242" y="654"/>
      <point x="227" y="654" type="curve" smooth="yes"/>
      <point x="178" y="654"/>
      <point x="133" y="652"/>
      <point x="85" y="654" type="curve"/>
      <point x="76" y="650"/>
      <point x="64" y="649"/>
      <point x="59" y="641" type="curve"/>
      <point x="54" y="622"/>
      <point x="58" y="601"/>
      <point x="59" y="580" type="curve"/>
      <point x="59" y="559"/>
      <point x="60" y="537"/>
      <point x="60" y="518" type="curve"/>
      <point x="57" y="507"/>
      <point x="56" y="494"/>
      <point x="55" y="481" type="curve"/>
      <point x="55" y="461"/>
      <point x="56" y="440"/>
      <point x="60" y="425" type="curve"/>
      <point x="60" y="420"/>
      <point x="56" y="418"/>
      <point x="57" y="411" type="curve"/>
      <point x="60" y="405"/>
      <point x="61" y="397"/>
      <point x="60" y="388" type="curve"/>
      <point x="58" y="377"/>
      <point x="64" y="374"/>
      <point x="63" y="364" type="curve"/>
      <point x="57" y="344"/>
      <point x="62" y="321"/>
      <point x="62" y="298" type="curve" smooth="yes"/>
      <point x="61" y="269"/>
      <point x="60" y="241"/>
      <point x="62" y="216" type="curve"/>
      <point x="58" y="201"/>
      <point x="59" y="184"/>
      <point x="62" y="168" type="curve"/>
      <point x="63" y="161"/>
      <point x="58" y="161"/>
      <point x="59" y="154" type="curve"/>
      <point x="62" y="149"/>
      <point x="64" y="143"/>
      <point x="60" y="137" type="curve"/>
      <point x="62" y="131"/>
      <point x="61" y="121"/>
      <point x="63" y="115" type="curve"/>
      <point x="63" y="112"/>
      <point x="62" y="109"/>
      <point x="62" y="105" type="curve"/>
      <point x="60" y="94"/>
      <point x="61" y="73"/>
      <point x="62" y="61" type="curve"/>
      <point x="62" y="49"/>
      <point x="58" y="38"/>
      <point x="63" y="28" type="curve"/>
      <point x="69" y="23"/>
      <point x="74" y="16"/>
      <point x="82" y="14" type="curve" smooth="yes"/>
      <point x="106" y="8"/>
      <point x="136" y="11"/>
      <point x="159" y="11" type="curve" smooth="yes"/>
      <point x="175" y="11"/>
      <point x="191" y="9"/>
      <point x="207" y="9" type="curve" smooth="yes"/>
      <point x="222" y="9"/>
      <point x="238" y="9"/>
      <point x="251" y="12" type="curve"/>
      <point x="283" y="8"/>
      <point x="319" y="15"/>
      <point x="349" y="9" type="curve"/>
      <point x="355" y="9"/>
      <point x="359" y="13"/>
      <point x="366" y="12" type="curve"/>
      <point x="375" y="13"/>
      <point x="388" y="10"/>
      <point x="393" y="16" type="curve"/>
      <point x="400" y="18"/>
      <point x="408" y="20"/>
      <point x="410" y="28" type="curve"/>
      <point x="413" y="49"/>
      <point x="416" y="76"/>
      <point x="404" y="88" type="curve"/>
      <point x="380" y="94"/>
      <point x="354" y="91"/>
      <point x="330" y="91" type="curve" smooth="yes"/>
      <point x="321" y="91"/>
      <point x="313" y="93"/>
      <point x="304" y="93" type="curve" smooth="yes"/>
      <point x="298" y="93"/>
      <point x="292" y="90"/>
      <point x="286" y="90" type="curve"/>
      <point x="280" y="89"/>
      <point x="273" y="91"/>
      <point x="267" y="91" type="curve" smooth="yes"/>
      <point x="260" y="91"/>
      <point x="253" y="89"/>
      <point x="246" y="90" type="curve"/>
      <point x="239" y="90"/>
      <point x="233" y="93"/>
      <point x="226" y="93" type="curve" smooth="yes"/>
      <point x="220" y="93"/>
      <point x="214" y="91"/>
      <point x="208" y="91" type="curve" smooth="yes"/>
      <point x="202" y="91"/>
      <point x="195" y="93"/>
      <point x="189" y="93" type="curve" smooth="yes"/>
      <point x="180" y="93"/>
      <point x="171" y="88"/>
      <point x="161" y="91" type="curve"/>
      <point x="150" y="96"/>
      <point x="143" y="105"/>
      <point x="139" y="116" type="curve"/>
      <point x="137" y="125"/>
      <point x="140" y="138"/>
      <point x="139" y="151" type="curve"/>
      <point x="144" y="155"/>
      <point x="140" y="162"/>
      <point x="141" y="165" type="curve"/>
      <point x="141" y="171"/>
      <point x="143" y="176"/>
      <point x="144" y="183" type="curve"/>
    </contour>
  </outline>
</glyph>
<glyph name="F" format="1">
  <advance width="410"/>
  <unicode hex="0046"/>
  <outline>
    <contour>
      <point x="55" y="299" type="line"/>
      <point x="53" y="269"/>
      <point x="55" y="236"/>
      <point x="55" y="203" type="curve" smooth="yes"/>
      <point x="55" y="165"/>
      <point x="54" y="126"/>
      <point x="56" y="88" type="curve"/>
      <point x="56" y="81"/>
      <point x="53" y="75"/>
      <point x="53" y="68" type="curve" smooth="yes"/>
      <point x="53" y="60"/>
      <point x="55" y="52"/>
      <point x="55" y="44" type="curve"/>
      <point x="54" y="32"/>
      <point x="49" y="21"/>
      <point x="53" y="11" type="curve"/>
      <point x="60" y="3"/>
      <point x="75" y="1"/>
      <point x="89" y="1" type="curve" smooth="yes"/>
      <point x="98" y="1"/>
      <point x="108" y="2"/>
      <point x="116" y="3" type="curve" smooth="yes"/>
      <point x="126" y="4"/>
      <point x="135" y="2"/>
      <point x="141" y="8" type="curve"/>
      <point x="150" y="19"/>
      <point x="144" y="32"/>
      <point x="143" y="45" type="curve" smooth="yes"/>
      <point x="142" y="64"/>
      <point x="144" y="82"/>
      <point x="145" y="102" type="curve"/>
      <point x="145" y="122"/>
      <point x="146" y="143"/>
      <point x="145" y="164" type="curve"/>
      <point x="141" y="190" type="line"/>
      <point x="141" y="202"/>
      <point x="142" y="213"/>
      <point x="143" y="224" type="curve" smooth="yes"/>
      <point x="144" y="234"/>
      <point x="143" y="245"/>
      <point x="143" y="255" type="curve" smooth="yes"/>
      <point x="143" y="266"/>
      <point x="141" y="278"/>
      <point x="141" y="288" type="curve" smooth="yes"/>
      <point x="141" y="298"/>
      <point x="143" y="310"/>
      <point x="146" y="318" type="curve"/>
      <point x="154" y="323"/>
      <point x="165" y="321"/>
      <point x="175" y="321" type="curve"/>
      <point x="194" y="322"/>
      <point x="226" y="323"/>
      <point x="244" y="321" type="curve"/>
      <point x="249" y="321"/>
      <point x="253" y="319"/>
      <point x="258" y="320" type="curve" smooth="yes"/>
      <point x="275" y="323"/>
      <point x="299" y="323"/>
      <point x="321" y="323" type="curve" smooth="yes"/>
      <point x="345" y="323"/>
      <point x="370" y="319"/>
      <point x="384" y="332" type="curve"/>
      <point x="389" y="342"/>
      <point x="387" y="356"/>
      <point x="384" y="367" type="curve"/>
      <point x="384" y="381"/>
      <point x="385" y="395"/>
      <point x="378" y="402" type="curve"/>
      <point x="369" y="407"/>
      <point x="358" y="403"/>
      <point x="348" y="403" type="curve" smooth="yes"/>
      <point x="315" y="404"/>
      <point x="277" y="406"/>
      <point x="244" y="402" type="curve"/>
      <point x="236" y="402"/>
      <point x="231" y="406"/>
      <point x="222" y="405" type="curve"/>
      <point x="211" y="405"/>
      <point x="205" y="401"/>
      <point x="195" y="402" type="curve"/>
      <point x="188" y="403"/>
      <point x="182" y="406"/>
      <point x="175" y="406" type="curve"/>
      <point x="163" y="408"/>
      <point x="152" y="404"/>
      <point x="143" y="410" type="curve"/>
      <point x="140" y="423"/>
      <point x="145" y="437"/>
      <point x="145" y="452" type="curve" smooth="yes"/>
      <point x="145" y="479"/>
      <point x="141" y="509"/>
      <point x="146" y="533" type="curve"/>
      <point x="146" y="539"/>
      <point x="142" y="544"/>
      <point x="141" y="553" type="curve"/>
      <point x="141" y="561"/>
      <point x="140" y="570"/>
      <point x="145" y="575" type="curve"/>
      <point x="176" y="576"/>
      <point x="208" y="577"/>
      <point x="241" y="577" type="curve" smooth="yes"/>
      <point x="263" y="577"/>
      <point x="288" y="575"/>
      <point x="307" y="575" type="curve" smooth="yes"/>
      <point x="309" y="575"/>
      <point x="309" y="576"/>
      <point x="312" y="577" type="curve"/>
      <point x="314" y="577"/>
      <point x="317" y="575"/>
      <point x="318" y="575" type="curve" smooth="yes"/>
      <point x="327" y="575"/>
      <point x="336" y="577"/>
      <point x="345" y="577" type="curve" smooth="yes"/>
      <point x="357" y="577"/>
      <point x="370" y="572"/>
      <point x="381" y="578" type="curve"/>
      <point x="396" y="599"/>
      <point x="393" y="651"/>
      <point x="372" y="662" type="curve"/>
      <point x="356" y="660"/>
      <point x="338" y="661"/>
      <point x="327" y="660" type="curve" smooth="yes"/>
      <point x="314" y="659"/>
      <point x="304" y="660"/>
      <point x="291" y="660" type="curve"/>
      <point x="266" y="661"/>
      <point x="245" y="659"/>
      <point x="223" y="657" type="curve"/>
      <point x="218" y="657"/>
      <point x="212" y="658"/>
      <point x="209" y="656" type="curve"/>
      <point x="206" y="658"/>
      <point x="200" y="660"/>
      <point x="197" y="657" type="curve"/>
      <point x="184" y="658"/>
      <point x="177" y="655"/>
      <point x="165" y="656" type="curve"/>
      <point x="156" y="654"/>
      <point x="155" y="660"/>
      <point x="146" y="659" type="curve"/>
      <point x="137" y="660"/>
      <point x="127" y="657"/>
      <point x="116" y="657" type="curve" smooth="yes"/>
      <point x="94" y="657"/>
      <point x="68" y="664"/>
      <point x="53" y="652" type="curve"/>
      <point x="45" y="632"/>
      <point x="53" y="611"/>
      <point x="53" y="591" type="curve" smooth="yes"/>
      <point x="53" y="584"/>
      <point x="52" y="578"/>
      <point x="52" y="570" type="curve" smooth="yes"/>
      <point x="52" y="561"/>
      <point x="55" y="551"/>
      <point x="55" y="542" type="curve"/>
      <point x="54" y="535"/>
      <point x="52" y="528"/>
      <point x="52" y="520" type="curve" smooth="yes"/>
      <point x="52" y="511"/>
      <point x="55" y="501"/>
      <point x="55" y="492" type="curve" smooth="yes"/>
      <point x="55" y="483"/>
      <point x="53" y="475"/>
      <point x="53" y="466" type="curve"/>
      <point x="55" y="413"/>
      <point x="54" y="362"/>
      <point x="55" y="313" type="curve" smooth="yes"/>
    </contour>
  </outline>
</glyph>
